<?xml version="1.0" encoding="UTF-8"?>
<svg xmlns="http://www.w3.org/2000/svg" xmlns:xlink="http://www.w3.org/1999/xlink" width="2778pt" height="1644.24pt" viewBox="0 0 2778 1644.24" version="1.2">
<defs>
<g>
<symbol overflow="visible" id="glyph0-0">
<path style="stroke:none;" d=""/>
</symbol>
<symbol overflow="visible" id="glyph0-1">
<path style="stroke:none;" d="M 1.796875 -21 L 1.796875 0 L 6.265625 0 C 8.09375 0 9.484375 -0.515625 10.4375 -1.546875 C 11.390625 -2.59375 11.859375 -4.0625 11.859375 -5.9375 L 11.859375 -15.203125 C 11.84375 -17.234375 11.34375 -18.71875 10.34375 -19.640625 C 9.359375 -20.5625 7.859375 -21.015625 5.859375 -21.015625 Z M 4.8125 -18.0625 L 6.34375 -18.0625 C 7.265625 -18.0625 7.90625 -17.828125 8.28125 -17.359375 C 8.671875 -16.890625 8.859375 -16.25 8.859375 -15.4375 L 8.859375 -6.140625 C 8.859375 -5 8.625 -4.171875 8.171875 -3.6875 C 7.71875 -3.203125 7.046875 -2.953125 6.15625 -2.953125 L 4.8125 -2.953125 Z M 4.8125 -18.0625 "/>
</symbol>
<symbol overflow="visible" id="glyph0-2">
<path style="stroke:none;" d="M 4.5 -4.40625 L 4.5 -6.328125 L 10.5625 -6.328125 L 10.5625 -10.21875 C 10.546875 -11.90625 10.046875 -13.171875 9.046875 -14.046875 C 8.25 -14.765625 7.21875 -15.125 5.984375 -15.125 C 4.765625 -15.125 3.75 -14.78125 2.96875 -14.109375 C 1.984375 -13.28125 1.5 -12.078125 1.5 -10.515625 L 1.5 -4.8125 C 1.5 -3.21875 1.890625 -1.96875 2.6875 -1.09375 C 3.5 -0.21875 4.609375 0.21875 6.03125 0.21875 C 7.09375 0.21875 8.015625 -0.0625 8.796875 -0.609375 C 9.921875 -1.421875 10.484375 -2.640625 10.484375 -4.265625 L 10.484375 -4.375 L 7.484375 -4.375 C 7.484375 -4 7.390625 -3.65625 7.21875 -3.359375 C 6.9375 -2.921875 6.40625 -2.71875 5.640625 -2.71875 C 4.859375 -2.71875 4.484375 -3.296875 4.484375 -4.4375 Z M 4.484375 -8.671875 L 4.484375 -10.5 C 4.484375 -11.015625 4.609375 -11.421875 4.875 -11.734375 C 5.140625 -12.03125 5.5 -12.1875 5.984375 -12.171875 C 6.46875 -12.171875 6.859375 -12.015625 7.125 -11.734375 C 7.40625 -11.46875 7.546875 -11.0625 7.546875 -10.578125 L 7.546875 -8.625 Z M 4.484375 -8.671875 "/>
</symbol>
<symbol overflow="visible" id="glyph0-3">
<path style="stroke:none;" d="M 5.4375 0 L 6.296875 0 L 6.296875 -2.78125 L 6 -2.78125 C 5.078125 -2.796875 4.609375 -3.28125 4.609375 -4.234375 L 4.609375 -21 L 1.625 -21 L 1.625 -4.078125 C 1.625 -1.359375 2.90625 0 5.4375 0 Z M 5.4375 0 "/>
</symbol>
<symbol overflow="visible" id="glyph0-4">
<path style="stroke:none;" d="M 1.34375 -3.953125 C 1.34375 -1.15625 2.46875 0.234375 4.71875 0.234375 C 5.84375 0.234375 6.765625 -0.34375 7.46875 -1.46875 L 7.53125 -1.46875 L 7.53125 0 L 10.53125 0 L 10.53125 -10.40625 C 10.53125 -11.921875 10.109375 -13.09375 9.296875 -13.90625 C 8.46875 -14.71875 7.359375 -15.109375 6 -15.109375 C 4.640625 -15.109375 3.546875 -14.703125 2.703125 -13.859375 C 1.875 -13.03125 1.46875 -11.96875 1.484375 -10.65625 L 4.328125 -10.65625 C 4.34375 -11.046875 4.5 -11.390625 4.765625 -11.703125 C 5.046875 -12 5.4375 -12.171875 5.921875 -12.171875 C 6.421875 -12.171875 6.828125 -12.015625 7.09375 -11.71875 C 7.375 -11.40625 7.53125 -10.984375 7.53125 -10.421875 L 7.53125 -8.859375 C 6.890625 -8.921875 6.328125 -8.953125 5.8125 -8.953125 C 4.1875 -8.953125 3.015625 -8.515625 2.296875 -7.65625 C 1.671875 -6.9375 1.359375 -5.6875 1.359375 -3.9375 Z M 4.359375 -4.359375 C 4.359375 -5.828125 5.0625 -6.5625 6.484375 -6.5625 C 6.828125 -6.546875 7.171875 -6.515625 7.546875 -6.453125 L 7.546875 -4.359375 C 7.546875 -3.75 7.375 -3.28125 7.0625 -2.9375 C 6.734375 -2.609375 6.328125 -2.4375 5.828125 -2.4375 C 5.328125 -2.4375 4.96875 -2.640625 4.734375 -3.03125 C 4.5 -3.421875 4.375 -3.859375 4.359375 -4.359375 Z M 4.359375 -4.359375 "/>
</symbol>
<symbol overflow="visible" id="glyph0-5">
<path style="stroke:none;" d="M 10.078125 -10.84375 C 10.078125 -12.125 9.6875 -13.140625 8.9375 -13.90625 C 8.171875 -14.71875 7.078125 -15.109375 5.625 -15.109375 C 4.171875 -15.109375 3.0625 -14.71875 2.28125 -13.921875 C 1.515625 -13.125 1.125 -12.140625 1.125 -10.921875 C 1.125 -9.703125 1.359375 -8.8125 1.84375 -8.25 C 2.328125 -7.671875 2.96875 -7.21875 3.796875 -6.875 L 5.5625 -6.140625 C 6.15625 -5.875 6.5625 -5.59375 6.765625 -5.296875 C 6.96875 -5 7.078125 -4.625 7.078125 -4.15625 C 7.078125 -3.6875 6.9375 -3.296875 6.65625 -2.984375 C 6.390625 -2.671875 5.984375 -2.515625 5.46875 -2.515625 C 4.96875 -2.515625 4.5625 -2.671875 4.296875 -2.96875 C 4.015625 -3.28125 3.875 -3.671875 3.875 -4.15625 L 0.875 -4.15625 C 0.875 -2.90625 1.265625 -1.84375 2.03125 -1.015625 C 2.8125 -0.171875 3.984375 0.25 5.546875 0.25 C 7.109375 0.25 8.296875 -0.25 9.109375 -1.25 C 9.734375 -2.015625 10.0625 -2.984375 10.0625 -4.140625 C 10.0625 -6.21875 9.171875 -7.609375 7.390625 -8.296875 L 5.59375 -9.0625 C 5.03125 -9.265625 4.65625 -9.515625 4.4375 -9.8125 C 4.21875 -10.109375 4.109375 -10.453125 4.125 -10.875 C 4.125 -11.296875 4.28125 -11.640625 4.5625 -11.90625 C 4.859375 -12.171875 5.21875 -12.296875 5.640625 -12.296875 C 6.0625 -12.296875 6.40625 -12.171875 6.671875 -11.90625 C 6.921875 -11.625 7.078125 -11.265625 7.109375 -10.8125 Z M 10.078125 -10.84375 "/>
</symbol>
<symbol overflow="visible" id="glyph0-6">
<path style="stroke:none;" d="M 1.625 0 L 4.609375 0 L 4.609375 -14.875 L 1.625 -14.875 Z M 1.625 -20.578125 L 1.625 -17.625 L 4.609375 -17.625 L 4.609375 -20.578125 Z M 1.625 -20.578125 "/>
</symbol>
<symbol overflow="visible" id="glyph0-7">
<path style="stroke:none;" d="M 1.5 -4.796875 C 1.5 -2.984375 1.953125 -1.703125 2.84375 -0.921875 C 3.734375 -0.140625 4.78125 0.25 6.015625 0.265625 C 7.25 0.28125 8.296875 -0.109375 9.1875 -0.875 C 10.09375 -1.65625 10.546875 -2.953125 10.546875 -4.765625 L 10.546875 -10.046875 C 10.546875 -11.875 10.09375 -13.171875 9.1875 -13.9375 C 8.296875 -14.703125 7.234375 -15.078125 6 -15.09375 C 4.765625 -15.109375 3.703125 -14.734375 2.8125 -13.953125 C 1.921875 -13.171875 1.46875 -11.875 1.46875 -10.0625 Z M 7.53125 -4.59375 C 7.53125 -3.9375 7.375 -3.453125 7.09375 -3.140625 C 6.796875 -2.84375 6.421875 -2.671875 5.984375 -2.671875 C 5.546875 -2.671875 5.1875 -2.84375 4.890625 -3.140625 C 4.59375 -3.453125 4.453125 -3.9375 4.453125 -4.59375 L 4.453125 -10.234375 C 4.453125 -10.890625 4.59375 -11.390625 4.90625 -11.734375 C 5.1875 -12 5.53125 -12.140625 5.96875 -12.140625 C 6.40625 -12.140625 6.78125 -11.96875 7.078125 -11.671875 C 7.359375 -11.359375 7.515625 -10.875 7.515625 -10.21875 Z M 7.53125 -4.59375 "/>
</symbol>
<symbol overflow="visible" id="glyph0-8">
<path style="stroke:none;" d="M 1.625 0 L 4.609375 0 L 4.609375 -10.1875 C 4.609375 -10.84375 4.765625 -11.34375 5.09375 -11.6875 C 5.421875 -12.015625 5.796875 -12.1875 6.21875 -12.1875 C 6.640625 -12.1875 7 -12.03125 7.28125 -11.734375 C 7.546875 -11.453125 7.6875 -11.046875 7.6875 -10.53125 L 7.6875 0 L 10.6875 0 L 10.6875 -11.734375 C 10.703125 -12.8125 10.421875 -13.640625 9.859375 -14.234375 C 9.28125 -14.8125 8.53125 -15.109375 7.59375 -15.109375 C 6.40625 -15.125 5.421875 -14.59375 4.609375 -13.53125 L 4.609375 -14.875 L 1.625 -14.875 Z M 1.625 0 "/>
</symbol>
<symbol overflow="visible" id="glyph0-9">
<path style="stroke:none;" d="M 4.609375 -4.34375 L 4.609375 -14.875 L 1.625 -14.875 L 1.625 -3.140625 C 1.625 -0.890625 2.671875 0.234375 4.75 0.234375 C 5.90625 0.234375 6.875 -0.34375 7.671875 -1.5 L 7.671875 0 L 10.671875 0 L 10.671875 -14.875 L 7.671875 -14.875 L 7.671875 -4.671875 C 7.6875 -4.0625 7.53125 -3.578125 7.203125 -3.21875 C 6.875 -2.875 6.5 -2.6875 6.046875 -2.6875 C 5.09375 -2.6875 4.609375 -3.25 4.609375 -4.34375 Z M 4.609375 -4.34375 "/>
</symbol>
<symbol overflow="visible" id="glyph0-10">
<path style="stroke:none;" d="M 7.671875 -14.875 L 7.671875 -13.5625 L 7.640625 -13.5625 C 7.40625 -13.953125 7.0625 -14.296875 6.59375 -14.625 C 6.125 -14.953125 5.515625 -15.109375 4.796875 -15.109375 C 3.703125 -15.109375 2.90625 -14.765625 2.390625 -14.0625 C 1.875 -13.375 1.625 -12.3125 1.625 -10.875 L 1.625 -3.140625 C 1.640625 -2.0625 1.9375 -1.234375 2.5 -0.640625 C 3.078125 -0.0625 3.828125 0.234375 4.75 0.234375 C 5.953125 0.234375 6.9375 -0.25 7.6875 -1.203125 L 7.6875 6.125 L 10.6875 6.125 L 10.6875 -14.875 Z M 7.6875 -4.671875 C 7.6875 -4.015625 7.53125 -3.515625 7.21875 -3.171875 C 6.890625 -2.859375 6.515625 -2.6875 6.078125 -2.6875 C 5.640625 -2.6875 5.28125 -2.84375 5.015625 -3.140625 C 4.765625 -3.421875 4.625 -3.828125 4.625 -4.34375 L 4.625 -10.375 C 4.625 -11 4.765625 -11.453125 5.015625 -11.734375 C 5.28125 -12.03125 5.640625 -12.1875 6.078125 -12.1875 C 6.515625 -12.1875 6.890625 -12.015625 7.21875 -11.703125 C 7.53125 -11.359375 7.6875 -10.859375 7.6875 -10.203125 Z M 7.6875 -4.671875 "/>
</symbol>
<symbol overflow="visible" id="glyph0-11">
<path style="stroke:none;" d="M 1.96875 -19.40625 L 1.96875 -14.875 L 0.453125 -14.875 L 0.453125 -12.46875 L 1.96875 -12.46875 L 1.96875 -4.046875 C 1.984375 -2.671875 2.296875 -1.671875 2.90625 -1.015625 C 3.5 -0.34375 4.5625 -0.015625 6.09375 -0.015625 L 6.890625 -0.015625 L 6.890625 -2.796875 L 6.5 -2.796875 C 5.984375 -2.796875 5.609375 -2.90625 5.359375 -3.125 C 5.109375 -3.34375 4.984375 -3.75 4.984375 -4.34375 L 4.984375 -12.5 L 6.890625 -12.5 L 6.890625 -14.90625 L 4.984375 -14.90625 L 4.984375 -19.421875 Z M 1.96875 -19.40625 "/>
</symbol>
<symbol overflow="visible" id="glyph0-12">
<path style="stroke:none;" d="M 1.625 -3.984375 C 1.625 -2.53125 1.875 -1.46875 2.390625 -0.78125 C 2.90625 -0.09375 3.75 0.265625 4.9375 0.28125 C 6.109375 0.296875 7.015625 -0.234375 7.65625 -1.28125 L 7.6875 -1.28125 L 7.6875 0.03125 L 10.6875 0.03125 L 10.6875 -20.96875 L 7.6875 -20.96875 L 7.6875 -13.640625 C 6.9375 -14.59375 5.90625 -15.078125 4.5625 -15.078125 C 3.75 -15.078125 3.0625 -14.78125 2.5 -14.203125 C 1.9375 -13.609375 1.65625 -12.78125 1.65625 -11.703125 Z M 7.703125 -4.640625 C 7.703125 -3.984375 7.546875 -3.484375 7.234375 -3.140625 C 6.90625 -2.828125 6.53125 -2.671875 6.09375 -2.671875 C 5.65625 -2.671875 5.296875 -2.8125 5.03125 -3.109375 C 4.765625 -3.390625 4.640625 -3.84375 4.640625 -4.46875 L 4.640625 -10.5 C 4.640625 -11.015625 4.765625 -11.421875 5.03125 -11.71875 C 5.296875 -12 5.65625 -12.15625 6.09375 -12.15625 C 6.53125 -12.15625 6.90625 -11.984375 7.234375 -11.671875 C 7.546875 -11.328125 7.703125 -10.828125 7.703125 -10.171875 Z M 7.703125 -4.640625 "/>
</symbol>
<symbol overflow="visible" id="glyph0-13">
<path style="stroke:none;" d="M 1.34375 -10.53125 L 1.34375 -7.828125 L 8.0625 -7.828125 L 8.0625 -10.53125 Z M 1.34375 -10.53125 "/>
</symbol>
<symbol overflow="visible" id="glyph0-14">
<path style="stroke:none;" d="M 1.796875 -21 L 1.796875 0 L 4.796875 0 L 4.796875 -9.265625 L 8.84375 -9.265625 L 8.84375 0 L 11.84375 0 L 11.84375 -21 L 8.84375 -21 L 8.84375 -11.96875 L 4.796875 -11.96875 L 4.796875 -21 Z M 1.796875 -21 "/>
</symbol>
<symbol overflow="visible" id="glyph0-15">
<path style="stroke:none;" d="M 10.671875 -3.984375 L 10.671875 -11.734375 C 10.65625 -12.8125 10.359375 -13.640625 9.796875 -14.234375 C 9.21875 -14.8125 8.484375 -15.109375 7.546875 -15.109375 C 6.328125 -15.109375 5.328125 -14.625 4.578125 -13.671875 L 4.578125 -21 L 1.59375 -21 L 1.59375 0 L 4.578125 0 L 4.578125 -1.3125 L 4.609375 -1.3125 C 5.234375 -0.28125 6.15625 0.234375 7.328125 0.234375 C 8.515625 0.234375 9.375 -0.109375 9.875 -0.796875 C 10.390625 -1.484375 10.640625 -2.546875 10.640625 -3.984375 Z M 4.578125 -10.1875 C 4.578125 -10.84375 4.75 -11.34375 5.0625 -11.6875 C 5.390625 -12.015625 5.765625 -12.1875 6.1875 -12.1875 C 6.625 -12.1875 6.96875 -12.03125 7.25 -11.734375 C 7.53125 -11.453125 7.65625 -11.046875 7.65625 -10.53125 L 7.65625 -4.5 C 7.671875 -3.875 7.546875 -3.421875 7.265625 -3.140625 C 6.984375 -2.84375 6.625 -2.6875 6.203125 -2.6875 C 5.78125 -2.6875 5.40625 -2.859375 5.078125 -3.1875 C 4.765625 -3.53125 4.59375 -4.03125 4.59375 -4.6875 Z M 4.578125 -10.1875 "/>
</symbol>
<symbol overflow="visible" id="glyph0-16">
<path style="stroke:none;" d="M 1.625 -14.875 L 1.625 0 L 4.609375 0 L 4.609375 -8.515625 C 4.609375 -9.265625 4.765625 -9.90625 5.03125 -10.4375 C 5.3125 -10.96875 5.796875 -11.390625 6.484375 -11.71875 C 7.171875 -12.03125 7.875 -12.09375 8.609375 -11.90625 L 8.609375 -15.109375 C 6.984375 -15.109375 5.671875 -14.5 4.671875 -13.25 L 4.609375 -13.28125 L 4.609375 -14.875 Z M 1.625 -14.875 "/>
</symbol>
<symbol overflow="visible" id="glyph0-17">
<path style="stroke:none;" d="M 1.796875 -20.578125 L 2.609375 -13.1875 L 3.8125 -13.1875 L 4.609375 -20.578125 Z M 1.796875 -20.578125 "/>
</symbol>
<symbol overflow="visible" id="glyph0-18">
<path style="stroke:none;" d="M 10.640625 -10.375 L 10.640625 -10.46875 C 10.640625 -11.890625 10.25 -13 9.4375 -13.828125 C 8.65625 -14.6875 7.5625 -15.109375 6.203125 -15.109375 C 4.84375 -15.109375 3.71875 -14.71875 2.84375 -13.921875 C 1.96875 -13.125 1.515625 -11.875 1.515625 -10.125 L 1.515625 -5 C 1.515625 -4.40625 1.53125 -3.953125 1.5625 -3.625 C 1.59375 -3.3125 1.703125 -2.90625 1.875 -2.390625 C 2.046875 -1.875 2.328125 -1.4375 2.703125 -1.046875 C 3.53125 -0.1875 4.59375 0.234375 5.921875 0.234375 C 7.265625 0.234375 8.34375 -0.109375 9.1875 -0.78125 C 10.171875 -1.640625 10.671875 -2.765625 10.671875 -4.15625 L 10.671875 -4.421875 L 7.671875 -4.421875 L 7.671875 -4.390625 C 7.6875 -3.25 7.3125 -2.671875 6.515625 -2.671875 C 5.71875 -2.671875 5.203125 -2.84375 4.9375 -3.15625 C 4.671875 -3.484375 4.53125 -3.90625 4.53125 -4.453125 L 4.53125 -10.203125 C 4.53125 -10.84375 4.6875 -11.328125 4.984375 -11.671875 C 5.265625 -12 5.671875 -12.171875 6.171875 -12.171875 C 6.6875 -12.171875 7.078125 -11.984375 7.3125 -11.640625 C 7.546875 -11.28125 7.65625 -10.875 7.65625 -10.421875 L 7.65625 -10.359375 Z M 10.640625 -10.375 "/>
</symbol>
<symbol overflow="visible" id="glyph0-19">
<path style="stroke:none;" d="M 1.5 -4.796875 C 1.5 -2.984375 1.953125 -1.703125 2.84375 -0.921875 C 3.734375 -0.140625 4.765625 0.234375 5.953125 0.234375 C 7.140625 0.234375 8.171875 -0.109375 9.03125 -0.78125 C 9.921875 -0.109375 10.9375 0.234375 12.046875 0.234375 C 13.15625 0.234375 14.109375 -0.078125 14.921875 -0.6875 C 15.984375 -1.546875 16.53125 -2.734375 16.53125 -4.25 L 16.53125 -4.359375 L 13.484375 -4.359375 C 13.46875 -3.984375 13.359375 -3.65625 13.171875 -3.390625 C 12.875 -3.03125 12.46875 -2.84375 12 -2.84375 C 11.53125 -2.84375 11.171875 -2.96875 10.921875 -3.234375 C 10.671875 -3.5 10.546875 -4.03125 10.546875 -4.828125 L 10.546875 -6.359375 L 16.609375 -6.359375 L 16.609375 -10.25 C 16.59375 -11.9375 16.09375 -13.203125 15.09375 -14.0625 C 14.28125 -14.78125 13.265625 -15.15625 12.0625 -15.15625 C 10.859375 -15.15625 9.84375 -14.8125 9 -14.140625 C 8.15625 -14.8125 7.140625 -15.15625 5.953125 -15.15625 C 4.765625 -15.171875 3.734375 -14.78125 2.84375 -14.015625 C 1.953125 -13.234375 1.5 -11.9375 1.5 -10.109375 Z M 7.546875 -4.65625 C 7.546875 -4 7.40625 -3.515625 7.109375 -3.203125 C 6.828125 -2.90625 6.453125 -2.734375 6.015625 -2.734375 C 5.578125 -2.734375 5.21875 -2.90625 4.921875 -3.203125 C 4.625 -3.515625 4.484375 -4 4.484375 -4.65625 L 4.484375 -10.296875 C 4.484375 -10.953125 4.625 -11.453125 4.9375 -11.78125 C 5.21875 -12.0625 5.5625 -12.203125 6 -12.203125 C 6.4375 -12.203125 6.8125 -12.03125 7.09375 -11.734375 C 7.390625 -11.421875 7.546875 -10.9375 7.546875 -10.28125 Z M 10.546875 -8.671875 L 10.546875 -10.5 C 10.53125 -11.015625 10.65625 -11.421875 10.921875 -11.734375 C 11.1875 -12.03125 11.546875 -12.1875 12.03125 -12.171875 C 12.515625 -12.171875 12.90625 -12.015625 13.171875 -11.734375 C 13.453125 -11.46875 13.59375 -11.0625 13.59375 -10.578125 L 13.59375 -8.625 Z M 10.546875 -8.671875 "/>
</symbol>
<symbol overflow="visible" id="glyph0-20">
<path style="stroke:none;" d="M 4.609375 -14.875 L 1.625 -14.875 L 1.625 6.125 L 4.609375 6.125 L 4.609375 -1.203125 C 5.390625 -0.25 6.4375 0.234375 7.78125 0.234375 C 8.59375 0.234375 9.28125 -0.0625 9.84375 -0.640625 C 10.40625 -1.234375 10.6875 -2.0625 10.6875 -3.140625 L 10.6875 -10.875 C 10.6875 -12.328125 10.4375 -13.390625 9.921875 -14.078125 C 9.40625 -14.765625 8.609375 -15.109375 7.515625 -15.109375 C 6.796875 -15.109375 6.1875 -14.953125 5.71875 -14.640625 C 5.25 -14.328125 4.90625 -13.96875 4.65625 -13.5625 L 4.625 -13.5625 Z M 4.625 -10.1875 C 4.625 -10.84375 4.78125 -11.34375 5.109375 -11.6875 C 5.4375 -12.015625 5.8125 -12.1875 6.234375 -12.1875 C 6.65625 -12.1875 7.015625 -12.03125 7.296875 -11.734375 C 7.5625 -11.453125 7.703125 -11 7.703125 -10.375 L 7.703125 -4.34375 C 7.71875 -3.828125 7.578125 -3.421875 7.3125 -3.140625 C 7.03125 -2.84375 6.671875 -2.6875 6.25 -2.6875 C 5.828125 -2.6875 5.453125 -2.859375 5.125 -3.1875 C 4.796875 -3.53125 4.640625 -4.03125 4.640625 -4.6875 Z M 4.625 -10.1875 "/>
</symbol>
<symbol overflow="visible" id="glyph0-21">
<path style="stroke:none;" d="M 1.5 -10.875 L 1.5 -3.296875 C 1.515625 -2.203125 1.796875 -1.375 2.375 -0.796875 C 2.9375 -0.203125 3.6875 0.09375 4.609375 0.09375 C 5.84375 0.09375 6.84375 -0.390625 7.578125 -1.34375 L 7.578125 1.171875 C 7.59375 2.609375 7.09375 3.328125 6.03125 3.328125 C 5.546875 3.34375 5.171875 3.1875 4.890625 2.890625 C 4.609375 2.578125 4.484375 2.203125 4.5 1.78125 L 1.5 1.78125 C 1.546875 3.046875 1.96875 4.09375 2.71875 4.96875 C 3.484375 5.828125 4.578125 6.25 6.015625 6.25 C 7.46875 6.25 8.578125 5.828125 9.375 4.984375 C 10.15625 4.125 10.5625 2.921875 10.5625 1.359375 L 10.5625 -14.890625 L 7.546875 -14.890625 L 7.546875 -13.578125 L 7.53125 -13.578125 C 6.859375 -14.609375 5.953125 -15.125 4.78125 -15.125 C 3.609375 -15.125 2.75 -14.765625 2.234375 -14.078125 C 1.734375 -13.390625 1.484375 -12.328125 1.484375 -10.890625 Z M 7.546875 -4.84375 C 7.546875 -4.1875 7.375 -3.6875 7.078125 -3.359375 C 6.765625 -3.015625 6.390625 -2.859375 5.9375 -2.859375 C 5.515625 -2.859375 5.171875 -3 4.890625 -3.3125 C 4.609375 -3.609375 4.484375 -4.015625 4.484375 -4.515625 L 4.484375 -10.390625 C 4.484375 -11 4.609375 -11.453125 4.875 -11.75 C 5.15625 -12.0625 5.5 -12.203125 5.921875 -12.203125 C 6.359375 -12.203125 6.734375 -12.046875 7.0625 -11.71875 C 7.375 -11.375 7.546875 -10.875 7.546875 -10.21875 Z M 7.546875 -4.84375 "/>
</symbol>
<symbol overflow="visible" id="glyph0-22">
<path style="stroke:none;" d="M 4.5 -4.40625 L 4.5 -6.328125 L 10.5625 -6.328125 L 10.5625 -10.21875 C 10.546875 -11.90625 10.046875 -13.171875 9.046875 -14.046875 C 8.25 -14.765625 7.21875 -15.125 5.984375 -15.125 C 4.765625 -15.125 3.75 -14.78125 2.96875 -14.109375 C 1.984375 -13.28125 1.5 -12.078125 1.5 -10.515625 L 1.5 -4.8125 C 1.5 -3.21875 1.890625 -1.96875 2.6875 -1.09375 C 3.5 -0.21875 4.609375 0.21875 6.03125 0.21875 C 7.09375 0.21875 8.015625 -0.0625 8.796875 -0.609375 C 9.921875 -1.421875 10.484375 -2.640625 10.484375 -4.265625 L 10.484375 -4.375 L 7.484375 -4.375 C 7.484375 -4 7.390625 -3.65625 7.21875 -3.359375 C 6.9375 -2.921875 6.40625 -2.71875 5.640625 -2.71875 C 4.859375 -2.71875 4.484375 -3.296875 4.484375 -4.4375 Z M 4.484375 -8.671875 L 4.484375 -10.5 C 4.484375 -11.015625 4.609375 -11.421875 4.875 -11.734375 C 5.140625 -12.03125 5.5 -12.1875 5.984375 -12.171875 C 6.46875 -12.171875 6.859375 -12.015625 7.125 -11.734375 C 7.40625 -11.46875 7.546875 -11.0625 7.546875 -10.578125 L 7.546875 -8.625 Z M 6.140625 -17.3125 L 8.953125 -20.984375 L 5.734375 -20.984375 L 4.421875 -17.3125 Z M 6.140625 -17.3125 "/>
</symbol>
<symbol overflow="visible" id="glyph0-23">
<path style="stroke:none;" d="M 4.5 -4.40625 L 4.5 -6.328125 L 10.5625 -6.328125 L 10.5625 -10.21875 C 10.546875 -11.90625 10.046875 -13.171875 9.046875 -14.046875 C 8.25 -14.765625 7.21875 -15.125 5.984375 -15.125 C 4.765625 -15.125 3.75 -14.78125 2.96875 -14.109375 C 1.984375 -13.28125 1.5 -12.078125 1.5 -10.515625 L 1.5 -4.8125 C 1.5 -3.21875 1.890625 -1.96875 2.6875 -1.09375 C 3.5 -0.21875 4.609375 0.21875 6.03125 0.21875 C 7.09375 0.21875 8.015625 -0.0625 8.796875 -0.609375 C 9.921875 -1.421875 10.484375 -2.640625 10.484375 -4.265625 L 10.484375 -4.375 L 7.484375 -4.375 C 7.484375 -4 7.390625 -3.65625 7.21875 -3.359375 C 6.9375 -2.921875 6.40625 -2.71875 5.640625 -2.71875 C 4.859375 -2.71875 4.484375 -3.296875 4.484375 -4.4375 Z M 4.484375 -8.671875 L 4.484375 -10.5 C 4.484375 -11.015625 4.609375 -11.421875 4.875 -11.734375 C 5.140625 -12.03125 5.5 -12.1875 5.984375 -12.171875 C 6.46875 -12.171875 6.859375 -12.015625 7.125 -11.734375 C 7.40625 -11.46875 7.546875 -11.0625 7.546875 -10.578125 L 7.546875 -8.625 Z M 5.734375 -17.3125 L 7.453125 -17.3125 L 6.140625 -20.984375 L 2.921875 -20.984375 Z M 5.734375 -17.3125 "/>
</symbol>
<symbol overflow="visible" id="glyph1-0">
<path style="stroke:none;" d=""/>
</symbol>
<symbol overflow="visible" id="glyph1-1">
<path style="stroke:none;" d="M 1.203125 0 L 3.203125 0 L 3.203125 -5.53125 L 4.375 -5.53125 C 5.578125 -5.53125 6.484375 -5.890625 7.078125 -6.59375 C 7.6875 -7.296875 7.984375 -8.25 7.984375 -9.46875 L 7.984375 -9.875 C 7.984375 -11.3125 7.671875 -12.359375 7.03125 -13.015625 C 6.375 -13.671875 5.4375 -14 4.171875 -14 L 1.203125 -14 Z M 3.203125 -12.1875 L 3.890625 -12.1875 C 4.640625 -12.171875 5.1875 -12.046875 5.5 -11.78125 C 5.828125 -11.515625 5.984375 -10.984375 5.984375 -10.203125 L 5.984375 -8.640625 C 5.984375 -8.625 5.96875 -8.515625 5.90625 -8.328125 C 5.84375 -8.140625 5.75 -7.984375 5.625 -7.828125 C 5.296875 -7.5 4.84375 -7.3125 4.28125 -7.3125 L 3.203125 -7.3125 Z M 3.203125 -12.1875 "/>
</symbol>
<symbol overflow="visible" id="glyph1-2">
<path style="stroke:none;" d="M 1.078125 -9.921875 L 1.078125 0 L 3.078125 0 L 3.078125 -5.671875 C 3.078125 -6.171875 3.171875 -6.609375 3.359375 -6.953125 C 3.546875 -7.3125 3.859375 -7.59375 4.328125 -7.8125 C 4.78125 -8.015625 5.25 -8.0625 5.734375 -7.9375 L 5.734375 -10.0625 C 4.65625 -10.0625 3.78125 -9.65625 3.109375 -8.828125 L 3.078125 -8.84375 L 3.078125 -9.921875 Z M 1.078125 -9.921875 "/>
</symbol>
<symbol overflow="visible" id="glyph1-3">
<path style="stroke:none;" d="M 1 -3.203125 C 1 -1.984375 1.296875 -1.125 1.890625 -0.609375 C 2.484375 -0.09375 3.1875 0.171875 4.015625 0.171875 C 4.828125 0.1875 5.53125 -0.0625 6.125 -0.578125 C 6.71875 -1.109375 7.03125 -1.96875 7.03125 -3.1875 L 7.03125 -6.6875 C 7.03125 -7.90625 6.71875 -8.78125 6.125 -9.296875 C 5.53125 -9.796875 4.828125 -10.046875 4 -10.0625 C 3.1875 -10.0625 2.46875 -9.8125 1.875 -9.296875 C 1.28125 -8.78125 0.96875 -7.90625 0.96875 -6.703125 Z M 5.015625 -3.0625 C 5.015625 -2.625 4.921875 -2.296875 4.71875 -2.09375 C 4.53125 -1.890625 4.28125 -1.78125 3.984375 -1.78125 C 3.703125 -1.78125 3.453125 -1.890625 3.265625 -2.09375 C 3.0625 -2.296875 2.96875 -2.625 2.96875 -3.0625 L 2.96875 -6.828125 C 2.96875 -7.265625 3.0625 -7.59375 3.265625 -7.8125 C 3.453125 -8 3.6875 -8.09375 3.984375 -8.09375 C 4.28125 -8.09375 4.515625 -7.984375 4.71875 -7.78125 C 4.90625 -7.578125 5 -7.25 5 -6.8125 Z M 5.015625 -3.0625 "/>
</symbol>
<symbol overflow="visible" id="glyph1-4">
<path style="stroke:none;" d="M 0.0625 2.125 L -0.296875 2.125 L -0.296875 4.078125 L 0.34375 4.078125 C 1.734375 4.078125 2.53125 3.75 2.75 3.109375 C 2.96875 2.46875 3.078125 2.046875 3.09375 1.859375 C 3.109375 1.671875 3.109375 1.421875 3.109375 1.109375 L 3.109375 -9.921875 L 1.125 -9.921875 L 1.125 0.9375 C 1.125 1.734375 0.765625 2.125 0.0625 2.125 Z M 1.125 -13.703125 L 1.125 -11.75 L 3.109375 -11.75 L 3.109375 -13.703125 Z M 1.125 -13.703125 "/>
</symbol>
<symbol overflow="visible" id="glyph1-5">
<path style="stroke:none;" d="M 3 -2.9375 L 3 -4.21875 L 7.03125 -4.21875 L 7.03125 -6.8125 C 7.03125 -7.9375 6.6875 -8.78125 6.03125 -9.359375 C 5.5 -9.84375 4.8125 -10.078125 3.984375 -10.078125 C 3.171875 -10.078125 2.5 -9.859375 1.984375 -9.40625 C 1.328125 -8.84375 1 -8.046875 1 -7 L 1 -3.203125 C 1 -2.140625 1.265625 -1.3125 1.796875 -0.734375 C 2.328125 -0.140625 3.078125 0.140625 4.015625 0.140625 C 4.734375 0.140625 5.34375 -0.03125 5.859375 -0.40625 C 6.609375 -0.953125 6.984375 -1.75 6.984375 -2.84375 L 6.984375 -2.921875 L 4.984375 -2.921875 C 4.984375 -2.65625 4.921875 -2.4375 4.8125 -2.234375 C 4.625 -1.953125 4.28125 -1.8125 3.75 -1.8125 C 3.234375 -1.8125 2.984375 -2.203125 2.984375 -2.953125 Z M 2.984375 -5.78125 L 2.984375 -7 C 2.984375 -7.34375 3.078125 -7.609375 3.25 -7.8125 C 3.421875 -8.015625 3.671875 -8.125 3.984375 -8.109375 C 4.3125 -8.109375 4.5625 -8.015625 4.75 -7.828125 C 4.9375 -7.640625 5.03125 -7.375 5.03125 -7.046875 L 5.03125 -5.75 Z M 2.984375 -5.78125 "/>
</symbol>
<symbol overflow="visible" id="glyph1-6">
<path style="stroke:none;" d="M 1.3125 -12.921875 L 1.3125 -9.921875 L 0.296875 -9.921875 L 0.296875 -8.3125 L 1.3125 -8.3125 L 1.3125 -2.6875 C 1.328125 -1.78125 1.53125 -1.109375 1.9375 -0.671875 C 2.328125 -0.234375 3.046875 -0.015625 4.0625 -0.015625 L 4.59375 -0.015625 L 4.59375 -1.859375 L 4.328125 -1.859375 C 3.984375 -1.859375 3.734375 -1.9375 3.578125 -2.078125 C 3.40625 -2.21875 3.3125 -2.5 3.3125 -2.890625 L 3.3125 -8.328125 L 4.59375 -8.328125 L 4.59375 -9.9375 L 3.3125 -9.9375 L 3.3125 -12.953125 Z M 1.3125 -12.921875 "/>
</symbol>
<symbol overflow="visible" id="glyph1-7">
<path style="stroke:none;" d="M 1.078125 -2.65625 C 1.078125 -1.6875 1.25 -0.96875 1.59375 -0.515625 C 1.9375 -0.0625 2.5 0.171875 3.28125 0.1875 C 4.0625 0.1875 4.671875 -0.15625 5.109375 -0.859375 L 5.125 -0.859375 L 5.125 0.015625 L 7.125 0.015625 L 7.125 -13.96875 L 5.125 -13.96875 L 5.125 -9.09375 C 4.625 -9.734375 3.9375 -10.046875 3.046875 -10.046875 C 2.5 -10.046875 2.046875 -9.859375 1.671875 -9.46875 C 1.28125 -9.078125 1.109375 -8.515625 1.109375 -7.796875 Z M 5.125 -3.09375 C 5.125 -2.65625 5.03125 -2.328125 4.828125 -2.09375 C 4.609375 -1.890625 4.359375 -1.78125 4.0625 -1.78125 C 3.765625 -1.78125 3.53125 -1.875 3.359375 -2.0625 C 3.1875 -2.265625 3.09375 -2.5625 3.09375 -2.96875 L 3.09375 -7 C 3.09375 -7.34375 3.1875 -7.609375 3.359375 -7.8125 C 3.53125 -8 3.765625 -8.09375 4.0625 -8.09375 C 4.359375 -8.09375 4.609375 -7.984375 4.828125 -7.78125 C 5.03125 -7.546875 5.125 -7.21875 5.125 -6.78125 Z M 5.125 -3.09375 "/>
</symbol>
<symbol overflow="visible" id="glyph1-8">
<path style="stroke:none;" d="M 4.765625 -12.234375 L 5.15625 -12.234375 L 5.15625 -14 L 4.4375 -14 C 3.5 -13.984375 2.765625 -13.765625 2.28125 -13.34375 C 1.78125 -12.90625 1.53125 -12.203125 1.53125 -11.234375 L 1.53125 -9.921875 L 0.484375 -9.921875 L 0.484375 -8.3125 L 1.53125 -8.3125 L 1.53125 0 L 3.546875 0 L 3.546875 -8.3125 L 5.140625 -8.3125 L 5.140625 -9.921875 L 3.515625 -9.921875 L 3.515625 -10.921875 C 3.515625 -11.796875 3.9375 -12.234375 4.765625 -12.234375 Z M 6.265625 0 L 8.265625 0 L 8.265625 -9.921875 L 6.265625 -9.921875 Z M 6.265625 -13.703125 L 6.265625 -11.75 L 8.265625 -11.75 L 8.265625 -13.703125 Z M 6.265625 -13.703125 "/>
</symbol>
<symbol overflow="visible" id="glyph1-9">
<path style="stroke:none;" d="M 1.078125 0 L 3.078125 0 L 3.078125 -6.796875 C 3.078125 -7.234375 3.1875 -7.5625 3.390625 -7.78125 C 3.609375 -8.015625 3.859375 -8.125 4.140625 -8.125 C 4.4375 -8.125 4.671875 -8.015625 4.84375 -7.828125 C 5.03125 -7.625 5.125 -7.359375 5.125 -7.015625 L 5.125 0 L 7.125 0 L 7.125 -7.8125 C 7.140625 -8.53125 6.953125 -9.09375 6.5625 -9.484375 C 6.1875 -9.875 5.6875 -10.0625 5.0625 -10.0625 C 4.28125 -10.078125 3.609375 -9.734375 3.078125 -9.015625 L 3.078125 -9.921875 L 1.078125 -9.921875 Z M 1.078125 0 "/>
</symbol>
<symbol overflow="visible" id="glyph1-10">
<path style="stroke:none;" d="M 1.203125 -13.703125 L 1.734375 -8.796875 L 2.53125 -8.796875 L 3.078125 -13.703125 Z M 1.203125 -13.703125 "/>
</symbol>
<symbol overflow="visible" id="glyph1-11">
<path style="stroke:none;" d="M 3 -2.9375 L 3 -4.21875 L 7.03125 -4.21875 L 7.03125 -6.8125 C 7.03125 -7.9375 6.6875 -8.78125 6.03125 -9.359375 C 5.5 -9.84375 4.8125 -10.078125 3.984375 -10.078125 C 3.171875 -10.078125 2.5 -9.859375 1.984375 -9.40625 C 1.328125 -8.84375 1 -8.046875 1 -7 L 1 -3.203125 C 1 -2.140625 1.265625 -1.3125 1.796875 -0.734375 C 2.328125 -0.140625 3.078125 0.140625 4.015625 0.140625 C 4.734375 0.140625 5.34375 -0.03125 5.859375 -0.40625 C 6.609375 -0.953125 6.984375 -1.75 6.984375 -2.84375 L 6.984375 -2.921875 L 4.984375 -2.921875 C 4.984375 -2.65625 4.921875 -2.4375 4.8125 -2.234375 C 4.625 -1.953125 4.28125 -1.8125 3.75 -1.8125 C 3.234375 -1.8125 2.984375 -2.203125 2.984375 -2.953125 Z M 2.984375 -5.78125 L 2.984375 -7 C 2.984375 -7.34375 3.078125 -7.609375 3.25 -7.8125 C 3.421875 -8.015625 3.671875 -8.125 3.984375 -8.109375 C 4.3125 -8.109375 4.5625 -8.015625 4.75 -7.828125 C 4.9375 -7.640625 5.03125 -7.375 5.03125 -7.046875 L 5.03125 -5.75 Z M 4.09375 -11.546875 L 5.96875 -13.984375 L 3.828125 -13.984375 L 2.953125 -11.546875 Z M 4.09375 -11.546875 "/>
</symbol>
<symbol overflow="visible" id="glyph1-12">
<path style="stroke:none;" d="M 3.078125 -2.890625 L 3.078125 -9.921875 L 1.078125 -9.921875 L 1.078125 -2.09375 C 1.078125 -0.59375 1.78125 0.15625 3.15625 0.15625 C 3.9375 0.15625 4.59375 -0.21875 5.109375 -1 L 5.109375 0 L 7.109375 0 L 7.109375 -9.921875 L 5.109375 -9.921875 L 5.109375 -3.109375 C 5.125 -2.703125 5.015625 -2.375 4.796875 -2.140625 C 4.59375 -1.90625 4.328125 -1.796875 4.03125 -1.796875 C 3.390625 -1.796875 3.078125 -2.171875 3.078125 -2.890625 Z M 3.078125 -2.890625 "/>
</symbol>
<symbol overflow="visible" id="glyph1-13">
<path style="stroke:none;" d="M 6.71875 -7.234375 C 6.71875 -8.078125 6.453125 -8.765625 5.953125 -9.265625 C 5.4375 -9.8125 4.71875 -10.0625 3.75 -10.0625 C 2.78125 -10.0625 2.046875 -9.8125 1.515625 -9.28125 C 1 -8.75 0.75 -8.09375 0.75 -7.28125 C 0.75 -6.46875 0.90625 -5.875 1.234375 -5.5 C 1.546875 -5.109375 1.984375 -4.8125 2.53125 -4.59375 L 3.703125 -4.09375 C 4.109375 -3.90625 4.375 -3.734375 4.515625 -3.53125 C 4.640625 -3.34375 4.71875 -3.078125 4.71875 -2.765625 C 4.71875 -2.453125 4.625 -2.203125 4.4375 -1.984375 C 4.25 -1.78125 3.984375 -1.671875 3.65625 -1.671875 C 3.3125 -1.671875 3.046875 -1.78125 2.859375 -1.984375 C 2.671875 -2.1875 2.578125 -2.453125 2.578125 -2.765625 L 0.578125 -2.765625 C 0.578125 -1.9375 0.84375 -1.234375 1.359375 -0.671875 C 1.875 -0.109375 2.65625 0.171875 3.703125 0.171875 C 4.75 0.171875 5.53125 -0.171875 6.0625 -0.828125 C 6.484375 -1.34375 6.703125 -1.984375 6.703125 -2.765625 C 6.703125 -4.140625 6.109375 -5.078125 4.921875 -5.53125 L 3.734375 -6.046875 C 3.359375 -6.171875 3.109375 -6.34375 2.953125 -6.53125 C 2.8125 -6.734375 2.734375 -6.96875 2.75 -7.25 C 2.75 -7.53125 2.84375 -7.75 3.046875 -7.9375 C 3.234375 -8.109375 3.46875 -8.203125 3.75 -8.203125 C 4.046875 -8.203125 4.28125 -8.109375 4.453125 -7.9375 C 4.609375 -7.75 4.71875 -7.5 4.75 -7.21875 Z M 6.71875 -7.234375 "/>
</symbol>
<symbol overflow="visible" id="glyph1-14">
<path style="stroke:none;" d="M 0.890625 -7.015625 L 0.890625 -5.21875 L 5.375 -5.21875 L 5.375 -7.015625 Z M 0.890625 -7.015625 "/>
</symbol>
<symbol overflow="visible" id="glyph1-15">
<path style="stroke:none;" d="M 1.203125 -14 L 1.203125 0 L 4.171875 0 C 5.390625 0 6.328125 -0.34375 6.953125 -1.03125 C 7.59375 -1.734375 7.90625 -2.703125 7.90625 -3.96875 L 7.90625 -10.125 C 7.890625 -11.484375 7.5625 -12.46875 6.90625 -13.078125 C 6.234375 -13.703125 5.234375 -14 3.90625 -14 Z M 3.203125 -12.046875 L 4.21875 -12.046875 C 4.84375 -12.046875 5.265625 -11.890625 5.515625 -11.578125 C 5.78125 -11.265625 5.90625 -10.828125 5.90625 -10.28125 L 5.90625 -4.09375 C 5.90625 -3.328125 5.75 -2.78125 5.4375 -2.453125 C 5.140625 -2.140625 4.6875 -1.96875 4.109375 -1.96875 L 3.203125 -1.96875 Z M 3.203125 -12.046875 "/>
</symbol>
<symbol overflow="visible" id="glyph1-16">
<path style="stroke:none;" d="M 11.078125 -7.546875 C 11.0625 -8.296875 10.890625 -8.90625 10.546875 -9.375 C 10.203125 -9.84375 9.625 -10.0625 8.8125 -10.078125 C 7.984375 -10.09375 7.34375 -9.6875 6.84375 -8.890625 C 6.6875 -9.25 6.4375 -9.53125 6.125 -9.75 C 5.796875 -9.96875 5.4375 -10.0625 5.046875 -10.0625 C 4.296875 -10.0625 3.625 -9.71875 3.0625 -9.015625 L 3.0625 -9.921875 L 1.078125 -9.921875 L 1.078125 0 L 3.0625 0 L 3.0625 -6.796875 C 3.0625 -7.234375 3.171875 -7.5625 3.375 -7.78125 C 3.578125 -8.015625 3.828125 -8.125 4.109375 -8.109375 C 4.390625 -8.109375 4.609375 -8.015625 4.796875 -7.8125 C 4.96875 -7.625 5.046875 -7.359375 5.046875 -7.03125 L 5.046875 -0.015625 L 7.0625 -0.015625 L 7.0625 -6.796875 C 7.0625 -7.234375 7.15625 -7.578125 7.375 -7.796875 C 7.578125 -8.015625 7.828125 -8.125 8.09375 -8.125 C 8.375 -8.125 8.609375 -8.03125 8.796875 -7.828125 C 8.96875 -7.625 9.0625 -7.359375 9.0625 -7.03125 L 9.0625 -0.015625 L 11.0625 -0.015625 Z M 11.078125 -7.546875 "/>
</symbol>
<symbol overflow="visible" id="glyph1-17">
<path style="stroke:none;" d="M 1.078125 0 L 3.078125 0 L 3.078125 -9.921875 L 1.078125 -9.921875 Z M 1.078125 -13.703125 L 1.078125 -11.75 L 3.078125 -11.75 L 3.078125 -13.703125 Z M 1.078125 -13.703125 "/>
</symbol>
<symbol overflow="visible" id="glyph1-18">
<path style="stroke:none;" d="M 7.09375 -6.921875 L 7.09375 -6.984375 C 7.09375 -7.921875 6.828125 -8.671875 6.296875 -9.21875 C 5.765625 -9.78125 5.046875 -10.0625 4.140625 -10.0625 C 3.234375 -10.0625 2.484375 -9.8125 1.890625 -9.28125 C 1.3125 -8.75 1.015625 -7.90625 1.015625 -6.75 L 1.015625 -3.34375 C 1.015625 -2.9375 1.03125 -2.640625 1.046875 -2.421875 C 1.0625 -2.203125 1.125 -1.9375 1.25 -1.59375 C 1.359375 -1.25 1.546875 -0.953125 1.8125 -0.703125 C 2.359375 -0.125 3.0625 0.15625 3.953125 0.15625 C 4.84375 0.15625 5.5625 -0.0625 6.125 -0.515625 C 6.78125 -1.09375 7.109375 -1.84375 7.109375 -2.765625 L 7.109375 -2.953125 L 5.109375 -2.953125 L 5.109375 -2.921875 C 5.125 -2.171875 4.875 -1.78125 4.34375 -1.78125 C 3.8125 -1.78125 3.46875 -1.890625 3.28125 -2.109375 C 3.109375 -2.328125 3.03125 -2.609375 3.03125 -2.96875 L 3.03125 -6.796875 C 3.03125 -7.234375 3.125 -7.546875 3.3125 -7.78125 C 3.515625 -8 3.78125 -8.109375 4.125 -8.109375 C 4.453125 -8.109375 4.71875 -7.984375 4.875 -7.75 C 5.03125 -7.515625 5.109375 -7.25 5.109375 -6.953125 L 5.109375 -6.90625 Z M 7.09375 -6.921875 "/>
</symbol>
<symbol overflow="visible" id="glyph1-19">
<path style="stroke:none;" d="M 2.890625 -3.453125 L 2.890625 -3.828125 L 0.890625 -3.828125 L 0.890625 -3.375 C 0.890625 -2.375 1.109375 -1.578125 1.546875 -1 C 2.125 -0.1875 3.046875 0.203125 4.328125 0.203125 C 6.6875 0.203125 7.890625 -1.125 7.890625 -3.8125 L 7.890625 -4.28125 C 7.890625 -5.34375 7.703125 -6.140625 7.328125 -6.65625 C 6.953125 -7.171875 6.328125 -7.59375 5.453125 -7.90625 L 4.234375 -8.359375 C 3.78125 -8.53125 3.453125 -8.765625 3.265625 -9.03125 C 3.078125 -9.296875 3 -9.75 3 -10.40625 C 2.984375 -11.0625 3.125 -11.53125 3.390625 -11.796875 C 3.671875 -12.078125 4 -12.203125 4.40625 -12.203125 C 5.328125 -12.203125 5.796875 -11.625 5.796875 -10.46875 L 5.796875 -10.09375 L 7.796875 -10.09375 L 7.796875 -10.546875 C 7.796875 -11.703125 7.5 -12.59375 6.890625 -13.21875 C 6.28125 -13.859375 5.46875 -14.171875 4.453125 -14.171875 C 3.421875 -14.171875 2.625 -13.890625 2.046875 -13.3125 C 1.34375 -12.640625 1 -11.78125 1 -10.71875 L 1 -10.3125 C 1 -9.40625 1.09375 -8.71875 1.296875 -8.265625 C 1.609375 -7.546875 2.21875 -7.03125 3.140625 -6.703125 L 4.59375 -6.1875 C 5.046875 -6.015625 5.390625 -5.78125 5.578125 -5.515625 C 5.78125 -5.265625 5.875 -4.796875 5.875 -4.125 L 5.875 -3.609375 C 5.875 -2.953125 5.75 -2.484375 5.515625 -2.171875 C 5.265625 -1.875 4.859375 -1.734375 4.28125 -1.734375 C 3.34375 -1.734375 2.875 -2.296875 2.875 -3.421875 Z M 2.890625 -3.453125 "/>
</symbol>
<symbol overflow="visible" id="glyph1-20">
<path style="stroke:none;" d="M 0.890625 -2.640625 C 0.890625 -0.765625 1.65625 0.15625 3.140625 0.15625 C 3.890625 0.15625 4.515625 -0.21875 4.984375 -0.96875 L 5.015625 -0.96875 L 5.015625 0 L 7.015625 0 L 7.015625 -6.9375 C 7.015625 -7.9375 6.75 -8.71875 6.203125 -9.265625 C 5.640625 -9.8125 4.90625 -10.0625 4 -10.0625 C 3.09375 -10.0625 2.359375 -9.796875 1.8125 -9.234375 C 1.25 -8.6875 0.96875 -7.96875 0.984375 -7.109375 L 2.890625 -7.109375 C 2.890625 -7.359375 3 -7.59375 3.1875 -7.796875 C 3.359375 -8 3.625 -8.109375 3.953125 -8.109375 C 4.28125 -8.109375 4.546875 -8.015625 4.734375 -7.8125 C 4.921875 -7.59375 5.015625 -7.3125 5.015625 -6.953125 L 5.015625 -5.90625 C 4.59375 -5.9375 4.21875 -5.96875 3.875 -5.96875 C 2.796875 -5.96875 2.015625 -5.671875 1.53125 -5.109375 C 1.109375 -4.625 0.90625 -3.796875 0.90625 -2.625 Z M 2.90625 -2.90625 C 2.90625 -3.890625 3.375 -4.375 4.328125 -4.375 C 4.546875 -4.359375 4.78125 -4.34375 5.03125 -4.296875 L 5.03125 -2.90625 C 5.03125 -2.5 4.921875 -2.1875 4.703125 -1.96875 C 4.484375 -1.734375 4.21875 -1.625 3.890625 -1.625 C 3.546875 -1.625 3.3125 -1.75 3.15625 -2.015625 C 3 -2.28125 2.921875 -2.578125 2.90625 -2.90625 Z M 2.90625 -2.90625 "/>
</symbol>
<symbol overflow="visible" id="glyph1-21">
<path style="stroke:none;" d="M 5.234375 -10.890625 L 5.234375 -10.59375 C 5.234375 -10.1875 5.1875 -9.84375 5.09375 -9.53125 C 5 -9.21875 4.84375 -8.828125 4.625 -8.359375 L 1.09375 -1.828125 L 1.09375 0 L 7.21875 0 L 7.21875 -1.90625 L 3.390625 -1.90625 L 6.546875 -7.828125 C 6.796875 -8.265625 6.96875 -8.65625 7.078125 -9 C 7.1875 -9.34375 7.234375 -9.75 7.234375 -10.21875 L 7.234375 -10.953125 C 7.234375 -11.890625 7 -12.65625 6.5 -13.265625 C 6 -13.890625 5.265625 -14.1875 4.28125 -14.1875 C 3.28125 -14.1875 2.515625 -13.90625 1.96875 -13.328125 C 1.40625 -12.75 1.125 -11.9375 1.125 -10.890625 L 1.125 -10.0625 L 3.125 -10.0625 L 3.125 -10.609375 C 3.125 -11.15625 3.203125 -11.5625 3.359375 -11.828125 C 3.515625 -12.09375 3.78125 -12.234375 4.140625 -12.234375 C 4.890625 -12.25 5.265625 -11.796875 5.265625 -10.890625 Z M 5.234375 -10.890625 "/>
</symbol>
<symbol overflow="visible" id="glyph1-22">
<path style="stroke:none;" d="M 1.109375 -3.015625 C 1.109375 -1.859375 1.4375 -1 2.140625 -0.4375 C 2.65625 -0.015625 3.34375 0.1875 4.171875 0.1875 C 5.015625 0.1875 5.671875 -0.015625 6.171875 -0.40625 C 6.65625 -0.8125 6.953125 -1.203125 7.078125 -1.625 C 7.1875 -2.03125 7.25 -2.484375 7.25 -3 L 7.25 -10.953125 C 7.265625 -11.96875 7 -12.734375 6.5 -13.265625 C 5.890625 -13.890625 5.125 -14.1875 4.21875 -14.1875 C 3.3125 -14.1875 2.5625 -13.9375 1.984375 -13.4375 C 1.390625 -12.9375 1.109375 -12.125 1.109375 -10.984375 Z M 4.171875 -1.765625 C 3.453125 -1.765625 3.09375 -2.28125 3.09375 -3.3125 L 3.09375 -10.703125 C 3.09375 -11.734375 3.453125 -12.234375 4.171875 -12.234375 C 4.90625 -12.234375 5.265625 -11.734375 5.265625 -10.703125 L 5.265625 -3.3125 C 5.265625 -2.28125 4.90625 -1.765625 4.171875 -1.765625 Z M 4.171875 -1.765625 "/>
</symbol>
<symbol overflow="visible" id="glyph1-23">
<path style="stroke:none;" d="M 5.171875 -8.171875 C 4.609375 -8.171875 4.234375 -8.09375 4.03125 -7.9375 L 6.515625 -14 L 4.359375 -14 L 1.859375 -7.796875 C 1.828125 -7.734375 1.765625 -7.5625 1.65625 -7.3125 C 1.546875 -7.0625 1.484375 -6.875 1.4375 -6.765625 C 1.40625 -6.671875 1.34375 -6.46875 1.265625 -6.1875 C 1.171875 -5.90625 1.125 -5.5 1.125 -4.953125 L 1.125 -2.921875 C 1.125 -1.9375 1.421875 -1.171875 2 -0.625 C 2.578125 -0.078125 3.3125 0.1875 4.21875 0.1875 C 5.125 0.1875 5.859375 -0.0625 6.390625 -0.59375 C 6.921875 -1.125 7.1875 -1.890625 7.1875 -2.875 L 7.1875 -5.59375 C 7.1875 -6.359375 6.984375 -6.96875 6.59375 -7.453125 C 6.1875 -7.921875 5.703125 -8.171875 5.15625 -8.171875 Z M 4.09375 -1.75 C 3.78125 -1.75 3.546875 -1.859375 3.375 -2.0625 C 3.203125 -2.28125 3.125 -2.5625 3.125 -2.921875 L 3.125 -5.3125 C 3.109375 -5.671875 3.21875 -5.96875 3.4375 -6.1875 C 3.671875 -6.40625 3.9375 -6.53125 4.234375 -6.53125 C 4.53125 -6.53125 4.765625 -6.4375 4.9375 -6.21875 C 5.109375 -6.015625 5.1875 -5.734375 5.1875 -5.375 L 5.1875 -3.09375 C 5.1875 -2.1875 4.828125 -1.734375 4.09375 -1.734375 Z M 4.09375 -1.75 "/>
</symbol>
<symbol overflow="visible" id="glyph1-24">
<path style="stroke:none;" d="M 1 -9.8125 L 1 -7.71875 L 3.09375 -7.71875 L 3.09375 -9.8125 Z M 1 -2.09375 L 1 0 L 3.09375 0 L 3.09375 -2.09375 Z M 1 -2.09375 "/>
</symbol>
<symbol overflow="visible" id="glyph1-25">
<path style="stroke:none;" d="M 1.203125 0 L 3.203125 0 L 3.203125 -8.75 L 3.296875 -8.75 L 5.390625 -2.4375 L 6.453125 -2.4375 L 8.5625 -8.75 L 8.65625 -8.75 L 8.65625 0 L 10.65625 0 L 10.65625 -14 L 8.65625 -14 L 6.03125 -6.28125 L 5.953125 -6.28125 L 3.203125 -14 L 1.203125 -14 Z M 1.203125 0 "/>
</symbol>
<symbol overflow="visible" id="glyph1-26">
<path style="stroke:none;" d="M 1 -2.203125 L 1 0 L 3.203125 0 L 3.203125 -2.203125 Z M 1 -2.203125 "/>
</symbol>
<symbol overflow="visible" id="glyph1-27">
<path style="stroke:none;" d="M 8.0625 0 L 5.015625 -14 L 3.265625 -14 L 0.1875 0 L 2.203125 0 L 2.859375 -3 L 5.421875 -3 L 6.078125 0 Z M 5.171875 -4.765625 L 3.046875 -4.765625 L 4.09375 -10.09375 Z M 5.171875 -4.765625 "/>
</symbol>
<symbol overflow="visible" id="glyph1-28">
<path style="stroke:none;" d="M 1.203125 -14 L 1.203125 0 L 3.203125 0 L 3.203125 -6.171875 L 5.890625 -6.171875 L 5.890625 0 L 7.890625 0 L 7.890625 -14 L 5.890625 -14 L 5.890625 -7.96875 L 3.203125 -7.96875 L 3.203125 -14 Z M 1.203125 -14 "/>
</symbol>
<symbol overflow="visible" id="glyph1-29">
<path style="stroke:none;" d="M 7.8125 -4.640625 C 7.8125 -5.96875 7.375 -6.84375 6.453125 -7.265625 C 6.765625 -7.453125 7.015625 -7.671875 7.21875 -7.90625 C 7.625 -8.390625 7.828125 -9.109375 7.828125 -10.09375 C 7.828125 -11.625 7.390625 -12.6875 6.546875 -13.3125 C 5.90625 -13.765625 5.03125 -14 3.90625 -14 L 1.203125 -14 L 1.203125 0 L 4.25 0 C 5.265625 0 6.046875 -0.21875 6.625 -0.65625 C 7.421875 -1.265625 7.828125 -2.234375 7.828125 -3.578125 Z M 3.203125 -12.1875 L 4.140625 -12.1875 C 4.703125 -12.1875 5.125 -12.03125 5.4375 -11.734375 C 5.6875 -11.453125 5.8125 -11.125 5.8125 -10.765625 L 5.8125 -9.90625 C 5.8125 -9.390625 5.671875 -8.984375 5.40625 -8.671875 C 5.125 -8.34375 4.71875 -8.1875 4.15625 -8.1875 L 3.203125 -8.1875 Z M 3.203125 -6.375 L 4.21875 -6.375 C 4.640625 -6.390625 5 -6.25 5.328125 -5.984375 C 5.65625 -5.703125 5.8125 -5.203125 5.8125 -4.484375 L 5.8125 -3.828125 C 5.8125 -3.203125 5.703125 -2.734375 5.453125 -2.40625 C 5.15625 -1.984375 4.71875 -1.78125 4.09375 -1.78125 L 3.203125 -1.78125 Z M 3.203125 -6.375 "/>
</symbol>
<symbol overflow="visible" id="glyph1-30">
<path style="stroke:none;" d="M 1.203125 -14 L 1.203125 0 L 3.203125 0 L 3.203125 -14 Z M 1.203125 -14 "/>
</symbol>
<symbol overflow="visible" id="glyph1-31">
<path style="stroke:none;" d="M 5.109375 -9.921875 L 5.109375 -9.03125 L 5.09375 -9.03125 C 4.9375 -9.296875 4.703125 -9.53125 4.390625 -9.75 C 4.078125 -9.96875 3.671875 -10.0625 3.203125 -10.0625 C 2.46875 -10.0625 1.9375 -9.84375 1.59375 -9.375 C 1.25 -8.921875 1.078125 -8.203125 1.078125 -7.25 L 1.078125 -2.09375 C 1.09375 -1.375 1.28125 -0.8125 1.671875 -0.421875 C 2.046875 -0.03125 2.546875 0.15625 3.15625 0.15625 C 3.96875 0.15625 4.625 -0.171875 5.125 -0.796875 L 5.125 4.078125 L 7.125 4.078125 L 7.125 -9.921875 Z M 5.125 -3.109375 C 5.125 -2.671875 5.015625 -2.34375 4.8125 -2.125 C 4.59375 -1.90625 4.34375 -1.796875 4.046875 -1.796875 C 3.75 -1.796875 3.515625 -1.890625 3.34375 -2.09375 C 3.171875 -2.28125 3.078125 -2.5625 3.078125 -2.890625 L 3.078125 -6.921875 C 3.078125 -7.328125 3.171875 -7.625 3.34375 -7.828125 C 3.515625 -8.015625 3.75 -8.125 4.046875 -8.125 C 4.34375 -8.125 4.59375 -8.015625 4.8125 -7.796875 C 5.015625 -7.578125 5.125 -7.234375 5.125 -6.796875 Z M 5.125 -3.109375 "/>
</symbol>
<symbol overflow="visible" id="glyph1-32">
<path style="stroke:none;" d="M 1.203125 0 L 7.1875 0 L 7.1875 -1.90625 L 3.203125 -1.90625 L 3.203125 -6.171875 L 6.671875 -6.171875 L 6.671875 -7.96875 L 3.203125 -7.96875 L 3.203125 -12.09375 L 7.140625 -12.09375 L 7.140625 -14 L 1.203125 -14 Z M 1.203125 0 "/>
</symbol>
<symbol overflow="visible" id="glyph1-33">
<path style="stroke:none;" d="M 1.203125 -14 L 1.203125 0 L 3.203125 0 L 3.203125 -8.796875 L 6.53125 0 L 8.53125 0 L 8.53125 -14 L 6.53125 -14 L 6.53125 -5.1875 L 3.203125 -14 Z M 1.203125 -14 "/>
</symbol>
<symbol overflow="visible" id="glyph1-34">
<path style="stroke:none;" d="M 3.078125 -9.921875 L 1.078125 -9.921875 L 1.078125 4.078125 L 3.078125 4.078125 L 3.078125 -0.796875 C 3.59375 -0.171875 4.296875 0.15625 5.1875 0.15625 C 5.734375 0.15625 6.1875 -0.03125 6.5625 -0.421875 C 6.9375 -0.8125 7.125 -1.375 7.125 -2.09375 L 7.125 -7.25 C 7.125 -8.21875 6.953125 -8.921875 6.609375 -9.390625 C 6.28125 -9.84375 5.734375 -10.0625 5 -10.0625 C 4.53125 -10.0625 4.125 -9.96875 3.8125 -9.765625 C 3.5 -9.546875 3.265625 -9.3125 3.109375 -9.03125 L 3.078125 -9.03125 Z M 3.078125 -6.796875 C 3.078125 -7.234375 3.1875 -7.5625 3.40625 -7.78125 C 3.625 -8.015625 3.875 -8.125 4.15625 -8.125 C 4.4375 -8.125 4.671875 -8.015625 4.859375 -7.828125 C 5.046875 -7.625 5.125 -7.328125 5.125 -6.921875 L 5.125 -2.890625 C 5.140625 -2.5625 5.046875 -2.28125 4.875 -2.09375 C 4.6875 -1.890625 4.453125 -1.796875 4.171875 -1.796875 C 3.890625 -1.796875 3.625 -1.90625 3.421875 -2.125 C 3.203125 -2.359375 3.09375 -2.6875 3.09375 -3.125 Z M 3.078125 -6.796875 "/>
</symbol>
<symbol overflow="visible" id="glyph1-35">
<path style="stroke:none;" d="M 3.625 0 L 4.203125 0 L 4.203125 -1.859375 L 4 -1.859375 C 3.390625 -1.859375 3.078125 -2.1875 3.078125 -2.8125 L 3.078125 -14 L 1.078125 -14 L 1.078125 -2.71875 C 1.078125 -0.90625 1.9375 0 3.625 0 Z M 3.625 0 "/>
</symbol>
<symbol overflow="visible" id="glyph1-36">
<path style="stroke:none;" d="M 1.078125 0 L 3.078125 0 L 3.078125 -6.796875 C 3.078125 -7.234375 3.1875 -7.5625 3.390625 -7.78125 C 3.609375 -8.015625 3.859375 -8.125 4.140625 -8.125 C 4.4375 -8.125 4.671875 -8.015625 4.84375 -7.828125 C 5.03125 -7.625 5.125 -7.359375 5.125 -7.015625 L 5.125 0 L 7.125 0 L 7.125 -7.8125 C 7.109375 -8.53125 6.921875 -9.09375 6.53125 -9.484375 C 6.15625 -9.875 5.65625 -10.0625 5.046875 -10.0625 C 4.21875 -10.0625 3.5625 -9.75 3.0625 -9.109375 L 3.0625 -14 L 1.078125 -14 Z M 1.078125 0 "/>
</symbol>
<symbol overflow="visible" id="glyph1-37">
<path style="stroke:none;" d="M 3.65625 0 L 5.65625 0 L 5.65625 -14 L 3.734375 -14 L 1.5 -12.359375 L 1.5 -10.296875 L 3.65625 -11.84375 Z M 3.65625 0 "/>
</symbol>
<symbol overflow="visible" id="glyph1-38">
<path style="stroke:none;" d="M 5.453125 -14 L -0.296875 0 L 1.296875 0 L 7.0625 -14 Z M 5.453125 -14 "/>
</symbol>
<symbol overflow="visible" id="glyph1-39">
<path style="stroke:none;" d="M 1.1875 -14 L 1.1875 -10.484375 L 2.96875 -10.484375 L 2.96875 -12.125 L 5.125 -12.125 L 1.96875 0 L 3.984375 0 L 7.171875 -12.15625 L 7.171875 -14 Z M 1.1875 -14 "/>
</symbol>
<symbol overflow="visible" id="glyph1-40">
<path style="stroke:none;" d="M 1.34375 -6.390625 L 3.1875 -6.390625 C 3.40625 -6.9375 3.765625 -7.21875 4.265625 -7.21875 C 4.90625 -7.21875 5.203125 -6.828125 5.203125 -6.03125 L 5.203125 -3 C 5.203125 -2.609375 5.125 -2.3125 4.9375 -2.09375 C 4.75 -1.859375 4.484375 -1.75 4.140625 -1.75 C 3.46875 -1.75 3.125 -2.171875 3.125 -3 L 3.125 -3.375 L 1.125 -3.375 L 1.125 -2.765625 C 1.125 -1.828125 1.421875 -1.109375 2.015625 -0.59375 C 2.609375 -0.078125 3.359375 0.1875 4.28125 0.1875 C 5.1875 0.1875 5.890625 -0.09375 6.40625 -0.65625 C 6.921875 -1.203125 7.1875 -1.953125 7.171875 -2.875 L 7.171875 -6.65625 C 7.171875 -7.375 6.96875 -7.953125 6.5625 -8.40625 C 6.140625 -8.875 5.59375 -9.09375 4.921875 -9.078125 C 4.25 -9.078125 3.703125 -8.875 3.296875 -8.5 L 3.296875 -12.171875 L 7.171875 -12.171875 L 7.171875 -13.984375 L 1.296875 -13.984375 Z M 1.34375 -6.390625 "/>
</symbol>
</g>
</defs>
<g id="surface1">
<path style="fill:none;stroke-width:0.01;stroke-linecap:round;stroke-linejoin:round;stroke:rgb(0%,0%,100%);stroke-opacity:1;stroke-miterlimit:10;" d="M 76.772649 1428.831886 L 1465.754211 1428.831886 L 1465.754211 1570.561429 L 76.772649 1570.561429 Z M 76.772649 1428.831886 " transform="matrix(0.999538,0,0,-0.999538,0.641726,1643.480351)"/>
<path style="fill:none;stroke-width:0.01;stroke-linecap:round;stroke-linejoin:round;stroke:rgb(0%,0%,100%);stroke-opacity:1;stroke-miterlimit:10;" d="M 85.514969 1247.279258 L 1474.492623 1247.279258 L 1474.492623 1389.012708 L 85.514969 1389.012708 Z M 85.514969 1247.279258 " transform="matrix(0.999538,0,0,-0.999538,0.641726,1643.480351)"/>
<path style="fill:none;stroke-width:0.01;stroke-linecap:butt;stroke-linejoin:round;stroke:rgb(100%,0%,0%);stroke-opacity:1;stroke-miterlimit:10;" d="M 243.251907 1514.019681 L 254.550096 1480.769945 L 231.949811 1480.769945 Z M 245.55766 1523.778096 L 240.946155 1523.778096 L 224.508873 1475.439357 L 261.99885 1475.439357 Z M 245.55766 1523.778096 " transform="matrix(0.999538,0,0,-0.999538,0.641726,1643.480351)"/>
<path style="fill:none;stroke-width:0.01;stroke-linecap:butt;stroke-linejoin:round;stroke:rgb(100%,0%,0%);stroke-opacity:1;stroke-miterlimit:10;" d="M 267.638174 1475.439357 L 272.964854 1475.439357 L 272.964854 1523.782004 L 267.638174 1523.782004 Z M 267.638174 1475.439357 " transform="matrix(0.999538,0,0,-0.999538,0.641726,1643.480351)"/>
<path style="fill:none;stroke-width:0.01;stroke-linecap:butt;stroke-linejoin:round;stroke:rgb(100%,0%,0%);stroke-opacity:1;stroke-miterlimit:10;" d="M 206.269978 1474.939126 C 213.812525 1474.939126 219.95208 1481.078681 219.95208 1488.621228 L 219.95208 1489.750656 L 198.066969 1511.639675 C 198.590649 1515.711869 202.139163 1518.861762 206.269978 1518.861762 C 210.830679 1518.861762 214.539423 1515.149109 214.539423 1510.588408 L 214.539423 1509.689556 L 219.95208 1509.689556 L 219.95208 1510.588408 C 219.95208 1518.130956 213.812525 1524.270511 206.269978 1524.270511 C 198.727431 1524.270511 192.587875 1518.130956 192.587875 1510.588408 L 192.587875 1509.470705 L 214.472986 1487.569961 C 213.949307 1483.501675 210.400793 1480.359599 206.269978 1480.359599 C 201.709277 1480.359599 198.000532 1484.060527 198.000532 1488.621228 L 198.000532 1489.531805 L 192.587875 1489.531805 L 192.587875 1488.621228 C 192.587875 1481.078681 198.727431 1474.939126 206.269978 1474.939126 " transform="matrix(0.999538,0,0,-0.999538,0.641726,1643.480351)"/>
<path style="fill:none;stroke-width:0.01;stroke-linecap:butt;stroke-linejoin:round;stroke:rgb(100%,0%,0%);stroke-opacity:1;stroke-miterlimit:10;" d="M 114.903547 1518.228657 L 142.435799 1518.228657 L 142.435799 1523.621774 L 114.903547 1523.621774 Z M 114.903547 1518.228657 " transform="matrix(0.999538,0,0,-0.999538,0.641726,1643.480351)"/>
<path style="fill:none;stroke-width:0.01;stroke-linecap:butt;stroke-linejoin:round;stroke:rgb(100%,0%,0%);stroke-opacity:1;stroke-miterlimit:10;" d="M 157.411467 1506.770238 L 177.682551 1483.728343 L 177.682551 1475.279127 L 183.142105 1475.279127 L 183.142105 1523.62959 L 177.682551 1523.62959 L 177.682551 1491.919627 L 157.411467 1514.961523 L 157.411467 1523.62959 L 151.951914 1523.62959 L 151.951914 1475.279127 L 157.411467 1475.279127 Z M 157.411467 1506.770238 " transform="matrix(0.999538,0,0,-0.999538,0.641726,1643.480351)"/>
<path style="fill:none;stroke-width:0.01;stroke-linecap:butt;stroke-linejoin:round;stroke:rgb(100%,0%,0%);stroke-opacity:1;stroke-miterlimit:10;" d="M 280.56993 1498.711828 L 285.89661 1498.711828 L 285.89661 1523.782004 L 280.56993 1523.782004 Z M 280.56993 1498.711828 " transform="matrix(0.999538,0,0,-0.999538,0.641726,1643.480351)"/>
<path style="fill:none;stroke-width:0.01;stroke-linecap:butt;stroke-linejoin:round;stroke:rgb(100%,0%,0%);stroke-opacity:1;stroke-miterlimit:10;" d="M 293.505594 1475.439357 L 298.828365 1475.439357 L 298.828365 1523.782004 L 293.505594 1523.782004 Z M 293.505594 1475.439357 " transform="matrix(0.999538,0,0,-0.999538,0.641726,1643.480351)"/>
<path style="fill:none;stroke-width:0.01;stroke-linecap:butt;stroke-linejoin:round;stroke:rgb(100%,0%,0%);stroke-opacity:1;stroke-miterlimit:10;" d="M 114.903547 1475.279127 L 142.435799 1475.279127 L 142.435799 1480.672243 L 114.903547 1480.672243 Z M 114.903547 1475.279127 " transform="matrix(0.999538,0,0,-0.999538,0.641726,1643.480351)"/>
<path style="fill:none;stroke-width:0.01;stroke-linecap:butt;stroke-linejoin:round;stroke:rgb(100%,0%,0%);stroke-opacity:1;stroke-miterlimit:10;" d="M 114.903547 1496.761708 L 142.435799 1496.761708 L 142.435799 1502.150916 L 114.903547 1502.150916 Z M 114.903547 1496.761708 " transform="matrix(0.999538,0,0,-0.999538,0.641726,1643.480351)"/>
<path style="fill:none;stroke-width:0.01;stroke-linecap:butt;stroke-linejoin:round;stroke:rgb(100%,0%,0%);stroke-opacity:1;stroke-miterlimit:10;" d="M 243.251907 1332.881307 L 254.550096 1299.619846 L 231.949811 1299.619846 Z M 245.55766 1342.639721 L 240.946155 1342.639721 L 224.508873 1294.289258 L 261.99885 1294.289258 Z M 245.55766 1342.639721 " transform="matrix(0.999538,0,0,-0.999538,0.641726,1643.480351)"/>
<path style="fill:none;stroke-width:0.01;stroke-linecap:butt;stroke-linejoin:round;stroke:rgb(100%,0%,0%);stroke-opacity:1;stroke-miterlimit:10;" d="M 267.638174 1294.289258 L 272.964854 1294.289258 L 272.964854 1342.631905 L 267.638174 1342.631905 Z M 267.638174 1294.289258 " transform="matrix(0.999538,0,0,-0.999538,0.641726,1643.480351)"/>
<path style="fill:none;stroke-width:0.01;stroke-linecap:butt;stroke-linejoin:round;stroke:rgb(100%,0%,0%);stroke-opacity:1;stroke-miterlimit:10;" d="M 206.269978 1293.800751 C 213.812525 1293.800751 219.95208 1299.940306 219.95208 1307.478946 L 219.95208 1308.600558 L 198.066969 1330.501301 C 198.590649 1334.569587 202.139163 1337.719479 206.269978 1337.719479 C 210.830679 1337.719479 214.539423 1334.010735 214.539423 1329.450034 L 214.539423 1328.551181 L 219.95208 1328.551181 L 219.95208 1329.450034 C 219.95208 1336.988673 213.812525 1343.128228 206.269978 1343.128228 C 198.727431 1343.128228 192.587875 1336.988673 192.587875 1329.450034 L 192.587875 1328.328422 L 214.472986 1306.431587 C 213.949307 1302.359393 210.400793 1299.2095 206.269978 1299.2095 C 201.709277 1299.2095 198.000532 1302.918245 198.000532 1307.478946 L 198.000532 1308.381706 L 192.587875 1308.381706 L 192.587875 1307.478946 C 192.587875 1299.940306 198.727431 1293.800751 206.269978 1293.800751 " transform="matrix(0.999538,0,0,-0.999538,0.641726,1643.480351)"/>
<path style="fill:none;stroke-width:0.01;stroke-linecap:butt;stroke-linejoin:round;stroke:rgb(100%,0%,0%);stroke-opacity:1;stroke-miterlimit:10;" d="M 114.903547 1337.090282 L 142.435799 1337.090282 L 142.435799 1342.483399 L 114.903547 1342.483399 Z M 114.903547 1337.090282 " transform="matrix(0.999538,0,0,-0.999538,0.641726,1643.480351)"/>
<path style="fill:none;stroke-width:0.01;stroke-linecap:butt;stroke-linejoin:round;stroke:rgb(100%,0%,0%);stroke-opacity:1;stroke-miterlimit:10;" d="M 157.411467 1325.620139 L 177.682551 1302.589968 L 177.682551 1294.140752 L 183.142105 1294.140752 L 183.142105 1342.491215 L 177.682551 1342.491215 L 177.682551 1310.781253 L 157.411467 1333.811424 L 157.411467 1342.491215 L 151.951914 1342.491215 L 151.951914 1294.140752 L 157.411467 1294.140752 Z M 157.411467 1325.620139 " transform="matrix(0.999538,0,0,-0.999538,0.641726,1643.480351)"/>
<path style="fill:none;stroke-width:0.01;stroke-linecap:butt;stroke-linejoin:round;stroke:rgb(100%,0%,0%);stroke-opacity:1;stroke-miterlimit:10;" d="M 280.56993 1317.561729 L 285.89661 1317.561729 L 285.89661 1342.631905 L 280.56993 1342.631905 Z M 280.56993 1317.561729 " transform="matrix(0.999538,0,0,-0.999538,0.641726,1643.480351)"/>
<path style="fill:none;stroke-width:0.01;stroke-linecap:butt;stroke-linejoin:round;stroke:rgb(100%,0%,0%);stroke-opacity:1;stroke-miterlimit:10;" d="M 293.505594 1294.289258 L 298.828365 1294.289258 L 298.828365 1342.631905 L 293.505594 1342.631905 Z M 293.505594 1294.289258 " transform="matrix(0.999538,0,0,-0.999538,0.641726,1643.480351)"/>
<path style="fill:none;stroke-width:0.01;stroke-linecap:butt;stroke-linejoin:round;stroke:rgb(100%,0%,0%);stroke-opacity:1;stroke-miterlimit:10;" d="M 114.903547 1294.140752 L 142.435799 1294.140752 L 142.435799 1299.533869 L 114.903547 1299.533869 Z M 114.903547 1294.140752 " transform="matrix(0.999538,0,0,-0.999538,0.641726,1643.480351)"/>
<path style="fill:none;stroke-width:0.01;stroke-linecap:butt;stroke-linejoin:round;stroke:rgb(100%,0%,0%);stroke-opacity:1;stroke-miterlimit:10;" d="M 114.903547 1315.611609 L 142.435799 1315.611609 L 142.435799 1321.000818 L 114.903547 1321.000818 Z M 114.903547 1315.611609 " transform="matrix(0.999538,0,0,-0.999538,0.641726,1643.480351)"/>
<g style="fill:rgb(0%,0%,0%);fill-opacity:1;">
  <use xlink:href="#glyph0-1" x="339.718998" y="101.683"/>
</g>
<g style="fill:rgb(0%,0%,0%);fill-opacity:1;">
  <use xlink:href="#glyph0-2" x="353.233751" y="101.683"/>
</g>
<g style="fill:rgb(0%,0%,0%);fill-opacity:1;">
  <use xlink:href="#glyph0-3" x="372.122021" y="101.683"/>
</g>
<g style="fill:rgb(0%,0%,0%);fill-opacity:1;">
  <use xlink:href="#glyph0-4" x="379.015835" y="101.683"/>
</g>
<g style="fill:rgb(0%,0%,0%);fill-opacity:1;">
  <use xlink:href="#glyph0-5" x="398.137996" y="101.683"/>
</g>
<g style="fill:rgb(0%,0%,0%);fill-opacity:1;">
  <use xlink:href="#glyph0-4" x="409.250859" y="101.683"/>
</g>
<g style="fill:rgb(0%,0%,0%);fill-opacity:1;">
  <use xlink:href="#glyph0-6" x="421.389249" y="101.683"/>
</g>
<g style="fill:rgb(0%,0%,0%);fill-opacity:1;">
  <use xlink:href="#glyph0-5" x="427.611373" y="101.683"/>
</g>
<g style="fill:rgb(0%,0%,0%);fill-opacity:1;">
  <use xlink:href="#glyph0-7" x="438.724236" y="101.683"/>
</g>
<g style="fill:rgb(0%,0%,0%);fill-opacity:1;">
  <use xlink:href="#glyph0-8" x="450.775666" y="101.683"/>
</g>
<g style="fill:rgb(0%,0%,0%);fill-opacity:1;">
  <use xlink:href="#glyph0-4" x="470.044759" y="101.683"/>
</g>
<g style="fill:rgb(0%,0%,0%);fill-opacity:1;">
  <use xlink:href="#glyph0-9" x="482.183149" y="101.683"/>
</g>
<g style="fill:rgb(0%,0%,0%);fill-opacity:1;">
  <use xlink:href="#glyph0-10" x="501.452242" y="101.683"/>
</g>
<g style="fill:rgb(0%,0%,0%);fill-opacity:1;">
  <use xlink:href="#glyph0-9" x="513.737563" y="101.683"/>
</g>
<g style="fill:rgb(0%,0%,0%);fill-opacity:1;">
  <use xlink:href="#glyph0-7" x="526.022885" y="101.683"/>
</g>
<g style="fill:rgb(0%,0%,0%);fill-opacity:1;">
  <use xlink:href="#glyph0-11" x="538.074315" y="101.683"/>
</g>
<g style="fill:rgb(0%,0%,0%);fill-opacity:1;">
  <use xlink:href="#glyph0-6" x="545.717782" y="101.683"/>
</g>
<g style="fill:rgb(0%,0%,0%);fill-opacity:1;">
  <use xlink:href="#glyph0-12" x="551.939906" y="101.683"/>
</g>
<g style="fill:rgb(0%,0%,0%);fill-opacity:1;">
  <use xlink:href="#glyph0-6" x="564.225227" y="101.683"/>
</g>
<g style="fill:rgb(0%,0%,0%);fill-opacity:1;">
  <use xlink:href="#glyph0-2" x="570.447351" y="101.683"/>
</g>
<g style="fill:rgb(0%,0%,0%);fill-opacity:1;">
  <use xlink:href="#glyph0-8" x="582.34885" y="101.683"/>
</g>
<g style="fill:rgb(0%,0%,0%);fill-opacity:1;">
  <use xlink:href="#glyph0-13" x="601.617943" y="101.683"/>
</g>
<g style="fill:rgb(0%,0%,0%);fill-opacity:1;">
  <use xlink:href="#glyph0-14" x="618.017363" y="101.683"/>
</g>
<g style="fill:rgb(0%,0%,0%);fill-opacity:1;">
  <use xlink:href="#glyph0-4" x="631.649062" y="101.683"/>
</g>
<g style="fill:rgb(0%,0%,0%);fill-opacity:1;">
  <use xlink:href="#glyph0-15" x="643.787452" y="101.683"/>
</g>
<g style="fill:rgb(0%,0%,0%);fill-opacity:1;">
  <use xlink:href="#glyph0-6" x="656.072773" y="101.683"/>
</g>
<g style="fill:rgb(0%,0%,0%);fill-opacity:1;">
  <use xlink:href="#glyph0-11" x="662.294897" y="101.683"/>
</g>
<g style="fill:rgb(0%,0%,0%);fill-opacity:1;">
  <use xlink:href="#glyph0-2" x="669.938364" y="101.683"/>
</g>
<g style="fill:rgb(0%,0%,0%);fill-opacity:1;">
  <use xlink:href="#glyph0-16" x="681.839863" y="101.683"/>
</g>
<g style="fill:rgb(0%,0%,0%);fill-opacity:1;">
  <use xlink:href="#glyph0-4" x="697.72652" y="101.683"/>
</g>
<g style="fill:rgb(0%,0%,0%);fill-opacity:1;">
  <use xlink:href="#glyph0-9" x="709.86491" y="101.683"/>
</g>
<g style="fill:rgb(0%,0%,0%);fill-opacity:1;">
  <use xlink:href="#glyph0-11" x="722.150231" y="101.683"/>
</g>
<g style="fill:rgb(0%,0%,0%);fill-opacity:1;">
  <use xlink:href="#glyph0-7" x="729.793698" y="101.683"/>
</g>
<g style="fill:rgb(0%,0%,0%);fill-opacity:1;">
  <use xlink:href="#glyph0-9" x="741.845128" y="101.683"/>
</g>
<g style="fill:rgb(0%,0%,0%);fill-opacity:1;">
  <use xlink:href="#glyph0-16" x="754.130449" y="101.683"/>
</g>
<g style="fill:rgb(0%,0%,0%);fill-opacity:1;">
  <use xlink:href="#glyph0-12" x="770.017106" y="101.683"/>
</g>
<g style="fill:rgb(0%,0%,0%);fill-opacity:1;">
  <use xlink:href="#glyph0-17" x="782.302428" y="101.683"/>
</g>
<g style="fill:rgb(0%,0%,0%);fill-opacity:1;">
  <use xlink:href="#glyph0-9" x="788.716463" y="101.683"/>
</g>
<g style="fill:rgb(0%,0%,0%);fill-opacity:1;">
  <use xlink:href="#glyph0-8" x="801.001784" y="101.683"/>
</g>
<g style="fill:rgb(0%,0%,0%);fill-opacity:1;">
  <use xlink:href="#glyph0-18" x="820.270878" y="101.683"/>
</g>
<g style="fill:rgb(0%,0%,0%);fill-opacity:1;">
  <use xlink:href="#glyph0-19" x="831.809544" y="101.683"/>
</g>
<g style="fill:rgb(0%,0%,0%);fill-opacity:1;">
  <use xlink:href="#glyph0-9" x="849.759248" y="101.683"/>
</g>
<g style="fill:rgb(0%,0%,0%);fill-opacity:1;">
  <use xlink:href="#glyph0-16" x="862.044569" y="101.683"/>
</g>
<g style="fill:rgb(0%,0%,0%);fill-opacity:1;">
  <use xlink:href="#glyph0-20" x="877.931226" y="101.683"/>
</g>
<g style="fill:rgb(0%,0%,0%);fill-opacity:1;">
  <use xlink:href="#glyph0-4" x="890.216548" y="101.683"/>
</g>
<g style="fill:rgb(0%,0%,0%);fill-opacity:1;">
  <use xlink:href="#glyph0-16" x="902.354937" y="101.683"/>
</g>
<g style="fill:rgb(0%,0%,0%);fill-opacity:1;">
  <use xlink:href="#glyph0-11" x="911.257822" y="101.683"/>
</g>
<g style="fill:rgb(0%,0%,0%);fill-opacity:1;">
  <use xlink:href="#glyph0-4" x="918.901289" y="101.683"/>
</g>
<g style="fill:rgb(0%,0%,0%);fill-opacity:1;">
  <use xlink:href="#glyph0-21" x="931.039678" y="101.683"/>
</g>
<g style="fill:rgb(0%,0%,0%);fill-opacity:1;">
  <use xlink:href="#glyph0-22" x="943.208054" y="101.683"/>
</g>
<g style="fill:rgb(0%,0%,0%);fill-opacity:1;">
  <use xlink:href="#glyph1-1" x="339.718998" y="133.76817"/>
</g>
<g style="fill:rgb(0%,0%,0%);fill-opacity:1;">
  <use xlink:href="#glyph1-2" x="347.869231" y="133.76817"/>
</g>
<g style="fill:rgb(0%,0%,0%);fill-opacity:1;">
  <use xlink:href="#glyph1-3" x="353.666551" y="133.76817"/>
</g>
<g style="fill:rgb(0%,0%,0%);fill-opacity:1;">
  <use xlink:href="#glyph1-4" x="361.700838" y="133.76817"/>
</g>
<g style="fill:rgb(0%,0%,0%);fill-opacity:1;">
  <use xlink:href="#glyph1-5" x="365.896898" y="133.76817"/>
</g>
<g style="fill:rgb(0%,0%,0%);fill-opacity:1;">
  <use xlink:href="#glyph1-6" x="373.831231" y="133.76817"/>
</g>
<g style="fill:rgb(0%,0%,0%);fill-opacity:1;">
  <use xlink:href="#glyph1-7" x="383.582724" y="133.76817"/>
</g>
<g style="fill:rgb(0%,0%,0%);fill-opacity:1;">
  <use xlink:href="#glyph1-5" x="391.772938" y="133.76817"/>
</g>
<g style="fill:rgb(0%,0%,0%);fill-opacity:1;">
  <use xlink:href="#glyph1-8" x="404.365118" y="133.76817"/>
</g>
<g style="fill:rgb(0%,0%,0%);fill-opacity:1;">
  <use xlink:href="#glyph1-9" x="413.716795" y="133.76817"/>
</g>
<g style="fill:rgb(0%,0%,0%);fill-opacity:1;">
  <use xlink:href="#glyph1-7" x="426.562857" y="133.76817"/>
</g>
<g style="fill:rgb(0%,0%,0%);fill-opacity:1;">
  <use xlink:href="#glyph1-10" x="434.753072" y="133.76817"/>
</g>
<g style="fill:rgb(0%,0%,0%);fill-opacity:1;">
  <use xlink:href="#glyph1-11" x="439.029095" y="133.76817"/>
</g>
<g style="fill:rgb(0%,0%,0%);fill-opacity:1;">
  <use xlink:href="#glyph1-6" x="446.963428" y="133.76817"/>
</g>
<g style="fill:rgb(0%,0%,0%);fill-opacity:1;">
  <use xlink:href="#glyph1-12" x="452.059072" y="133.76817"/>
</g>
<g style="fill:rgb(0%,0%,0%);fill-opacity:1;">
  <use xlink:href="#glyph1-7" x="460.249287" y="133.76817"/>
</g>
<g style="fill:rgb(0%,0%,0%);fill-opacity:1;">
  <use xlink:href="#glyph1-5" x="468.439501" y="133.76817"/>
</g>
<g style="fill:rgb(0%,0%,0%);fill-opacity:1;">
  <use xlink:href="#glyph1-13" x="476.373834" y="133.76817"/>
</g>
<g style="fill:rgb(0%,0%,0%);fill-opacity:1;">
  <use xlink:href="#glyph1-14" x="488.438257" y="133.76817"/>
</g>
<g style="fill:rgb(0%,0%,0%);fill-opacity:1;">
  <use xlink:href="#glyph1-15" x="499.371204" y="133.76817"/>
</g>
<g style="fill:rgb(0%,0%,0%);fill-opacity:1;">
  <use xlink:href="#glyph1-3" x="508.381039" y="133.76817"/>
</g>
<g style="fill:rgb(0%,0%,0%);fill-opacity:1;">
  <use xlink:href="#glyph1-16" x="516.415326" y="133.76817"/>
</g>
<g style="fill:rgb(0%,0%,0%);fill-opacity:1;">
  <use xlink:href="#glyph1-5" x="528.567709" y="133.76817"/>
</g>
<g style="fill:rgb(0%,0%,0%);fill-opacity:1;">
  <use xlink:href="#glyph1-13" x="536.502041" y="133.76817"/>
</g>
<g style="fill:rgb(0%,0%,0%);fill-opacity:1;">
  <use xlink:href="#glyph1-6" x="543.910617" y="133.76817"/>
</g>
<g style="fill:rgb(0%,0%,0%);fill-opacity:1;">
  <use xlink:href="#glyph1-17" x="549.006262" y="133.76817"/>
</g>
<g style="fill:rgb(0%,0%,0%);fill-opacity:1;">
  <use xlink:href="#glyph1-18" x="553.154344" y="133.76817"/>
</g>
<g style="fill:rgb(0%,0%,0%);fill-opacity:1;">
  <use xlink:href="#glyph1-17" x="560.846789" y="133.76817"/>
</g>
<g style="fill:rgb(0%,0%,0%);fill-opacity:1;">
  <use xlink:href="#glyph1-6" x="564.994871" y="133.76817"/>
</g>
<g style="fill:rgb(0%,0%,0%);fill-opacity:1;">
  <use xlink:href="#glyph1-11" x="570.090516" y="133.76817"/>
</g>
<g style="fill:rgb(0%,0%,0%);fill-opacity:1;">
  <use xlink:href="#glyph1-14" x="582.682696" y="133.76817"/>
</g>
<g style="fill:rgb(0%,0%,0%);fill-opacity:1;">
  <use xlink:href="#glyph1-19" x="593.615642" y="133.76817"/>
</g>
<g style="fill:rgb(0%,0%,0%);fill-opacity:1;">
  <use xlink:href="#glyph1-3" x="602.409578" y="133.76817"/>
</g>
<g style="fill:rgb(0%,0%,0%);fill-opacity:1;">
  <use xlink:href="#glyph1-12" x="610.443864" y="133.76817"/>
</g>
<g style="fill:rgb(0%,0%,0%);fill-opacity:1;">
  <use xlink:href="#glyph1-6" x="618.634078" y="133.76817"/>
</g>
<g style="fill:rgb(0%,0%,0%);fill-opacity:1;">
  <use xlink:href="#glyph1-5" x="623.729723" y="133.76817"/>
</g>
<g style="fill:rgb(0%,0%,0%);fill-opacity:1;">
  <use xlink:href="#glyph1-9" x="631.664056" y="133.76817"/>
</g>
<g style="fill:rgb(0%,0%,0%);fill-opacity:1;">
  <use xlink:href="#glyph1-20" x="639.85427" y="133.76817"/>
</g>
<g style="fill:rgb(0%,0%,0%);fill-opacity:1;">
  <use xlink:href="#glyph1-9" x="647.946529" y="133.76817"/>
</g>
<g style="fill:rgb(0%,0%,0%);fill-opacity:1;">
  <use xlink:href="#glyph1-18" x="656.136744" y="133.76817"/>
</g>
<g style="fill:rgb(0%,0%,0%);fill-opacity:1;">
  <use xlink:href="#glyph1-5" x="663.829188" y="133.76817"/>
</g>
<g style="fill:rgb(0%,0%,0%);fill-opacity:1;">
  <use xlink:href="#glyph1-5" x="676.421368" y="133.76817"/>
</g>
<g style="fill:rgb(0%,0%,0%);fill-opacity:1;">
  <use xlink:href="#glyph1-9" x="684.3557" y="133.76817"/>
</g>
<g style="fill:rgb(0%,0%,0%);fill-opacity:1;">
  <use xlink:href="#glyph1-4" x="697.201763" y="133.76817"/>
</g>
<g style="fill:rgb(0%,0%,0%);fill-opacity:1;">
  <use xlink:href="#glyph1-12" x="701.397823" y="133.76817"/>
</g>
<g style="fill:rgb(0%,0%,0%);fill-opacity:1;">
  <use xlink:href="#glyph1-17" x="709.588038" y="133.76817"/>
</g>
<g style="fill:rgb(0%,0%,0%);fill-opacity:1;">
  <use xlink:href="#glyph1-9" x="713.73612" y="133.76817"/>
</g>
<g style="fill:rgb(0%,0%,0%);fill-opacity:1;">
  <use xlink:href="#glyph1-21" x="726.582183" y="133.76817"/>
</g>
<g style="fill:rgb(0%,0%,0%);fill-opacity:1;">
  <use xlink:href="#glyph1-22" x="734.936321" y="133.76817"/>
</g>
<g style="fill:rgb(0%,0%,0%);fill-opacity:1;">
  <use xlink:href="#glyph1-21" x="743.29046" y="133.76817"/>
</g>
<g style="fill:rgb(0%,0%,0%);fill-opacity:1;">
  <use xlink:href="#glyph1-23" x="751.644598" y="133.76817"/>
</g>
<g style="fill:rgb(0%,0%,0%);fill-opacity:1;">
  <use xlink:href="#glyph1-15" x="339.718998" y="160.026033"/>
</g>
<g style="fill:rgb(0%,0%,0%);fill-opacity:1;">
  <use xlink:href="#glyph1-17" x="348.728834" y="160.026033"/>
</g>
<g style="fill:rgb(0%,0%,0%);fill-opacity:1;">
  <use xlink:href="#glyph1-2" x="352.876916" y="160.026033"/>
</g>
<g style="fill:rgb(0%,0%,0%);fill-opacity:1;">
  <use xlink:href="#glyph1-5" x="358.674237" y="160.026033"/>
</g>
<g style="fill:rgb(0%,0%,0%);fill-opacity:1;">
  <use xlink:href="#glyph1-18" x="366.608569" y="160.026033"/>
</g>
<g style="fill:rgb(0%,0%,0%);fill-opacity:1;">
  <use xlink:href="#glyph1-6" x="374.301014" y="160.026033"/>
</g>
<g style="fill:rgb(0%,0%,0%);fill-opacity:1;">
  <use xlink:href="#glyph1-5" x="379.396658" y="160.026033"/>
</g>
<g style="fill:rgb(0%,0%,0%);fill-opacity:1;">
  <use xlink:href="#glyph1-12" x="387.330991" y="160.026033"/>
</g>
<g style="fill:rgb(0%,0%,0%);fill-opacity:1;">
  <use xlink:href="#glyph1-2" x="395.521205" y="160.026033"/>
</g>
<g style="fill:rgb(0%,0%,0%);fill-opacity:1;">
  <use xlink:href="#glyph1-13" x="401.456462" y="160.026033"/>
</g>
<g style="fill:rgb(0%,0%,0%);fill-opacity:1;">
  <use xlink:href="#glyph1-7" x="413.520886" y="160.026033"/>
</g>
<g style="fill:rgb(0%,0%,0%);fill-opacity:1;">
  <use xlink:href="#glyph1-10" x="421.7111" y="160.026033"/>
</g>
<g style="fill:rgb(0%,0%,0%);fill-opacity:1;">
  <use xlink:href="#glyph1-11" x="425.987123" y="160.026033"/>
</g>
<g style="fill:rgb(0%,0%,0%);fill-opacity:1;">
  <use xlink:href="#glyph1-6" x="433.921456" y="160.026033"/>
</g>
<g style="fill:rgb(0%,0%,0%);fill-opacity:1;">
  <use xlink:href="#glyph1-12" x="439.017101" y="160.026033"/>
</g>
<g style="fill:rgb(0%,0%,0%);fill-opacity:1;">
  <use xlink:href="#glyph1-7" x="447.207315" y="160.026033"/>
</g>
<g style="fill:rgb(0%,0%,0%);fill-opacity:1;">
  <use xlink:href="#glyph1-5" x="455.397529" y="160.026033"/>
</g>
<g style="fill:rgb(0%,0%,0%);fill-opacity:1;">
  <use xlink:href="#glyph1-13" x="463.331862" y="160.026033"/>
</g>
<g style="fill:rgb(0%,0%,0%);fill-opacity:1;">
  <use xlink:href="#glyph1-24" x="475.396286" y="160.026033"/>
</g>
<g style="fill:rgb(0%,0%,0%);fill-opacity:1;">
  <use xlink:href="#glyph1-25" x="484.142243" y="160.026033"/>
</g>
<g style="fill:rgb(0%,0%,0%);fill-opacity:1;">
  <use xlink:href="#glyph1-26" x="495.992765" y="160.026033"/>
</g>
<g style="fill:rgb(0%,0%,0%);fill-opacity:1;">
  <use xlink:href="#glyph1-15" x="504.846673" y="160.026033"/>
</g>
<g style="fill:rgb(0%,0%,0%);fill-opacity:1;">
  <use xlink:href="#glyph1-27" x="513.300765" y="160.026033"/>
</g>
<g style="fill:rgb(0%,0%,0%);fill-opacity:1;">
  <use xlink:href="#glyph1-28" x="521.568944" y="160.026033"/>
</g>
<g style="fill:rgb(0%,0%,0%);fill-opacity:1;">
  <use xlink:href="#glyph1-29" x="530.656743" y="160.026033"/>
</g>
<g style="fill:rgb(0%,0%,0%);fill-opacity:1;">
  <use xlink:href="#glyph1-30" x="539.470669" y="160.026033"/>
</g>
<g style="fill:rgb(0%,0%,0%);fill-opacity:1;">
  <use xlink:href="#glyph1-25" x="1263.627949" y="168.781986"/>
</g>
<g style="fill:rgb(0%,0%,0%);fill-opacity:1;">
  <use xlink:href="#glyph1-20" x="1275.478472" y="168.781986"/>
</g>
<g style="fill:rgb(0%,0%,0%);fill-opacity:1;">
  <use xlink:href="#glyph1-31" x="1283.570731" y="168.781986"/>
</g>
<g style="fill:rgb(0%,0%,0%);fill-opacity:1;">
  <use xlink:href="#glyph1-12" x="1291.760946" y="168.781986"/>
</g>
<g style="fill:rgb(0%,0%,0%);fill-opacity:1;">
  <use xlink:href="#glyph1-5" x="1299.95116" y="168.781986"/>
</g>
<g style="fill:rgb(0%,0%,0%);fill-opacity:1;">
  <use xlink:href="#glyph1-6" x="1307.885493" y="168.781986"/>
</g>
<g style="fill:rgb(0%,0%,0%);fill-opacity:1;">
  <use xlink:href="#glyph1-6" x="1312.981137" y="168.781986"/>
</g>
<g style="fill:rgb(0%,0%,0%);fill-opacity:1;">
  <use xlink:href="#glyph1-5" x="1318.076782" y="168.781986"/>
</g>
<g style="fill:rgb(0%,0%,0%);fill-opacity:1;">
  <use xlink:href="#glyph1-32" x="339.718998" y="188.972653"/>
</g>
<g style="fill:rgb(0%,0%,0%);fill-opacity:1;">
  <use xlink:href="#glyph1-33" x="347.605353" y="188.972653"/>
</g>
<g style="fill:rgb(0%,0%,0%);fill-opacity:1;">
  <use xlink:href="#glyph1-19" x="357.336855" y="188.972653"/>
</g>
<g style="fill:rgb(0%,0%,0%);fill-opacity:1;">
  <use xlink:href="#glyph1-27" x="365.730975" y="188.972653"/>
</g>
<g style="fill:rgb(0%,0%,0%);fill-opacity:1;">
  <use xlink:href="#glyph1-25" x="378.655001" y="188.972653"/>
</g>
<g style="fill:rgb(0%,0%,0%);fill-opacity:1;">
  <use xlink:href="#glyph1-3" x="390.505524" y="188.972653"/>
</g>
<g style="fill:rgb(0%,0%,0%);fill-opacity:1;">
  <use xlink:href="#glyph1-9" x="398.53981" y="188.972653"/>
</g>
<g style="fill:rgb(0%,0%,0%);fill-opacity:1;">
  <use xlink:href="#glyph1-6" x="406.730024" y="188.972653"/>
</g>
<g style="fill:rgb(0%,0%,0%);fill-opacity:1;">
  <use xlink:href="#glyph1-34" x="411.825669" y="188.972653"/>
</g>
<g style="fill:rgb(0%,0%,0%);fill-opacity:1;">
  <use xlink:href="#glyph1-5" x="420.015883" y="188.972653"/>
</g>
<g style="fill:rgb(0%,0%,0%);fill-opacity:1;">
  <use xlink:href="#glyph1-35" x="427.950216" y="188.972653"/>
</g>
<g style="fill:rgb(0%,0%,0%);fill-opacity:1;">
  <use xlink:href="#glyph1-35" x="432.546092" y="188.972653"/>
</g>
<g style="fill:rgb(0%,0%,0%);fill-opacity:1;">
  <use xlink:href="#glyph1-17" x="437.141967" y="188.972653"/>
</g>
<g style="fill:rgb(0%,0%,0%);fill-opacity:1;">
  <use xlink:href="#glyph1-5" x="441.29005" y="188.972653"/>
</g>
<g style="fill:rgb(0%,0%,0%);fill-opacity:1;">
  <use xlink:href="#glyph1-2" x="449.224383" y="188.972653"/>
</g>
<g style="fill:rgb(0%,0%,0%);fill-opacity:1;">
  <use xlink:href="#glyph1-21" x="459.815487" y="188.972653"/>
</g>
<g style="fill:rgb(0%,0%,0%);fill-opacity:1;">
  <use xlink:href="#glyph1-22" x="468.169626" y="188.972653"/>
</g>
<g style="fill:rgb(0%,0%,0%);fill-opacity:1;">
  <use xlink:href="#glyph1-21" x="476.523764" y="188.972653"/>
</g>
<g style="fill:rgb(0%,0%,0%);fill-opacity:1;">
  <use xlink:href="#glyph1-23" x="484.877903" y="188.972653"/>
</g>
<g style="fill:rgb(0%,0%,0%);fill-opacity:1;">
  <use xlink:href="#glyph1-32" x="1257.530768" y="191.331563"/>
</g>
<g style="fill:rgb(0%,0%,0%);fill-opacity:1;">
  <use xlink:href="#glyph1-18" x="1265.417122" y="191.331563"/>
</g>
<g style="fill:rgb(0%,0%,0%);fill-opacity:1;">
  <use xlink:href="#glyph1-36" x="1273.109567" y="191.331563"/>
</g>
<g style="fill:rgb(0%,0%,0%);fill-opacity:1;">
  <use xlink:href="#glyph1-24" x="1285.955629" y="191.331563"/>
</g>
<g style="fill:rgb(0%,0%,0%);fill-opacity:1;">
  <use xlink:href="#glyph1-37" x="1294.701587" y="191.331563"/>
</g>
<g style="fill:rgb(0%,0%,0%);fill-opacity:1;">
  <use xlink:href="#glyph1-38" x="1303.055725" y="191.331563"/>
</g>
<g style="fill:rgb(0%,0%,0%);fill-opacity:1;">
  <use xlink:href="#glyph1-21" x="1309.810603" y="191.331563"/>
</g>
<g style="fill:rgb(0%,0%,0%);fill-opacity:1;">
  <use xlink:href="#glyph1-22" x="1318.164741" y="191.331563"/>
</g>
<g style="fill:rgb(0%,0%,0%);fill-opacity:1;">
  <use xlink:href="#glyph1-22" x="1326.51888" y="191.331563"/>
</g>
<g style="fill:rgb(0%,0%,0%);fill-opacity:1;">
  <use xlink:href="#glyph1-25" x="1266.336697" y="353.256718"/>
</g>
<g style="fill:rgb(0%,0%,0%);fill-opacity:1;">
  <use xlink:href="#glyph1-20" x="1278.18722" y="353.256718"/>
</g>
<g style="fill:rgb(0%,0%,0%);fill-opacity:1;">
  <use xlink:href="#glyph1-31" x="1286.279479" y="353.256718"/>
</g>
<g style="fill:rgb(0%,0%,0%);fill-opacity:1;">
  <use xlink:href="#glyph1-12" x="1294.469694" y="353.256718"/>
</g>
<g style="fill:rgb(0%,0%,0%);fill-opacity:1;">
  <use xlink:href="#glyph1-5" x="1302.659908" y="353.256718"/>
</g>
<g style="fill:rgb(0%,0%,0%);fill-opacity:1;">
  <use xlink:href="#glyph1-6" x="1310.594241" y="353.256718"/>
</g>
<g style="fill:rgb(0%,0%,0%);fill-opacity:1;">
  <use xlink:href="#glyph1-6" x="1315.689885" y="353.256718"/>
</g>
<g style="fill:rgb(0%,0%,0%);fill-opacity:1;">
  <use xlink:href="#glyph1-5" x="1320.78553" y="353.256718"/>
</g>
<g style="fill:rgb(0%,0%,0%);fill-opacity:1;">
  <use xlink:href="#glyph1-32" x="1253.862463" y="375.806295"/>
</g>
<g style="fill:rgb(0%,0%,0%);fill-opacity:1;">
  <use xlink:href="#glyph1-18" x="1261.748818" y="375.806295"/>
</g>
<g style="fill:rgb(0%,0%,0%);fill-opacity:1;">
  <use xlink:href="#glyph1-36" x="1269.441262" y="375.806295"/>
</g>
<g style="fill:rgb(0%,0%,0%);fill-opacity:1;">
  <use xlink:href="#glyph1-24" x="1282.287325" y="375.806295"/>
</g>
<g style="fill:rgb(0%,0%,0%);fill-opacity:1;">
  <use xlink:href="#glyph1-37" x="1291.033282" y="375.806295"/>
</g>
<g style="fill:rgb(0%,0%,0%);fill-opacity:1;">
  <use xlink:href="#glyph1-38" x="1299.387421" y="375.806295"/>
</g>
<g style="fill:rgb(0%,0%,0%);fill-opacity:1;">
  <use xlink:href="#glyph1-39" x="1306.142298" y="375.806295"/>
</g>
<g style="fill:rgb(0%,0%,0%);fill-opacity:1;">
  <use xlink:href="#glyph1-40" x="1314.496437" y="375.806295"/>
</g>
<g style="fill:rgb(0%,0%,0%);fill-opacity:1;">
  <use xlink:href="#glyph1-22" x="1322.850576" y="375.806295"/>
</g>
<g style="fill:rgb(0%,0%,0%);fill-opacity:1;">
  <use xlink:href="#glyph0-1" x="339.718998" y="282.639359"/>
</g>
<g style="fill:rgb(0%,0%,0%);fill-opacity:1;">
  <use xlink:href="#glyph0-2" x="353.233751" y="282.639359"/>
</g>
<g style="fill:rgb(0%,0%,0%);fill-opacity:1;">
  <use xlink:href="#glyph0-3" x="372.122021" y="282.639359"/>
</g>
<g style="fill:rgb(0%,0%,0%);fill-opacity:1;">
  <use xlink:href="#glyph0-4" x="379.015835" y="282.639359"/>
</g>
<g style="fill:rgb(0%,0%,0%);fill-opacity:1;">
  <use xlink:href="#glyph0-5" x="398.137996" y="282.639359"/>
</g>
<g style="fill:rgb(0%,0%,0%);fill-opacity:1;">
  <use xlink:href="#glyph0-4" x="409.250859" y="282.639359"/>
</g>
<g style="fill:rgb(0%,0%,0%);fill-opacity:1;">
  <use xlink:href="#glyph0-6" x="421.389249" y="282.639359"/>
</g>
<g style="fill:rgb(0%,0%,0%);fill-opacity:1;">
  <use xlink:href="#glyph0-5" x="427.611373" y="282.639359"/>
</g>
<g style="fill:rgb(0%,0%,0%);fill-opacity:1;">
  <use xlink:href="#glyph0-7" x="438.724236" y="282.639359"/>
</g>
<g style="fill:rgb(0%,0%,0%);fill-opacity:1;">
  <use xlink:href="#glyph0-8" x="450.775666" y="282.639359"/>
</g>
<g style="fill:rgb(0%,0%,0%);fill-opacity:1;">
  <use xlink:href="#glyph0-4" x="470.044759" y="282.639359"/>
</g>
<g style="fill:rgb(0%,0%,0%);fill-opacity:1;">
  <use xlink:href="#glyph0-9" x="482.183149" y="282.639359"/>
</g>
<g style="fill:rgb(0%,0%,0%);fill-opacity:1;">
  <use xlink:href="#glyph0-10" x="501.452242" y="282.639359"/>
</g>
<g style="fill:rgb(0%,0%,0%);fill-opacity:1;">
  <use xlink:href="#glyph0-9" x="513.737563" y="282.639359"/>
</g>
<g style="fill:rgb(0%,0%,0%);fill-opacity:1;">
  <use xlink:href="#glyph0-7" x="526.022885" y="282.639359"/>
</g>
<g style="fill:rgb(0%,0%,0%);fill-opacity:1;">
  <use xlink:href="#glyph0-11" x="538.074315" y="282.639359"/>
</g>
<g style="fill:rgb(0%,0%,0%);fill-opacity:1;">
  <use xlink:href="#glyph0-6" x="545.717782" y="282.639359"/>
</g>
<g style="fill:rgb(0%,0%,0%);fill-opacity:1;">
  <use xlink:href="#glyph0-12" x="551.939906" y="282.639359"/>
</g>
<g style="fill:rgb(0%,0%,0%);fill-opacity:1;">
  <use xlink:href="#glyph0-6" x="564.225227" y="282.639359"/>
</g>
<g style="fill:rgb(0%,0%,0%);fill-opacity:1;">
  <use xlink:href="#glyph0-2" x="570.447351" y="282.639359"/>
</g>
<g style="fill:rgb(0%,0%,0%);fill-opacity:1;">
  <use xlink:href="#glyph0-8" x="582.34885" y="282.639359"/>
</g>
<g style="fill:rgb(0%,0%,0%);fill-opacity:1;">
  <use xlink:href="#glyph0-13" x="601.617943" y="282.639359"/>
</g>
<g style="fill:rgb(0%,0%,0%);fill-opacity:1;">
  <use xlink:href="#glyph0-14" x="618.017363" y="282.639359"/>
</g>
<g style="fill:rgb(0%,0%,0%);fill-opacity:1;">
  <use xlink:href="#glyph0-4" x="631.649062" y="282.639359"/>
</g>
<g style="fill:rgb(0%,0%,0%);fill-opacity:1;">
  <use xlink:href="#glyph0-15" x="643.787452" y="282.639359"/>
</g>
<g style="fill:rgb(0%,0%,0%);fill-opacity:1;">
  <use xlink:href="#glyph0-6" x="656.072773" y="282.639359"/>
</g>
<g style="fill:rgb(0%,0%,0%);fill-opacity:1;">
  <use xlink:href="#glyph0-11" x="662.294897" y="282.639359"/>
</g>
<g style="fill:rgb(0%,0%,0%);fill-opacity:1;">
  <use xlink:href="#glyph0-2" x="669.938364" y="282.639359"/>
</g>
<g style="fill:rgb(0%,0%,0%);fill-opacity:1;">
  <use xlink:href="#glyph0-16" x="681.839863" y="282.639359"/>
</g>
<g style="fill:rgb(0%,0%,0%);fill-opacity:1;">
  <use xlink:href="#glyph0-3" x="697.72652" y="282.639359"/>
</g>
<g style="fill:rgb(0%,0%,0%);fill-opacity:1;">
  <use xlink:href="#glyph0-4" x="704.620334" y="282.639359"/>
</g>
<g style="fill:rgb(0%,0%,0%);fill-opacity:1;">
  <use xlink:href="#glyph0-20" x="723.742495" y="282.639359"/>
</g>
<g style="fill:rgb(0%,0%,0%);fill-opacity:1;">
  <use xlink:href="#glyph0-6" x="736.027817" y="282.639359"/>
</g>
<g style="fill:rgb(0%,0%,0%);fill-opacity:1;">
  <use xlink:href="#glyph0-8" x="742.249941" y="282.639359"/>
</g>
<g style="fill:rgb(0%,0%,0%);fill-opacity:1;">
  <use xlink:href="#glyph0-23" x="754.535262" y="282.639359"/>
</g>
<g style="fill:rgb(0%,0%,0%);fill-opacity:1;">
  <use xlink:href="#glyph0-12" x="766.436761" y="282.639359"/>
</g>
<g style="fill:rgb(0%,0%,0%);fill-opacity:1;">
  <use xlink:href="#glyph0-2" x="778.722082" y="282.639359"/>
</g>
<g style="fill:rgb(0%,0%,0%);fill-opacity:1;">
  <use xlink:href="#glyph1-1" x="339.718998" y="314.724528"/>
</g>
<g style="fill:rgb(0%,0%,0%);fill-opacity:1;">
  <use xlink:href="#glyph1-2" x="347.869231" y="314.724528"/>
</g>
<g style="fill:rgb(0%,0%,0%);fill-opacity:1;">
  <use xlink:href="#glyph1-3" x="353.666551" y="314.724528"/>
</g>
<g style="fill:rgb(0%,0%,0%);fill-opacity:1;">
  <use xlink:href="#glyph1-4" x="361.700838" y="314.724528"/>
</g>
<g style="fill:rgb(0%,0%,0%);fill-opacity:1;">
  <use xlink:href="#glyph1-5" x="365.896898" y="314.724528"/>
</g>
<g style="fill:rgb(0%,0%,0%);fill-opacity:1;">
  <use xlink:href="#glyph1-6" x="373.831231" y="314.724528"/>
</g>
<g style="fill:rgb(0%,0%,0%);fill-opacity:1;">
  <use xlink:href="#glyph1-7" x="383.582724" y="314.724528"/>
</g>
<g style="fill:rgb(0%,0%,0%);fill-opacity:1;">
  <use xlink:href="#glyph1-5" x="391.772938" y="314.724528"/>
</g>
<g style="fill:rgb(0%,0%,0%);fill-opacity:1;">
  <use xlink:href="#glyph1-8" x="404.365118" y="314.724528"/>
</g>
<g style="fill:rgb(0%,0%,0%);fill-opacity:1;">
  <use xlink:href="#glyph1-9" x="413.716795" y="314.724528"/>
</g>
<g style="fill:rgb(0%,0%,0%);fill-opacity:1;">
  <use xlink:href="#glyph1-7" x="426.562857" y="314.724528"/>
</g>
<g style="fill:rgb(0%,0%,0%);fill-opacity:1;">
  <use xlink:href="#glyph1-10" x="434.753072" y="314.724528"/>
</g>
<g style="fill:rgb(0%,0%,0%);fill-opacity:1;">
  <use xlink:href="#glyph1-11" x="439.029095" y="314.724528"/>
</g>
<g style="fill:rgb(0%,0%,0%);fill-opacity:1;">
  <use xlink:href="#glyph1-6" x="446.963428" y="314.724528"/>
</g>
<g style="fill:rgb(0%,0%,0%);fill-opacity:1;">
  <use xlink:href="#glyph1-12" x="452.059072" y="314.724528"/>
</g>
<g style="fill:rgb(0%,0%,0%);fill-opacity:1;">
  <use xlink:href="#glyph1-7" x="460.249287" y="314.724528"/>
</g>
<g style="fill:rgb(0%,0%,0%);fill-opacity:1;">
  <use xlink:href="#glyph1-5" x="468.439501" y="314.724528"/>
</g>
<g style="fill:rgb(0%,0%,0%);fill-opacity:1;">
  <use xlink:href="#glyph1-13" x="476.373834" y="314.724528"/>
</g>
<g style="fill:rgb(0%,0%,0%);fill-opacity:1;">
  <use xlink:href="#glyph1-14" x="488.438257" y="314.724528"/>
</g>
<g style="fill:rgb(0%,0%,0%);fill-opacity:1;">
  <use xlink:href="#glyph1-15" x="499.371204" y="314.724528"/>
</g>
<g style="fill:rgb(0%,0%,0%);fill-opacity:1;">
  <use xlink:href="#glyph1-3" x="508.381039" y="314.724528"/>
</g>
<g style="fill:rgb(0%,0%,0%);fill-opacity:1;">
  <use xlink:href="#glyph1-16" x="516.415326" y="314.724528"/>
</g>
<g style="fill:rgb(0%,0%,0%);fill-opacity:1;">
  <use xlink:href="#glyph1-5" x="528.567709" y="314.724528"/>
</g>
<g style="fill:rgb(0%,0%,0%);fill-opacity:1;">
  <use xlink:href="#glyph1-13" x="536.502041" y="314.724528"/>
</g>
<g style="fill:rgb(0%,0%,0%);fill-opacity:1;">
  <use xlink:href="#glyph1-6" x="543.910617" y="314.724528"/>
</g>
<g style="fill:rgb(0%,0%,0%);fill-opacity:1;">
  <use xlink:href="#glyph1-17" x="549.006262" y="314.724528"/>
</g>
<g style="fill:rgb(0%,0%,0%);fill-opacity:1;">
  <use xlink:href="#glyph1-18" x="553.154344" y="314.724528"/>
</g>
<g style="fill:rgb(0%,0%,0%);fill-opacity:1;">
  <use xlink:href="#glyph1-17" x="560.846789" y="314.724528"/>
</g>
<g style="fill:rgb(0%,0%,0%);fill-opacity:1;">
  <use xlink:href="#glyph1-6" x="564.994871" y="314.724528"/>
</g>
<g style="fill:rgb(0%,0%,0%);fill-opacity:1;">
  <use xlink:href="#glyph1-11" x="570.090516" y="314.724528"/>
</g>
<g style="fill:rgb(0%,0%,0%);fill-opacity:1;">
  <use xlink:href="#glyph1-14" x="582.682696" y="314.724528"/>
</g>
<g style="fill:rgb(0%,0%,0%);fill-opacity:1;">
  <use xlink:href="#glyph1-19" x="593.615642" y="314.724528"/>
</g>
<g style="fill:rgb(0%,0%,0%);fill-opacity:1;">
  <use xlink:href="#glyph1-3" x="602.409578" y="314.724528"/>
</g>
<g style="fill:rgb(0%,0%,0%);fill-opacity:1;">
  <use xlink:href="#glyph1-12" x="610.443864" y="314.724528"/>
</g>
<g style="fill:rgb(0%,0%,0%);fill-opacity:1;">
  <use xlink:href="#glyph1-6" x="618.634078" y="314.724528"/>
</g>
<g style="fill:rgb(0%,0%,0%);fill-opacity:1;">
  <use xlink:href="#glyph1-5" x="623.729723" y="314.724528"/>
</g>
<g style="fill:rgb(0%,0%,0%);fill-opacity:1;">
  <use xlink:href="#glyph1-9" x="631.664056" y="314.724528"/>
</g>
<g style="fill:rgb(0%,0%,0%);fill-opacity:1;">
  <use xlink:href="#glyph1-20" x="639.85427" y="314.724528"/>
</g>
<g style="fill:rgb(0%,0%,0%);fill-opacity:1;">
  <use xlink:href="#glyph1-9" x="647.946529" y="314.724528"/>
</g>
<g style="fill:rgb(0%,0%,0%);fill-opacity:1;">
  <use xlink:href="#glyph1-18" x="656.136744" y="314.724528"/>
</g>
<g style="fill:rgb(0%,0%,0%);fill-opacity:1;">
  <use xlink:href="#glyph1-5" x="663.829188" y="314.724528"/>
</g>
<g style="fill:rgb(0%,0%,0%);fill-opacity:1;">
  <use xlink:href="#glyph1-5" x="676.421368" y="314.724528"/>
</g>
<g style="fill:rgb(0%,0%,0%);fill-opacity:1;">
  <use xlink:href="#glyph1-9" x="684.3557" y="314.724528"/>
</g>
<g style="fill:rgb(0%,0%,0%);fill-opacity:1;">
  <use xlink:href="#glyph1-4" x="697.201763" y="314.724528"/>
</g>
<g style="fill:rgb(0%,0%,0%);fill-opacity:1;">
  <use xlink:href="#glyph1-12" x="701.397823" y="314.724528"/>
</g>
<g style="fill:rgb(0%,0%,0%);fill-opacity:1;">
  <use xlink:href="#glyph1-17" x="709.588038" y="314.724528"/>
</g>
<g style="fill:rgb(0%,0%,0%);fill-opacity:1;">
  <use xlink:href="#glyph1-9" x="713.73612" y="314.724528"/>
</g>
<g style="fill:rgb(0%,0%,0%);fill-opacity:1;">
  <use xlink:href="#glyph1-21" x="726.582183" y="314.724528"/>
</g>
<g style="fill:rgb(0%,0%,0%);fill-opacity:1;">
  <use xlink:href="#glyph1-22" x="734.936321" y="314.724528"/>
</g>
<g style="fill:rgb(0%,0%,0%);fill-opacity:1;">
  <use xlink:href="#glyph1-21" x="743.29046" y="314.724528"/>
</g>
<g style="fill:rgb(0%,0%,0%);fill-opacity:1;">
  <use xlink:href="#glyph1-23" x="751.644598" y="314.724528"/>
</g>
<g style="fill:rgb(0%,0%,0%);fill-opacity:1;">
  <use xlink:href="#glyph1-15" x="339.718998" y="341.951943"/>
</g>
<g style="fill:rgb(0%,0%,0%);fill-opacity:1;">
  <use xlink:href="#glyph1-17" x="348.728834" y="341.951943"/>
</g>
<g style="fill:rgb(0%,0%,0%);fill-opacity:1;">
  <use xlink:href="#glyph1-2" x="352.876916" y="341.951943"/>
</g>
<g style="fill:rgb(0%,0%,0%);fill-opacity:1;">
  <use xlink:href="#glyph1-5" x="358.674237" y="341.951943"/>
</g>
<g style="fill:rgb(0%,0%,0%);fill-opacity:1;">
  <use xlink:href="#glyph1-18" x="366.608569" y="341.951943"/>
</g>
<g style="fill:rgb(0%,0%,0%);fill-opacity:1;">
  <use xlink:href="#glyph1-6" x="374.301014" y="341.951943"/>
</g>
<g style="fill:rgb(0%,0%,0%);fill-opacity:1;">
  <use xlink:href="#glyph1-5" x="379.396658" y="341.951943"/>
</g>
<g style="fill:rgb(0%,0%,0%);fill-opacity:1;">
  <use xlink:href="#glyph1-12" x="387.330991" y="341.951943"/>
</g>
<g style="fill:rgb(0%,0%,0%);fill-opacity:1;">
  <use xlink:href="#glyph1-2" x="395.521205" y="341.951943"/>
</g>
<g style="fill:rgb(0%,0%,0%);fill-opacity:1;">
  <use xlink:href="#glyph1-13" x="401.456462" y="341.951943"/>
</g>
<g style="fill:rgb(0%,0%,0%);fill-opacity:1;">
  <use xlink:href="#glyph1-7" x="413.520886" y="341.951943"/>
</g>
<g style="fill:rgb(0%,0%,0%);fill-opacity:1;">
  <use xlink:href="#glyph1-10" x="421.7111" y="341.951943"/>
</g>
<g style="fill:rgb(0%,0%,0%);fill-opacity:1;">
  <use xlink:href="#glyph1-11" x="425.987123" y="341.951943"/>
</g>
<g style="fill:rgb(0%,0%,0%);fill-opacity:1;">
  <use xlink:href="#glyph1-6" x="433.921456" y="341.951943"/>
</g>
<g style="fill:rgb(0%,0%,0%);fill-opacity:1;">
  <use xlink:href="#glyph1-12" x="439.017101" y="341.951943"/>
</g>
<g style="fill:rgb(0%,0%,0%);fill-opacity:1;">
  <use xlink:href="#glyph1-7" x="447.207315" y="341.951943"/>
</g>
<g style="fill:rgb(0%,0%,0%);fill-opacity:1;">
  <use xlink:href="#glyph1-5" x="455.397529" y="341.951943"/>
</g>
<g style="fill:rgb(0%,0%,0%);fill-opacity:1;">
  <use xlink:href="#glyph1-13" x="463.331862" y="341.951943"/>
</g>
<g style="fill:rgb(0%,0%,0%);fill-opacity:1;">
  <use xlink:href="#glyph1-24" x="475.396286" y="341.951943"/>
</g>
<g style="fill:rgb(0%,0%,0%);fill-opacity:1;">
  <use xlink:href="#glyph1-25" x="484.142243" y="341.951943"/>
</g>
<g style="fill:rgb(0%,0%,0%);fill-opacity:1;">
  <use xlink:href="#glyph1-26" x="495.992765" y="341.951943"/>
</g>
<g style="fill:rgb(0%,0%,0%);fill-opacity:1;">
  <use xlink:href="#glyph1-15" x="504.846673" y="341.951943"/>
</g>
<g style="fill:rgb(0%,0%,0%);fill-opacity:1;">
  <use xlink:href="#glyph1-27" x="513.300765" y="341.951943"/>
</g>
<g style="fill:rgb(0%,0%,0%);fill-opacity:1;">
  <use xlink:href="#glyph1-28" x="521.568944" y="341.951943"/>
</g>
<g style="fill:rgb(0%,0%,0%);fill-opacity:1;">
  <use xlink:href="#glyph1-29" x="530.656743" y="341.951943"/>
</g>
<g style="fill:rgb(0%,0%,0%);fill-opacity:1;">
  <use xlink:href="#glyph1-30" x="539.470669" y="341.951943"/>
</g>
<g style="fill:rgb(0%,0%,0%);fill-opacity:1;">
  <use xlink:href="#glyph1-32" x="339.718998" y="370.92855"/>
</g>
<g style="fill:rgb(0%,0%,0%);fill-opacity:1;">
  <use xlink:href="#glyph1-33" x="347.605353" y="370.92855"/>
</g>
<g style="fill:rgb(0%,0%,0%);fill-opacity:1;">
  <use xlink:href="#glyph1-19" x="357.336855" y="370.92855"/>
</g>
<g style="fill:rgb(0%,0%,0%);fill-opacity:1;">
  <use xlink:href="#glyph1-27" x="365.730975" y="370.92855"/>
</g>
<g style="fill:rgb(0%,0%,0%);fill-opacity:1;">
  <use xlink:href="#glyph1-25" x="378.655001" y="370.92855"/>
</g>
<g style="fill:rgb(0%,0%,0%);fill-opacity:1;">
  <use xlink:href="#glyph1-3" x="390.505524" y="370.92855"/>
</g>
<g style="fill:rgb(0%,0%,0%);fill-opacity:1;">
  <use xlink:href="#glyph1-9" x="398.53981" y="370.92855"/>
</g>
<g style="fill:rgb(0%,0%,0%);fill-opacity:1;">
  <use xlink:href="#glyph1-6" x="406.730024" y="370.92855"/>
</g>
<g style="fill:rgb(0%,0%,0%);fill-opacity:1;">
  <use xlink:href="#glyph1-34" x="411.825669" y="370.92855"/>
</g>
<g style="fill:rgb(0%,0%,0%);fill-opacity:1;">
  <use xlink:href="#glyph1-5" x="420.015883" y="370.92855"/>
</g>
<g style="fill:rgb(0%,0%,0%);fill-opacity:1;">
  <use xlink:href="#glyph1-35" x="427.950216" y="370.92855"/>
</g>
<g style="fill:rgb(0%,0%,0%);fill-opacity:1;">
  <use xlink:href="#glyph1-35" x="432.546092" y="370.92855"/>
</g>
<g style="fill:rgb(0%,0%,0%);fill-opacity:1;">
  <use xlink:href="#glyph1-17" x="437.141967" y="370.92855"/>
</g>
<g style="fill:rgb(0%,0%,0%);fill-opacity:1;">
  <use xlink:href="#glyph1-5" x="441.29005" y="370.92855"/>
</g>
<g style="fill:rgb(0%,0%,0%);fill-opacity:1;">
  <use xlink:href="#glyph1-2" x="449.224383" y="370.92855"/>
</g>
<g style="fill:rgb(0%,0%,0%);fill-opacity:1;">
  <use xlink:href="#glyph1-21" x="459.815487" y="370.92855"/>
</g>
<g style="fill:rgb(0%,0%,0%);fill-opacity:1;">
  <use xlink:href="#glyph1-22" x="468.169626" y="370.92855"/>
</g>
<g style="fill:rgb(0%,0%,0%);fill-opacity:1;">
  <use xlink:href="#glyph1-21" x="476.523764" y="370.92855"/>
</g>
<g style="fill:rgb(0%,0%,0%);fill-opacity:1;">
  <use xlink:href="#glyph1-23" x="484.877903" y="370.92855"/>
</g>
<path style="fill:none;stroke-width:0.01;stroke-linecap:round;stroke-linejoin:round;stroke:rgb(100%,0%,0%);stroke-opacity:1;stroke-miterlimit:10;" d="M 1294.471952 1561.318877 L 1284.279744 1526.408217 " transform="matrix(0.999538,0,0,-0.999538,0.641726,1643.480351)"/>
<path style="fill:none;stroke-width:0.01;stroke-linecap:round;stroke-linejoin:round;stroke:rgb(100%,0%,0%);stroke-opacity:1;stroke-miterlimit:10;" d="M 1294.471952 1561.318877 L 1304.648529 1526.408217 " transform="matrix(0.999538,0,0,-0.999538,0.641726,1643.480351)"/>
<path style="fill:none;stroke-width:0.01;stroke-linecap:round;stroke-linejoin:round;stroke:rgb(100%,0%,0%);stroke-opacity:1;stroke-miterlimit:10;" d="M 1284.279744 1526.408217 L 1294.471952 1534.04065 " transform="matrix(0.999538,0,0,-0.999538,0.641726,1643.480351)"/>
<path style="fill:none;stroke-width:0.01;stroke-linecap:round;stroke-linejoin:round;stroke:rgb(100%,0%,0%);stroke-opacity:1;stroke-miterlimit:10;" d="M 1304.648529 1526.408217 L 1294.471952 1534.04065 " transform="matrix(0.999538,0,0,-0.999538,0.641726,1643.480351)"/>
<path style="fill:none;stroke-width:0.01;stroke-linecap:round;stroke-linejoin:round;stroke:rgb(100%,0%,0%);stroke-opacity:1;stroke-miterlimit:10;" d="M 1285.159056 1497.089985 L 1285.159056 1520.190501 " transform="matrix(0.999538,0,0,-0.999538,0.641726,1643.480351)"/>
<path style="fill:none;stroke-width:0.01;stroke-linecap:round;stroke-linejoin:round;stroke:rgb(100%,0%,0%);stroke-opacity:1;stroke-miterlimit:10;" d="M 1285.159056 1520.190501 L 1289.688492 1520.190501 " transform="matrix(0.999538,0,0,-0.999538,0.641726,1643.480351)"/>
<path style="fill:none;stroke-width:0.01;stroke-linecap:round;stroke-linejoin:round;stroke:rgb(100%,0%,0%);stroke-opacity:1;stroke-miterlimit:10;" d="M 1289.688492 1520.190501 L 1299.22024 1504.769314 " transform="matrix(0.999538,0,0,-0.999538,0.641726,1643.480351)"/>
<path style="fill:none;stroke-width:0.01;stroke-linecap:round;stroke-linejoin:round;stroke:rgb(100%,0%,0%);stroke-opacity:1;stroke-miterlimit:10;" d="M 1299.22024 1504.769314 L 1299.22024 1520.190501 " transform="matrix(0.999538,0,0,-0.999538,0.641726,1643.480351)"/>
<path style="fill:none;stroke-width:0.01;stroke-linecap:round;stroke-linejoin:round;stroke:rgb(100%,0%,0%);stroke-opacity:1;stroke-miterlimit:10;" d="M 1299.22024 1520.190501 L 1303.519101 1520.190501 " transform="matrix(0.999538,0,0,-0.999538,0.641726,1643.480351)"/>
<path style="fill:none;stroke-width:0.01;stroke-linecap:round;stroke-linejoin:round;stroke:rgb(100%,0%,0%);stroke-opacity:1;stroke-miterlimit:10;" d="M 1303.519101 1520.190501 L 1303.519101 1497.089985 " transform="matrix(0.999538,0,0,-0.999538,0.641726,1643.480351)"/>
<path style="fill:none;stroke-width:0.01;stroke-linecap:round;stroke-linejoin:round;stroke:rgb(100%,0%,0%);stroke-opacity:1;stroke-miterlimit:10;" d="M 1303.519101 1497.089985 L 1298.848975 1497.109525 " transform="matrix(0.999538,0,0,-0.999538,0.641726,1643.480351)"/>
<path style="fill:none;stroke-width:0.01;stroke-linecap:round;stroke-linejoin:round;stroke:rgb(100%,0%,0%);stroke-opacity:1;stroke-miterlimit:10;" d="M 1298.848975 1497.109525 L 1289.571251 1512.128182 " transform="matrix(0.999538,0,0,-0.999538,0.641726,1643.480351)"/>
<path style="fill:none;stroke-width:0.01;stroke-linecap:round;stroke-linejoin:round;stroke:rgb(100%,0%,0%);stroke-opacity:1;stroke-miterlimit:10;" d="M 1289.571251 1512.128182 L 1289.571251 1497.089985 " transform="matrix(0.999538,0,0,-0.999538,0.641726,1643.480351)"/>
<path style="fill:none;stroke-width:0.01;stroke-linecap:round;stroke-linejoin:round;stroke:rgb(100%,0%,0%);stroke-opacity:1;stroke-miterlimit:10;" d="M 1289.571251 1497.089985 L 1285.159056 1497.089985 " transform="matrix(0.999538,0,0,-0.999538,0.641726,1643.480351)"/>
<path style="fill:none;stroke-width:0.01;stroke-linecap:round;stroke-linejoin:round;stroke:rgb(100%,0%,0%);stroke-opacity:1;stroke-miterlimit:10;" d="M 1294.471952 1376.401413 L 1284.279744 1341.490753 " transform="matrix(0.999538,0,0,-0.999538,0.641726,1643.480351)"/>
<path style="fill:none;stroke-width:0.01;stroke-linecap:round;stroke-linejoin:round;stroke:rgb(100%,0%,0%);stroke-opacity:1;stroke-miterlimit:10;" d="M 1294.471952 1376.401413 L 1304.648529 1341.490753 " transform="matrix(0.999538,0,0,-0.999538,0.641726,1643.480351)"/>
<path style="fill:none;stroke-width:0.01;stroke-linecap:round;stroke-linejoin:round;stroke:rgb(100%,0%,0%);stroke-opacity:1;stroke-miterlimit:10;" d="M 1284.279744 1341.490753 L 1294.471952 1349.119277 " transform="matrix(0.999538,0,0,-0.999538,0.641726,1643.480351)"/>
<path style="fill:none;stroke-width:0.01;stroke-linecap:round;stroke-linejoin:round;stroke:rgb(100%,0%,0%);stroke-opacity:1;stroke-miterlimit:10;" d="M 1304.648529 1341.490753 L 1294.471952 1349.119277 " transform="matrix(0.999538,0,0,-0.999538,0.641726,1643.480351)"/>
<path style="fill:none;stroke-width:0.01;stroke-linecap:round;stroke-linejoin:round;stroke:rgb(100%,0%,0%);stroke-opacity:1;stroke-miterlimit:10;" d="M 1285.159056 1312.168612 L 1285.159056 1335.269129 " transform="matrix(0.999538,0,0,-0.999538,0.641726,1643.480351)"/>
<path style="fill:none;stroke-width:0.01;stroke-linecap:round;stroke-linejoin:round;stroke:rgb(100%,0%,0%);stroke-opacity:1;stroke-miterlimit:10;" d="M 1285.159056 1335.269129 L 1289.688492 1335.269129 " transform="matrix(0.999538,0,0,-0.999538,0.641726,1643.480351)"/>
<path style="fill:none;stroke-width:0.01;stroke-linecap:round;stroke-linejoin:round;stroke:rgb(100%,0%,0%);stroke-opacity:1;stroke-miterlimit:10;" d="M 1289.688492 1335.269129 L 1299.22024 1319.851849 " transform="matrix(0.999538,0,0,-0.999538,0.641726,1643.480351)"/>
<path style="fill:none;stroke-width:0.01;stroke-linecap:round;stroke-linejoin:round;stroke:rgb(100%,0%,0%);stroke-opacity:1;stroke-miterlimit:10;" d="M 1299.22024 1319.851849 L 1299.22024 1335.269129 " transform="matrix(0.999538,0,0,-0.999538,0.641726,1643.480351)"/>
<path style="fill:none;stroke-width:0.01;stroke-linecap:round;stroke-linejoin:round;stroke:rgb(100%,0%,0%);stroke-opacity:1;stroke-miterlimit:10;" d="M 1299.22024 1335.269129 L 1303.519101 1335.269129 " transform="matrix(0.999538,0,0,-0.999538,0.641726,1643.480351)"/>
<path style="fill:none;stroke-width:0.01;stroke-linecap:round;stroke-linejoin:round;stroke:rgb(100%,0%,0%);stroke-opacity:1;stroke-miterlimit:10;" d="M 1303.519101 1335.269129 L 1303.519101 1312.168612 " transform="matrix(0.999538,0,0,-0.999538,0.641726,1643.480351)"/>
<path style="fill:none;stroke-width:0.01;stroke-linecap:round;stroke-linejoin:round;stroke:rgb(100%,0%,0%);stroke-opacity:1;stroke-miterlimit:10;" d="M 1303.519101 1312.168612 L 1298.848975 1312.188153 " transform="matrix(0.999538,0,0,-0.999538,0.641726,1643.480351)"/>
<path style="fill:none;stroke-width:0.01;stroke-linecap:round;stroke-linejoin:round;stroke:rgb(100%,0%,0%);stroke-opacity:1;stroke-miterlimit:10;" d="M 1298.848975 1312.188153 L 1289.571251 1327.210718 " transform="matrix(0.999538,0,0,-0.999538,0.641726,1643.480351)"/>
<path style="fill:none;stroke-width:0.01;stroke-linecap:round;stroke-linejoin:round;stroke:rgb(100%,0%,0%);stroke-opacity:1;stroke-miterlimit:10;" d="M 1289.571251 1327.210718 L 1289.571251 1312.168612 " transform="matrix(0.999538,0,0,-0.999538,0.641726,1643.480351)"/>
<path style="fill:none;stroke-width:0.01;stroke-linecap:round;stroke-linejoin:round;stroke:rgb(100%,0%,0%);stroke-opacity:1;stroke-miterlimit:10;" d="M 1289.571251 1312.168612 L 1285.159056 1312.168612 " transform="matrix(0.999538,0,0,-0.999538,0.641726,1643.480351)"/>
</g>
</svg>
