<?xml version="1.0" encoding="UTF-8" standalone="no"?>
<!-- Created with Inkscape (http://www.inkscape.org/) -->

<svg
   width="1000mm"
   height="600mm"
   viewBox="0 0 1000 600"
   version="1.1"
   id="svg1"
   sodipodi:docname="fichier.svg"
   xml:space="preserve"
   inkscape:version="1.4.4 (dcaf3e7, 2026-05-05)"
   xmlns:inkscape="http://www.inkscape.org/namespaces/inkscape"
   xmlns:sodipodi="http://sodipodi.sourceforge.net/DTD/sodipodi-0.dtd"
   xmlns="http://www.w3.org/2000/svg"
   xmlns:svg="http://www.w3.org/2000/svg"><sodipodi:namedview
     id="namedview1"
     pagecolor="#ffffff"
     bordercolor="#eeeeee"
     borderopacity="1"
     inkscape:showpageshadow="0"
     inkscape:pageopacity="0"
     inkscape:pagecheckerboard="0"
     inkscape:deskcolor="#d1d1d1"
     inkscape:document-units="mm"
     inkscape:zoom="0.21781355"
     inkscape:cx="2341.4521"
     inkscape:cy="1202.8636"
     inkscape:window-width="1366"
     inkscape:window-height="768"
     inkscape:window-x="0"
     inkscape:window-y="0"
     inkscape:window-maximized="1"
     inkscape:current-layer="svg1" /><defs
     id="defs1"><g
       id="g17"><symbol
         overflow="visible"
         id="glyph0-0"><path
           style="stroke:none;"
           d=""
           id="path1" /></symbol><symbol
         overflow="visible"
         id="glyph0-1"><path
           style="stroke:none;"
           d="M 1.640625 -1.125 L 1.640625 -1.453125 L 2.859375 -1.46875 L 2.859375 -0.40625 C 2.671875 -0.25 2.484375 -0.140625 2.28125 -0.0625 C 2.078125 0.015625 1.890625 0.046875 1.671875 0.046875 C 1.390625 0.046875 1.140625 -0.015625 0.90625 -0.125 C 0.671875 -0.25 0.5 -0.421875 0.390625 -0.65625 C 0.265625 -0.890625 0.21875 -1.140625 0.21875 -1.421875 C 0.21875 -1.703125 0.265625 -1.953125 0.390625 -2.203125 C 0.5 -2.4375 0.671875 -2.625 0.890625 -2.734375 C 1.109375 -2.859375 1.359375 -2.90625 1.640625 -2.90625 C 1.859375 -2.90625 2.046875 -2.875 2.203125 -2.8125 C 2.375 -2.75 2.5 -2.65625 2.59375 -2.53125 C 2.703125 -2.421875 2.765625 -2.265625 2.8125 -2.0625 L 2.46875 -1.96875 C 2.4375 -2.125 2.375 -2.234375 2.3125 -2.3125 C 2.25 -2.40625 2.15625 -2.46875 2.046875 -2.515625 C 1.921875 -2.5625 1.796875 -2.59375 1.640625 -2.59375 C 1.46875 -2.59375 1.328125 -2.5625 1.203125 -2.515625 C 1.078125 -2.453125 0.96875 -2.390625 0.890625 -2.296875 C 0.8125 -2.21875 0.75 -2.125 0.71875 -2.015625 C 0.640625 -1.84375 0.59375 -1.65625 0.59375 -1.4375 C 0.59375 -1.1875 0.640625 -0.96875 0.734375 -0.796875 C 0.8125 -0.625 0.953125 -0.5 1.109375 -0.421875 C 1.28125 -0.34375 1.46875 -0.296875 1.65625 -0.296875 C 1.8125 -0.296875 1.96875 -0.328125 2.125 -0.390625 C 2.28125 -0.453125 2.40625 -0.515625 2.484375 -0.59375 L 2.484375 -1.125 Z M 1.640625 -1.125 "
           id="path2" /></symbol><symbol
         overflow="visible"
         id="glyph0-2"><path
           style="stroke:none;"
           d="M 0.171875 -0.921875 L 0.53125 -0.953125 C 0.546875 -0.8125 0.59375 -0.6875 0.65625 -0.59375 C 0.71875 -0.515625 0.8125 -0.4375 0.9375 -0.375 C 1.078125 -0.3125 1.21875 -0.296875 1.375 -0.296875 C 1.53125 -0.296875 1.65625 -0.3125 1.765625 -0.359375 C 1.875 -0.40625 1.953125 -0.453125 2.015625 -0.53125 C 2.0625 -0.609375 2.09375 -0.6875 2.09375 -0.78125 C 2.09375 -0.875 2.0625 -0.9375 2.015625 -1.015625 C 1.953125 -1.078125 1.875 -1.140625 1.75 -1.1875 C 1.6875 -1.21875 1.515625 -1.265625 1.25 -1.3125 C 0.984375 -1.390625 0.796875 -1.4375 0.6875 -1.5 C 0.5625 -1.578125 0.453125 -1.65625 0.390625 -1.765625 C 0.3125 -1.875 0.28125 -1.984375 0.28125 -2.125 C 0.28125 -2.265625 0.328125 -2.40625 0.40625 -2.53125 C 0.484375 -2.65625 0.609375 -2.75 0.765625 -2.8125 C 0.921875 -2.875 1.109375 -2.90625 1.296875 -2.90625 C 1.515625 -2.90625 1.703125 -2.875 1.859375 -2.8125 C 2.015625 -2.75 2.140625 -2.640625 2.234375 -2.515625 C 2.3125 -2.375 2.359375 -2.21875 2.375 -2.0625 L 2.015625 -2.03125 C 1.984375 -2.21875 1.921875 -2.34375 1.8125 -2.4375 C 1.703125 -2.53125 1.53125 -2.578125 1.3125 -2.578125 C 1.078125 -2.578125 0.921875 -2.546875 0.8125 -2.453125 C 0.703125 -2.375 0.65625 -2.265625 0.65625 -2.15625 C 0.65625 -2.046875 0.6875 -1.96875 0.765625 -1.890625 C 0.84375 -1.828125 1.03125 -1.765625 1.34375 -1.6875 C 1.640625 -1.625 1.859375 -1.5625 1.96875 -1.515625 C 2.140625 -1.4375 2.265625 -1.34375 2.34375 -1.21875 C 2.421875 -1.09375 2.453125 -0.96875 2.453125 -0.8125 C 2.453125 -0.65625 2.40625 -0.515625 2.328125 -0.375 C 2.234375 -0.25 2.109375 -0.140625 1.953125 -0.0625 C 1.78125 0.015625 1.609375 0.046875 1.40625 0.046875 C 1.140625 0.046875 0.921875 0.015625 0.75 -0.0625 C 0.578125 -0.140625 0.4375 -0.25 0.34375 -0.40625 C 0.234375 -0.5625 0.1875 -0.734375 0.171875 -0.921875 Z M 0.171875 -0.921875 "
           id="path3" /></symbol><symbol
         overflow="visible"
         id="glyph0-3"><path
           style="stroke:none;"
           d="M 0.3125 0 L 0.3125 -2.859375 L 2.390625 -2.859375 L 2.390625 -2.53125 L 0.6875 -2.53125 L 0.6875 -1.640625 L 2.28125 -1.640625 L 2.28125 -1.3125 L 0.6875 -1.3125 L 0.6875 -0.34375 L 2.453125 -0.34375 L 2.453125 0 Z M 0.3125 0 "
           id="path4" /></symbol><symbol
         overflow="visible"
         id="glyph0-4"><path
           style="stroke:none;"
           d="M 1.609375 0 L 1.609375 -0.265625 C 1.46875 -0.046875 1.28125 0.046875 1.03125 0.046875 C 0.859375 0.046875 0.703125 0 0.578125 -0.09375 C 0.4375 -0.1875 0.328125 -0.3125 0.25 -0.46875 C 0.171875 -0.640625 0.140625 -0.828125 0.140625 -1.03125 C 0.140625 -1.25 0.171875 -1.4375 0.234375 -1.59375 C 0.3125 -1.765625 0.40625 -1.890625 0.546875 -1.984375 C 0.6875 -2.078125 0.84375 -2.125 1.015625 -2.125 C 1.140625 -2.125 1.25 -2.09375 1.34375 -2.046875 C 1.4375 -1.984375 1.53125 -1.921875 1.578125 -1.828125 L 1.578125 -2.859375 L 1.9375 -2.859375 L 1.9375 0 Z M 0.5 -1.03125 C 0.5 -0.765625 0.546875 -0.578125 0.65625 -0.4375 C 0.78125 -0.3125 0.90625 -0.25 1.0625 -0.25 C 1.21875 -0.25 1.34375 -0.3125 1.453125 -0.4375 C 1.5625 -0.5625 1.609375 -0.75 1.609375 -1.015625 C 1.609375 -1.296875 1.5625 -1.5 1.453125 -1.625 C 1.34375 -1.765625 1.203125 -1.828125 1.046875 -1.828125 C 0.890625 -1.828125 0.765625 -1.765625 0.65625 -1.640625 C 0.546875 -1.515625 0.5 -1.3125 0.5 -1.03125 Z M 0.5 -1.03125 "
           id="path5" /></symbol><symbol
         overflow="visible"
         id="glyph0-5"><path
           style="stroke:none;"
           d="M 1.625 0 L 1.625 -0.296875 C 1.453125 -0.0625 1.234375 0.046875 0.96875 0.046875 C 0.84375 0.046875 0.734375 0.03125 0.625 -0.015625 C 0.515625 -0.0625 0.4375 -0.125 0.390625 -0.203125 C 0.328125 -0.265625 0.296875 -0.359375 0.28125 -0.453125 C 0.265625 -0.53125 0.25 -0.640625 0.25 -0.78125 L 0.25 -2.078125 L 0.609375 -2.078125 L 0.609375 -0.921875 C 0.609375 -0.734375 0.609375 -0.609375 0.625 -0.546875 C 0.640625 -0.453125 0.703125 -0.390625 0.765625 -0.328125 C 0.84375 -0.28125 0.921875 -0.25 1.03125 -0.25 C 1.140625 -0.25 1.234375 -0.28125 1.328125 -0.34375 C 1.421875 -0.390625 1.484375 -0.46875 1.53125 -0.5625 C 1.5625 -0.640625 1.578125 -0.78125 1.578125 -0.96875 L 1.578125 -2.078125 L 1.9375 -2.078125 L 1.9375 0 Z M 1.625 0 "
           id="path6" /></symbol><symbol
         overflow="visible"
         id="glyph0-6"><path
           style="stroke:none;"
           d="M 1.609375 -0.765625 L 1.953125 -0.71875 C 1.921875 -0.46875 1.828125 -0.28125 1.671875 -0.15625 C 1.515625 -0.015625 1.328125 0.046875 1.09375 0.046875 C 0.8125 0.046875 0.578125 -0.046875 0.40625 -0.234375 C 0.234375 -0.421875 0.15625 -0.6875 0.15625 -1.03125 C 0.15625 -1.25 0.1875 -1.453125 0.265625 -1.625 C 0.34375 -1.78125 0.453125 -1.90625 0.609375 -2 C 0.75 -2.078125 0.921875 -2.125 1.09375 -2.125 C 1.328125 -2.125 1.515625 -2.0625 1.65625 -1.953125 C 1.796875 -1.84375 1.890625 -1.671875 1.921875 -1.46875 L 1.578125 -1.40625 C 1.546875 -1.546875 1.5 -1.65625 1.40625 -1.71875 C 1.328125 -1.796875 1.234375 -1.828125 1.109375 -1.828125 C 0.9375 -1.828125 0.796875 -1.765625 0.6875 -1.640625 C 0.578125 -1.515625 0.515625 -1.3125 0.515625 -1.046875 C 0.515625 -0.765625 0.5625 -0.5625 0.671875 -0.4375 C 0.78125 -0.3125 0.921875 -0.25 1.09375 -0.25 C 1.234375 -0.25 1.34375 -0.28125 1.4375 -0.375 C 1.53125 -0.453125 1.59375 -0.578125 1.609375 -0.765625 Z M 1.609375 -0.765625 "
           id="path7" /></symbol><symbol
         overflow="visible"
         id="glyph0-7"><path
           style="stroke:none;"
           d="M 1.609375 -0.25 C 1.484375 -0.140625 1.359375 -0.0625 1.234375 -0.015625 C 1.125 0.03125 0.984375 0.046875 0.859375 0.046875 C 0.625 0.046875 0.453125 -0.015625 0.328125 -0.125 C 0.203125 -0.234375 0.140625 -0.375 0.140625 -0.546875 C 0.140625 -0.640625 0.15625 -0.734375 0.21875 -0.828125 C 0.265625 -0.90625 0.3125 -0.96875 0.390625 -1.03125 C 0.46875 -1.078125 0.546875 -1.109375 0.640625 -1.140625 C 0.71875 -1.15625 0.8125 -1.1875 0.953125 -1.203125 C 1.25 -1.234375 1.453125 -1.265625 1.578125 -1.3125 C 1.59375 -1.359375 1.59375 -1.390625 1.59375 -1.40625 C 1.59375 -1.546875 1.5625 -1.65625 1.484375 -1.71875 C 1.40625 -1.796875 1.265625 -1.828125 1.09375 -1.828125 C 0.921875 -1.828125 0.796875 -1.796875 0.71875 -1.75 C 0.640625 -1.6875 0.578125 -1.578125 0.546875 -1.4375 L 0.203125 -1.484375 C 0.234375 -1.625 0.28125 -1.75 0.359375 -1.84375 C 0.421875 -1.9375 0.53125 -2 0.671875 -2.046875 C 0.796875 -2.09375 0.953125 -2.125 1.140625 -2.125 C 1.3125 -2.125 1.453125 -2.109375 1.578125 -2.0625 C 1.6875 -2.015625 1.765625 -1.96875 1.8125 -1.90625 C 1.875 -1.84375 1.90625 -1.765625 1.921875 -1.65625 C 1.9375 -1.609375 1.9375 -1.5 1.9375 -1.34375 L 1.9375 -0.875 C 1.9375 -0.546875 1.953125 -0.34375 1.96875 -0.25 C 1.984375 -0.15625 2.015625 -0.078125 2.046875 0 L 1.6875 0 C 1.640625 -0.078125 1.625 -0.15625 1.609375 -0.25 Z M 1.578125 -1.046875 C 1.453125 -0.984375 1.265625 -0.953125 1.015625 -0.90625 C 0.875 -0.890625 0.765625 -0.859375 0.703125 -0.84375 C 0.640625 -0.8125 0.59375 -0.765625 0.5625 -0.71875 C 0.53125 -0.671875 0.515625 -0.609375 0.515625 -0.5625 C 0.515625 -0.453125 0.546875 -0.375 0.625 -0.3125 C 0.703125 -0.25 0.796875 -0.21875 0.9375 -0.21875 C 1.078125 -0.21875 1.1875 -0.25 1.296875 -0.3125 C 1.40625 -0.375 1.484375 -0.453125 1.53125 -0.5625 C 1.5625 -0.640625 1.578125 -0.75 1.578125 -0.90625 Z M 1.578125 -1.046875 "
           id="path8" /></symbol><symbol
         overflow="visible"
         id="glyph0-8"><path
           style="stroke:none;"
           d="M 1.03125 -0.3125 L 1.078125 0 C 0.984375 0.015625 0.890625 0.03125 0.8125 0.03125 C 0.6875 0.03125 0.59375 0.015625 0.515625 -0.03125 C 0.453125 -0.078125 0.390625 -0.125 0.375 -0.1875 C 0.34375 -0.25 0.328125 -0.390625 0.328125 -0.609375 L 0.328125 -1.796875 L 0.0625 -1.796875 L 0.0625 -2.078125 L 0.328125 -2.078125 L 0.328125 -2.59375 L 0.671875 -2.796875 L 0.671875 -2.078125 L 1.03125 -2.078125 L 1.03125 -1.796875 L 0.671875 -1.796875 L 0.671875 -0.578125 C 0.671875 -0.484375 0.6875 -0.421875 0.703125 -0.390625 C 0.703125 -0.359375 0.734375 -0.34375 0.75 -0.328125 C 0.78125 -0.3125 0.828125 -0.296875 0.875 -0.296875 C 0.921875 -0.296875 0.96875 -0.296875 1.03125 -0.3125 Z M 1.03125 -0.3125 "
           id="path9" /></symbol><symbol
         overflow="visible"
         id="glyph0-9"><path
           style="stroke:none;"
           d="M 0.265625 -2.453125 L 0.265625 -2.859375 L 0.609375 -2.859375 L 0.609375 -2.453125 Z M 0.265625 0 L 0.265625 -2.078125 L 0.609375 -2.078125 L 0.609375 0 Z M 0.265625 0 "
           id="path10" /></symbol><symbol
         overflow="visible"
         id="glyph0-10"><path
           style="stroke:none;"
           d="M 0.125 -1.03125 C 0.125 -1.421875 0.234375 -1.703125 0.453125 -1.890625 C 0.625 -2.046875 0.84375 -2.125 1.109375 -2.125 C 1.390625 -2.125 1.625 -2.03125 1.796875 -1.84375 C 1.984375 -1.65625 2.078125 -1.390625 2.078125 -1.0625 C 2.078125 -0.796875 2.03125 -0.59375 1.953125 -0.4375 C 1.875 -0.28125 1.75 -0.15625 1.609375 -0.078125 C 1.453125 0.015625 1.28125 0.046875 1.109375 0.046875 C 0.8125 0.046875 0.578125 -0.046875 0.40625 -0.234375 C 0.21875 -0.421875 0.125 -0.6875 0.125 -1.03125 Z M 0.484375 -1.046875 C 0.484375 -0.765625 0.546875 -0.578125 0.65625 -0.4375 C 0.78125 -0.3125 0.921875 -0.25 1.109375 -0.25 C 1.28125 -0.25 1.421875 -0.3125 1.546875 -0.4375 C 1.65625 -0.578125 1.71875 -0.78125 1.71875 -1.046875 C 1.71875 -1.296875 1.65625 -1.5 1.546875 -1.625 C 1.421875 -1.765625 1.28125 -1.828125 1.109375 -1.828125 C 0.921875 -1.828125 0.78125 -1.765625 0.65625 -1.625 C 0.546875 -1.5 0.484375 -1.296875 0.484375 -1.046875 Z M 0.484375 -1.046875 "
           id="path11" /></symbol><symbol
         overflow="visible"
         id="glyph0-11"><path
           style="stroke:none;"
           d="M 0.265625 0 L 0.265625 -2.078125 L 0.578125 -2.078125 L 0.578125 -1.78125 C 0.734375 -2.015625 0.953125 -2.125 1.234375 -2.125 C 1.359375 -2.125 1.484375 -2.09375 1.578125 -2.0625 C 1.6875 -2.015625 1.765625 -1.953125 1.8125 -1.875 C 1.875 -1.796875 1.90625 -1.71875 1.921875 -1.625 C 1.9375 -1.546875 1.953125 -1.4375 1.953125 -1.28125 L 1.953125 0 L 1.59375 0 L 1.59375 -1.265625 C 1.59375 -1.40625 1.578125 -1.515625 1.5625 -1.578125 C 1.53125 -1.65625 1.484375 -1.71875 1.40625 -1.75 C 1.34375 -1.796875 1.25 -1.8125 1.15625 -1.8125 C 1.015625 -1.8125 0.890625 -1.765625 0.78125 -1.671875 C 0.671875 -1.578125 0.609375 -1.40625 0.609375 -1.140625 L 0.609375 0 Z M 0.265625 0 "
           id="path12" /></symbol><symbol
         overflow="visible"
         id="glyph0-12"><path
           style="stroke:none;"
           d="M 0.25 0 L 0.25 -2.859375 L 0.609375 -2.859375 L 0.609375 0 Z M 0.25 0 "
           id="path13" /></symbol><symbol
         overflow="visible"
         id="glyph0-13"><path
           style="stroke:none;"
           d="M 1.125 0 L 0.015625 -2.859375 L 0.421875 -2.859375 L 1.171875 -0.78125 C 1.234375 -0.609375 1.28125 -0.453125 1.3125 -0.3125 C 1.359375 -0.46875 1.421875 -0.625 1.46875 -0.78125 L 2.25 -2.859375 L 2.640625 -2.859375 L 1.515625 0 Z M 1.125 0 "
           id="path14" /></symbol><symbol
         overflow="visible"
         id="glyph0-14"><path
           style="stroke:none;"
           d="M 1.6875 -0.671875 L 2.046875 -0.625 C 1.984375 -0.40625 1.875 -0.25 1.734375 -0.125 C 1.578125 -0.015625 1.375 0.046875 1.125 0.046875 C 0.828125 0.046875 0.59375 -0.046875 0.40625 -0.234375 C 0.234375 -0.421875 0.140625 -0.6875 0.140625 -1.015625 C 0.140625 -1.375 0.234375 -1.640625 0.421875 -1.828125 C 0.59375 -2.03125 0.828125 -2.125 1.109375 -2.125 C 1.390625 -2.125 1.609375 -2.03125 1.796875 -1.84375 C 1.96875 -1.65625 2.0625 -1.390625 2.0625 -1.046875 C 2.0625 -1.015625 2.0625 -0.984375 2.0625 -0.953125 L 0.515625 -0.953125 C 0.515625 -0.71875 0.578125 -0.546875 0.703125 -0.421875 C 0.8125 -0.296875 0.953125 -0.25 1.140625 -0.25 C 1.265625 -0.25 1.375 -0.28125 1.46875 -0.34375 C 1.5625 -0.40625 1.625 -0.515625 1.6875 -0.671875 Z M 0.53125 -1.234375 L 1.6875 -1.234375 C 1.671875 -1.40625 1.625 -1.546875 1.546875 -1.625 C 1.4375 -1.765625 1.296875 -1.828125 1.109375 -1.828125 C 0.953125 -1.828125 0.8125 -1.78125 0.703125 -1.671875 C 0.59375 -1.5625 0.546875 -1.421875 0.53125 -1.234375 Z M 0.53125 -1.234375 "
           id="path15" /></symbol><symbol
         overflow="visible"
         id="glyph0-15"><path
           style="stroke:none;"
           d="M 0.25 0 L 0.25 -2.078125 L 0.578125 -2.078125 L 0.578125 -1.765625 C 0.65625 -1.90625 0.734375 -2.015625 0.796875 -2.046875 C 0.875 -2.09375 0.9375 -2.125 1.03125 -2.125 C 1.140625 -2.125 1.265625 -2.078125 1.390625 -2.015625 L 1.265625 -1.6875 C 1.171875 -1.734375 1.09375 -1.765625 1 -1.765625 C 0.921875 -1.765625 0.859375 -1.734375 0.796875 -1.6875 C 0.734375 -1.640625 0.6875 -1.578125 0.671875 -1.5 C 0.625 -1.375 0.609375 -1.234375 0.609375 -1.09375 L 0.609375 0 Z M 0.25 0 "
           id="path16" /></symbol><symbol
         overflow="visible"
         id="glyph0-16"><path
           style="stroke:none;"
           d="M 0.125 -0.625 L 0.46875 -0.671875 C 0.484375 -0.53125 0.546875 -0.421875 0.625 -0.359375 C 0.71875 -0.28125 0.84375 -0.25 1 -0.25 C 1.171875 -0.25 1.28125 -0.28125 1.359375 -0.34375 C 1.4375 -0.40625 1.484375 -0.484375 1.484375 -0.578125 C 1.484375 -0.65625 1.453125 -0.71875 1.375 -0.765625 C 1.328125 -0.796875 1.21875 -0.828125 1.015625 -0.875 C 0.765625 -0.9375 0.578125 -1 0.484375 -1.046875 C 0.390625 -1.09375 0.3125 -1.15625 0.25 -1.25 C 0.203125 -1.328125 0.1875 -1.421875 0.1875 -1.53125 C 0.1875 -1.609375 0.203125 -1.703125 0.25 -1.78125 C 0.28125 -1.859375 0.34375 -1.921875 0.421875 -1.984375 C 0.46875 -2.015625 0.546875 -2.046875 0.640625 -2.078125 C 0.734375 -2.109375 0.84375 -2.125 0.9375 -2.125 C 1.109375 -2.125 1.25 -2.09375 1.375 -2.046875 C 1.5 -2 1.578125 -1.9375 1.640625 -1.859375 C 1.703125 -1.78125 1.75 -1.671875 1.765625 -1.546875 L 1.421875 -1.484375 C 1.40625 -1.59375 1.359375 -1.6875 1.28125 -1.734375 C 1.21875 -1.796875 1.109375 -1.828125 0.96875 -1.828125 C 0.8125 -1.828125 0.6875 -1.796875 0.625 -1.75 C 0.546875 -1.703125 0.515625 -1.640625 0.515625 -1.5625 C 0.515625 -1.515625 0.53125 -1.46875 0.5625 -1.4375 C 0.59375 -1.40625 0.640625 -1.375 0.703125 -1.34375 C 0.734375 -1.328125 0.84375 -1.296875 1.015625 -1.25 C 1.25 -1.1875 1.421875 -1.140625 1.53125 -1.09375 C 1.625 -1.046875 1.703125 -0.984375 1.765625 -0.90625 C 1.8125 -0.828125 1.84375 -0.734375 1.84375 -0.609375 C 1.84375 -0.484375 1.8125 -0.375 1.734375 -0.28125 C 1.671875 -0.171875 1.578125 -0.09375 1.4375 -0.03125 C 1.3125 0.015625 1.171875 0.046875 1.015625 0.046875 C 0.734375 0.046875 0.53125 -0.015625 0.390625 -0.125 C 0.25 -0.234375 0.15625 -0.40625 0.125 -0.625 Z M 0.125 -0.625 "
           id="path17" /></symbol></g><g
       id="g17-0"><symbol
         overflow="visible"
         id="glyph0-0-0"><path
           style="stroke:none;"
           d=""
           id="path1-0" /></symbol><symbol
         overflow="visible"
         id="glyph0-1-2"><path
           style="stroke:none;"
           d="M 1.640625 -1.125 L 1.640625 -1.453125 L 2.859375 -1.46875 L 2.859375 -0.40625 C 2.671875 -0.25 2.484375 -0.140625 2.28125 -0.0625 C 2.078125 0.015625 1.890625 0.046875 1.671875 0.046875 C 1.390625 0.046875 1.140625 -0.015625 0.90625 -0.125 C 0.671875 -0.25 0.5 -0.421875 0.390625 -0.65625 C 0.265625 -0.890625 0.21875 -1.140625 0.21875 -1.421875 C 0.21875 -1.703125 0.265625 -1.953125 0.390625 -2.203125 C 0.5 -2.4375 0.671875 -2.625 0.890625 -2.734375 C 1.109375 -2.859375 1.359375 -2.90625 1.640625 -2.90625 C 1.859375 -2.90625 2.046875 -2.875 2.203125 -2.8125 C 2.375 -2.75 2.5 -2.65625 2.59375 -2.53125 C 2.703125 -2.421875 2.765625 -2.265625 2.8125 -2.0625 L 2.46875 -1.96875 C 2.4375 -2.125 2.375 -2.234375 2.3125 -2.3125 C 2.25 -2.40625 2.15625 -2.46875 2.046875 -2.515625 C 1.921875 -2.5625 1.796875 -2.59375 1.640625 -2.59375 C 1.46875 -2.59375 1.328125 -2.5625 1.203125 -2.515625 C 1.078125 -2.453125 0.96875 -2.390625 0.890625 -2.296875 C 0.8125 -2.21875 0.75 -2.125 0.71875 -2.015625 C 0.640625 -1.84375 0.59375 -1.65625 0.59375 -1.4375 C 0.59375 -1.1875 0.640625 -0.96875 0.734375 -0.796875 C 0.8125 -0.625 0.953125 -0.5 1.109375 -0.421875 C 1.28125 -0.34375 1.46875 -0.296875 1.65625 -0.296875 C 1.8125 -0.296875 1.96875 -0.328125 2.125 -0.390625 C 2.28125 -0.453125 2.40625 -0.515625 2.484375 -0.59375 L 2.484375 -1.125 Z M 1.640625 -1.125 "
           id="path2-8" /></symbol><symbol
         overflow="visible"
         id="glyph0-2-8"><path
           style="stroke:none;"
           d="M 0.171875 -0.921875 L 0.53125 -0.953125 C 0.546875 -0.8125 0.59375 -0.6875 0.65625 -0.59375 C 0.71875 -0.515625 0.8125 -0.4375 0.9375 -0.375 C 1.078125 -0.3125 1.21875 -0.296875 1.375 -0.296875 C 1.53125 -0.296875 1.65625 -0.3125 1.765625 -0.359375 C 1.875 -0.40625 1.953125 -0.453125 2.015625 -0.53125 C 2.0625 -0.609375 2.09375 -0.6875 2.09375 -0.78125 C 2.09375 -0.875 2.0625 -0.9375 2.015625 -1.015625 C 1.953125 -1.078125 1.875 -1.140625 1.75 -1.1875 C 1.6875 -1.21875 1.515625 -1.265625 1.25 -1.3125 C 0.984375 -1.390625 0.796875 -1.4375 0.6875 -1.5 C 0.5625 -1.578125 0.453125 -1.65625 0.390625 -1.765625 C 0.3125 -1.875 0.28125 -1.984375 0.28125 -2.125 C 0.28125 -2.265625 0.328125 -2.40625 0.40625 -2.53125 C 0.484375 -2.65625 0.609375 -2.75 0.765625 -2.8125 C 0.921875 -2.875 1.109375 -2.90625 1.296875 -2.90625 C 1.515625 -2.90625 1.703125 -2.875 1.859375 -2.8125 C 2.015625 -2.75 2.140625 -2.640625 2.234375 -2.515625 C 2.3125 -2.375 2.359375 -2.21875 2.375 -2.0625 L 2.015625 -2.03125 C 1.984375 -2.21875 1.921875 -2.34375 1.8125 -2.4375 C 1.703125 -2.53125 1.53125 -2.578125 1.3125 -2.578125 C 1.078125 -2.578125 0.921875 -2.546875 0.8125 -2.453125 C 0.703125 -2.375 0.65625 -2.265625 0.65625 -2.15625 C 0.65625 -2.046875 0.6875 -1.96875 0.765625 -1.890625 C 0.84375 -1.828125 1.03125 -1.765625 1.34375 -1.6875 C 1.640625 -1.625 1.859375 -1.5625 1.96875 -1.515625 C 2.140625 -1.4375 2.265625 -1.34375 2.34375 -1.21875 C 2.421875 -1.09375 2.453125 -0.96875 2.453125 -0.8125 C 2.453125 -0.65625 2.40625 -0.515625 2.328125 -0.375 C 2.234375 -0.25 2.109375 -0.140625 1.953125 -0.0625 C 1.78125 0.015625 1.609375 0.046875 1.40625 0.046875 C 1.140625 0.046875 0.921875 0.015625 0.75 -0.0625 C 0.578125 -0.140625 0.4375 -0.25 0.34375 -0.40625 C 0.234375 -0.5625 0.1875 -0.734375 0.171875 -0.921875 Z M 0.171875 -0.921875 "
           id="path3-5" /></symbol><symbol
         overflow="visible"
         id="glyph0-3-9"><path
           style="stroke:none;"
           d="M 0.3125 0 L 0.3125 -2.859375 L 2.390625 -2.859375 L 2.390625 -2.53125 L 0.6875 -2.53125 L 0.6875 -1.640625 L 2.28125 -1.640625 L 2.28125 -1.3125 L 0.6875 -1.3125 L 0.6875 -0.34375 L 2.453125 -0.34375 L 2.453125 0 Z M 0.3125 0 "
           id="path4-4" /></symbol><symbol
         overflow="visible"
         id="glyph0-4-4"><path
           style="stroke:none;"
           d="M 1.609375 0 L 1.609375 -0.265625 C 1.46875 -0.046875 1.28125 0.046875 1.03125 0.046875 C 0.859375 0.046875 0.703125 0 0.578125 -0.09375 C 0.4375 -0.1875 0.328125 -0.3125 0.25 -0.46875 C 0.171875 -0.640625 0.140625 -0.828125 0.140625 -1.03125 C 0.140625 -1.25 0.171875 -1.4375 0.234375 -1.59375 C 0.3125 -1.765625 0.40625 -1.890625 0.546875 -1.984375 C 0.6875 -2.078125 0.84375 -2.125 1.015625 -2.125 C 1.140625 -2.125 1.25 -2.09375 1.34375 -2.046875 C 1.4375 -1.984375 1.53125 -1.921875 1.578125 -1.828125 L 1.578125 -2.859375 L 1.9375 -2.859375 L 1.9375 0 Z M 0.5 -1.03125 C 0.5 -0.765625 0.546875 -0.578125 0.65625 -0.4375 C 0.78125 -0.3125 0.90625 -0.25 1.0625 -0.25 C 1.21875 -0.25 1.34375 -0.3125 1.453125 -0.4375 C 1.5625 -0.5625 1.609375 -0.75 1.609375 -1.015625 C 1.609375 -1.296875 1.5625 -1.5 1.453125 -1.625 C 1.34375 -1.765625 1.203125 -1.828125 1.046875 -1.828125 C 0.890625 -1.828125 0.765625 -1.765625 0.65625 -1.640625 C 0.546875 -1.515625 0.5 -1.3125 0.5 -1.03125 Z M 0.5 -1.03125 "
           id="path5-0" /></symbol><symbol
         overflow="visible"
         id="glyph0-5-3"><path
           style="stroke:none;"
           d="M 1.625 0 L 1.625 -0.296875 C 1.453125 -0.0625 1.234375 0.046875 0.96875 0.046875 C 0.84375 0.046875 0.734375 0.03125 0.625 -0.015625 C 0.515625 -0.0625 0.4375 -0.125 0.390625 -0.203125 C 0.328125 -0.265625 0.296875 -0.359375 0.28125 -0.453125 C 0.265625 -0.53125 0.25 -0.640625 0.25 -0.78125 L 0.25 -2.078125 L 0.609375 -2.078125 L 0.609375 -0.921875 C 0.609375 -0.734375 0.609375 -0.609375 0.625 -0.546875 C 0.640625 -0.453125 0.703125 -0.390625 0.765625 -0.328125 C 0.84375 -0.28125 0.921875 -0.25 1.03125 -0.25 C 1.140625 -0.25 1.234375 -0.28125 1.328125 -0.34375 C 1.421875 -0.390625 1.484375 -0.46875 1.53125 -0.5625 C 1.5625 -0.640625 1.578125 -0.78125 1.578125 -0.96875 L 1.578125 -2.078125 L 1.9375 -2.078125 L 1.9375 0 Z M 1.625 0 "
           id="path6-7" /></symbol><symbol
         overflow="visible"
         id="glyph0-6-4"><path
           style="stroke:none;"
           d="M 1.609375 -0.765625 L 1.953125 -0.71875 C 1.921875 -0.46875 1.828125 -0.28125 1.671875 -0.15625 C 1.515625 -0.015625 1.328125 0.046875 1.09375 0.046875 C 0.8125 0.046875 0.578125 -0.046875 0.40625 -0.234375 C 0.234375 -0.421875 0.15625 -0.6875 0.15625 -1.03125 C 0.15625 -1.25 0.1875 -1.453125 0.265625 -1.625 C 0.34375 -1.78125 0.453125 -1.90625 0.609375 -2 C 0.75 -2.078125 0.921875 -2.125 1.09375 -2.125 C 1.328125 -2.125 1.515625 -2.0625 1.65625 -1.953125 C 1.796875 -1.84375 1.890625 -1.671875 1.921875 -1.46875 L 1.578125 -1.40625 C 1.546875 -1.546875 1.5 -1.65625 1.40625 -1.71875 C 1.328125 -1.796875 1.234375 -1.828125 1.109375 -1.828125 C 0.9375 -1.828125 0.796875 -1.765625 0.6875 -1.640625 C 0.578125 -1.515625 0.515625 -1.3125 0.515625 -1.046875 C 0.515625 -0.765625 0.5625 -0.5625 0.671875 -0.4375 C 0.78125 -0.3125 0.921875 -0.25 1.09375 -0.25 C 1.234375 -0.25 1.34375 -0.28125 1.4375 -0.375 C 1.53125 -0.453125 1.59375 -0.578125 1.609375 -0.765625 Z M 1.609375 -0.765625 "
           id="path7-3" /></symbol><symbol
         overflow="visible"
         id="glyph0-7-6"><path
           style="stroke:none;"
           d="M 1.609375 -0.25 C 1.484375 -0.140625 1.359375 -0.0625 1.234375 -0.015625 C 1.125 0.03125 0.984375 0.046875 0.859375 0.046875 C 0.625 0.046875 0.453125 -0.015625 0.328125 -0.125 C 0.203125 -0.234375 0.140625 -0.375 0.140625 -0.546875 C 0.140625 -0.640625 0.15625 -0.734375 0.21875 -0.828125 C 0.265625 -0.90625 0.3125 -0.96875 0.390625 -1.03125 C 0.46875 -1.078125 0.546875 -1.109375 0.640625 -1.140625 C 0.71875 -1.15625 0.8125 -1.1875 0.953125 -1.203125 C 1.25 -1.234375 1.453125 -1.265625 1.578125 -1.3125 C 1.59375 -1.359375 1.59375 -1.390625 1.59375 -1.40625 C 1.59375 -1.546875 1.5625 -1.65625 1.484375 -1.71875 C 1.40625 -1.796875 1.265625 -1.828125 1.09375 -1.828125 C 0.921875 -1.828125 0.796875 -1.796875 0.71875 -1.75 C 0.640625 -1.6875 0.578125 -1.578125 0.546875 -1.4375 L 0.203125 -1.484375 C 0.234375 -1.625 0.28125 -1.75 0.359375 -1.84375 C 0.421875 -1.9375 0.53125 -2 0.671875 -2.046875 C 0.796875 -2.09375 0.953125 -2.125 1.140625 -2.125 C 1.3125 -2.125 1.453125 -2.109375 1.578125 -2.0625 C 1.6875 -2.015625 1.765625 -1.96875 1.8125 -1.90625 C 1.875 -1.84375 1.90625 -1.765625 1.921875 -1.65625 C 1.9375 -1.609375 1.9375 -1.5 1.9375 -1.34375 L 1.9375 -0.875 C 1.9375 -0.546875 1.953125 -0.34375 1.96875 -0.25 C 1.984375 -0.15625 2.015625 -0.078125 2.046875 0 L 1.6875 0 C 1.640625 -0.078125 1.625 -0.15625 1.609375 -0.25 Z M 1.578125 -1.046875 C 1.453125 -0.984375 1.265625 -0.953125 1.015625 -0.90625 C 0.875 -0.890625 0.765625 -0.859375 0.703125 -0.84375 C 0.640625 -0.8125 0.59375 -0.765625 0.5625 -0.71875 C 0.53125 -0.671875 0.515625 -0.609375 0.515625 -0.5625 C 0.515625 -0.453125 0.546875 -0.375 0.625 -0.3125 C 0.703125 -0.25 0.796875 -0.21875 0.9375 -0.21875 C 1.078125 -0.21875 1.1875 -0.25 1.296875 -0.3125 C 1.40625 -0.375 1.484375 -0.453125 1.53125 -0.5625 C 1.5625 -0.640625 1.578125 -0.75 1.578125 -0.90625 Z M 1.578125 -1.046875 "
           id="path8-8" /></symbol><symbol
         overflow="visible"
         id="glyph0-8-6"><path
           style="stroke:none;"
           d="M 1.03125 -0.3125 L 1.078125 0 C 0.984375 0.015625 0.890625 0.03125 0.8125 0.03125 C 0.6875 0.03125 0.59375 0.015625 0.515625 -0.03125 C 0.453125 -0.078125 0.390625 -0.125 0.375 -0.1875 C 0.34375 -0.25 0.328125 -0.390625 0.328125 -0.609375 L 0.328125 -1.796875 L 0.0625 -1.796875 L 0.0625 -2.078125 L 0.328125 -2.078125 L 0.328125 -2.59375 L 0.671875 -2.796875 L 0.671875 -2.078125 L 1.03125 -2.078125 L 1.03125 -1.796875 L 0.671875 -1.796875 L 0.671875 -0.578125 C 0.671875 -0.484375 0.6875 -0.421875 0.703125 -0.390625 C 0.703125 -0.359375 0.734375 -0.34375 0.75 -0.328125 C 0.78125 -0.3125 0.828125 -0.296875 0.875 -0.296875 C 0.921875 -0.296875 0.96875 -0.296875 1.03125 -0.3125 Z M 1.03125 -0.3125 "
           id="path9-6" /></symbol><symbol
         overflow="visible"
         id="glyph0-9-2"><path
           style="stroke:none;"
           d="M 0.265625 -2.453125 L 0.265625 -2.859375 L 0.609375 -2.859375 L 0.609375 -2.453125 Z M 0.265625 0 L 0.265625 -2.078125 L 0.609375 -2.078125 L 0.609375 0 Z M 0.265625 0 "
           id="path10-2" /></symbol><symbol
         overflow="visible"
         id="glyph0-10-8"><path
           style="stroke:none;"
           d="M 0.125 -1.03125 C 0.125 -1.421875 0.234375 -1.703125 0.453125 -1.890625 C 0.625 -2.046875 0.84375 -2.125 1.109375 -2.125 C 1.390625 -2.125 1.625 -2.03125 1.796875 -1.84375 C 1.984375 -1.65625 2.078125 -1.390625 2.078125 -1.0625 C 2.078125 -0.796875 2.03125 -0.59375 1.953125 -0.4375 C 1.875 -0.28125 1.75 -0.15625 1.609375 -0.078125 C 1.453125 0.015625 1.28125 0.046875 1.109375 0.046875 C 0.8125 0.046875 0.578125 -0.046875 0.40625 -0.234375 C 0.21875 -0.421875 0.125 -0.6875 0.125 -1.03125 Z M 0.484375 -1.046875 C 0.484375 -0.765625 0.546875 -0.578125 0.65625 -0.4375 C 0.78125 -0.3125 0.921875 -0.25 1.109375 -0.25 C 1.28125 -0.25 1.421875 -0.3125 1.546875 -0.4375 C 1.65625 -0.578125 1.71875 -0.78125 1.71875 -1.046875 C 1.71875 -1.296875 1.65625 -1.5 1.546875 -1.625 C 1.421875 -1.765625 1.28125 -1.828125 1.109375 -1.828125 C 0.921875 -1.828125 0.78125 -1.765625 0.65625 -1.625 C 0.546875 -1.5 0.484375 -1.296875 0.484375 -1.046875 Z M 0.484375 -1.046875 "
           id="path11-6" /></symbol><symbol
         overflow="visible"
         id="glyph0-11-2"><path
           style="stroke:none;"
           d="M 0.265625 0 L 0.265625 -2.078125 L 0.578125 -2.078125 L 0.578125 -1.78125 C 0.734375 -2.015625 0.953125 -2.125 1.234375 -2.125 C 1.359375 -2.125 1.484375 -2.09375 1.578125 -2.0625 C 1.6875 -2.015625 1.765625 -1.953125 1.8125 -1.875 C 1.875 -1.796875 1.90625 -1.71875 1.921875 -1.625 C 1.9375 -1.546875 1.953125 -1.4375 1.953125 -1.28125 L 1.953125 0 L 1.59375 0 L 1.59375 -1.265625 C 1.59375 -1.40625 1.578125 -1.515625 1.5625 -1.578125 C 1.53125 -1.65625 1.484375 -1.71875 1.40625 -1.75 C 1.34375 -1.796875 1.25 -1.8125 1.15625 -1.8125 C 1.015625 -1.8125 0.890625 -1.765625 0.78125 -1.671875 C 0.671875 -1.578125 0.609375 -1.40625 0.609375 -1.140625 L 0.609375 0 Z M 0.265625 0 "
           id="path12-4" /></symbol><symbol
         overflow="visible"
         id="glyph0-12-3"><path
           style="stroke:none;"
           d="M 0.25 0 L 0.25 -2.859375 L 0.609375 -2.859375 L 0.609375 0 Z M 0.25 0 "
           id="path13-6" /></symbol><symbol
         overflow="visible"
         id="glyph0-13-1"><path
           style="stroke:none;"
           d="M 1.125 0 L 0.015625 -2.859375 L 0.421875 -2.859375 L 1.171875 -0.78125 C 1.234375 -0.609375 1.28125 -0.453125 1.3125 -0.3125 C 1.359375 -0.46875 1.421875 -0.625 1.46875 -0.78125 L 2.25 -2.859375 L 2.640625 -2.859375 L 1.515625 0 Z M 1.125 0 "
           id="path14-5" /></symbol><symbol
         overflow="visible"
         id="glyph0-14-0"><path
           style="stroke:none;"
           d="M 1.6875 -0.671875 L 2.046875 -0.625 C 1.984375 -0.40625 1.875 -0.25 1.734375 -0.125 C 1.578125 -0.015625 1.375 0.046875 1.125 0.046875 C 0.828125 0.046875 0.59375 -0.046875 0.40625 -0.234375 C 0.234375 -0.421875 0.140625 -0.6875 0.140625 -1.015625 C 0.140625 -1.375 0.234375 -1.640625 0.421875 -1.828125 C 0.59375 -2.03125 0.828125 -2.125 1.109375 -2.125 C 1.390625 -2.125 1.609375 -2.03125 1.796875 -1.84375 C 1.96875 -1.65625 2.0625 -1.390625 2.0625 -1.046875 C 2.0625 -1.015625 2.0625 -0.984375 2.0625 -0.953125 L 0.515625 -0.953125 C 0.515625 -0.71875 0.578125 -0.546875 0.703125 -0.421875 C 0.8125 -0.296875 0.953125 -0.25 1.140625 -0.25 C 1.265625 -0.25 1.375 -0.28125 1.46875 -0.34375 C 1.5625 -0.40625 1.625 -0.515625 1.6875 -0.671875 Z M 0.53125 -1.234375 L 1.6875 -1.234375 C 1.671875 -1.40625 1.625 -1.546875 1.546875 -1.625 C 1.4375 -1.765625 1.296875 -1.828125 1.109375 -1.828125 C 0.953125 -1.828125 0.8125 -1.78125 0.703125 -1.671875 C 0.59375 -1.5625 0.546875 -1.421875 0.53125 -1.234375 Z M 0.53125 -1.234375 "
           id="path15-8" /></symbol><symbol
         overflow="visible"
         id="glyph0-15-7"><path
           style="stroke:none;"
           d="M 0.25 0 L 0.25 -2.078125 L 0.578125 -2.078125 L 0.578125 -1.765625 C 0.65625 -1.90625 0.734375 -2.015625 0.796875 -2.046875 C 0.875 -2.09375 0.9375 -2.125 1.03125 -2.125 C 1.140625 -2.125 1.265625 -2.078125 1.390625 -2.015625 L 1.265625 -1.6875 C 1.171875 -1.734375 1.09375 -1.765625 1 -1.765625 C 0.921875 -1.765625 0.859375 -1.734375 0.796875 -1.6875 C 0.734375 -1.640625 0.6875 -1.578125 0.671875 -1.5 C 0.625 -1.375 0.609375 -1.234375 0.609375 -1.09375 L 0.609375 0 Z M 0.25 0 "
           id="path16-0" /></symbol><symbol
         overflow="visible"
         id="glyph0-16-0"><path
           style="stroke:none;"
           d="M 0.125 -0.625 L 0.46875 -0.671875 C 0.484375 -0.53125 0.546875 -0.421875 0.625 -0.359375 C 0.71875 -0.28125 0.84375 -0.25 1 -0.25 C 1.171875 -0.25 1.28125 -0.28125 1.359375 -0.34375 C 1.4375 -0.40625 1.484375 -0.484375 1.484375 -0.578125 C 1.484375 -0.65625 1.453125 -0.71875 1.375 -0.765625 C 1.328125 -0.796875 1.21875 -0.828125 1.015625 -0.875 C 0.765625 -0.9375 0.578125 -1 0.484375 -1.046875 C 0.390625 -1.09375 0.3125 -1.15625 0.25 -1.25 C 0.203125 -1.328125 0.1875 -1.421875 0.1875 -1.53125 C 0.1875 -1.609375 0.203125 -1.703125 0.25 -1.78125 C 0.28125 -1.859375 0.34375 -1.921875 0.421875 -1.984375 C 0.46875 -2.015625 0.546875 -2.046875 0.640625 -2.078125 C 0.734375 -2.109375 0.84375 -2.125 0.9375 -2.125 C 1.109375 -2.125 1.25 -2.09375 1.375 -2.046875 C 1.5 -2 1.578125 -1.9375 1.640625 -1.859375 C 1.703125 -1.78125 1.75 -1.671875 1.765625 -1.546875 L 1.421875 -1.484375 C 1.40625 -1.59375 1.359375 -1.6875 1.28125 -1.734375 C 1.21875 -1.796875 1.109375 -1.828125 0.96875 -1.828125 C 0.8125 -1.828125 0.6875 -1.796875 0.625 -1.75 C 0.546875 -1.703125 0.515625 -1.640625 0.515625 -1.5625 C 0.515625 -1.515625 0.53125 -1.46875 0.5625 -1.4375 C 0.59375 -1.40625 0.640625 -1.375 0.703125 -1.34375 C 0.734375 -1.328125 0.84375 -1.296875 1.015625 -1.25 C 1.25 -1.1875 1.421875 -1.140625 1.53125 -1.09375 C 1.625 -1.046875 1.703125 -0.984375 1.765625 -0.90625 C 1.8125 -0.828125 1.84375 -0.734375 1.84375 -0.609375 C 1.84375 -0.484375 1.8125 -0.375 1.734375 -0.28125 C 1.671875 -0.171875 1.578125 -0.09375 1.4375 -0.03125 C 1.3125 0.015625 1.171875 0.046875 1.015625 0.046875 C 0.734375 0.046875 0.53125 -0.015625 0.390625 -0.125 C 0.25 -0.234375 0.15625 -0.40625 0.125 -0.625 Z M 0.125 -0.625 "
           id="path17-9" /></symbol></g><clipPath
       id="clip1"><path
         d="M 0.105469 1183 L 40 1183 L 40 1187 L 0.105469 1187 Z M 0.105469 1183 "
         id="path18" /></clipPath></defs><g
     inkscape:label="Layer 1"
     inkscape:groupmode="layer"
     id="layer1"><rect
       style="fill:none;stroke:#ff3535;stroke-width:1.15123;stroke-dasharray:none;stroke-opacity:1"
       id="rect1"
       width="978.84875"
       height="578.84875"
       x="10.575615"
       y="10.575615" /></g></svg>
