<?xml version='1.0' encoding='utf-8'?>
<svg xmlns="http://www.w3.org/2000/svg" width="200mm" height="200mm" viewBox="0 0 200 200"><path d="M 138.296875 318.246094 C 142.4375 319.492188 144.890625 323.011719 144.882812 327.339844 L 141.121094 327.339844 C 141.273438 323.378906 137.015625 320.191406 133.433594 322.632812 C 132.6875 323.140625 131.089844 325.03125 131.191406 325.9375 C 131.296875 326.878906 143.214844 337.546875 144.582031 339.394531 C 145.773438 343.269531 141.902344 348.253906 138.066406 348.90625 C 132.285156 349.886719 127.382812 345.945312 127.308594 340.042969 C 127.300781 339.378906 127.296875 339.640625 127.78125 339.570312 C 128.777344 339.417969 130.046875 339.679688 131.085938 339.570312 C 130.777344 345.925781 138.96875 347.585938 140.984375 341.472656 L 127.371094 327.425781 C 127.269531 322.921875 129.710938 319.679688 133.90625 318.246094 Z M 138.296875 318.246094 " transform="" stroke="blue" fill="none" stroke-width="0.25" /></svg>