<?xml version='1.0' encoding='utf-8'?>
<svg xmlns="http://www.w3.org/2000/svg" width="500mm" height="500mm" viewBox="0 0 2000 2000"><path d="" stroke="red" fill="none" stroke-width="0.5" /><path d="M 1.796875 -21 L 1.796875 0 L 6.265625 0 C 8.09375 0 9.484375 -0.515625 10.4375 -1.546875 C 11.390625 -2.59375 11.859375 -4.0625 11.859375 -5.9375 L 11.859375 -15.203125 C 11.84375 -17.234375 11.34375 -18.71875 10.34375 -19.640625 C 9.359375 -20.5625 7.859375 -21.015625 5.859375 -21.015625 Z M 4.8125 -18.0625 L 6.34375 -18.0625 C 7.265625 -18.0625 7.90625 -17.828125 8.28125 -17.359375 C 8.671875 -16.890625 8.859375 -16.25 8.859375 -15.4375 L 8.859375 -6.140625 C 8.859375 -5 8.625 -4.171875 8.171875 -3.6875 C 7.71875 -3.203125 7.046875 -2.953125 6.15625 -2.953125 L 4.8125 -2.953125 Z M 4.8125 -18.0625 " stroke="red" fill="none" stroke-width="0.5" /><path d="M 4.5 -4.40625 L 4.5 -6.328125 L 10.5625 -6.328125 L 10.5625 -10.21875 C 10.546875 -11.90625 10.046875 -13.171875 9.046875 -14.046875 C 8.25 -14.765625 7.21875 -15.125 5.984375 -15.125 C 4.765625 -15.125 3.75 -14.78125 2.96875 -14.109375 C 1.984375 -13.28125 1.5 -12.078125 1.5 -10.515625 L 1.5 -4.8125 C 1.5 -3.21875 1.890625 -1.96875 2.6875 -1.09375 C 3.5 -0.21875 4.609375 0.21875 6.03125 0.21875 C 7.09375 0.21875 8.015625 -0.0625 8.796875 -0.609375 C 9.921875 -1.421875 10.484375 -2.640625 10.484375 -4.265625 L 10.484375 -4.375 L 7.484375 -4.375 C 7.484375 -4 7.390625 -3.65625 7.21875 -3.359375 C 6.9375 -2.921875 6.40625 -2.71875 5.640625 -2.71875 C 4.859375 -2.71875 4.484375 -3.296875 4.484375 -4.4375 Z M 4.484375 -8.671875 L 4.484375 -10.5 C 4.484375 -11.015625 4.609375 -11.421875 4.875 -11.734375 C 5.140625 -12.03125 5.5 -12.1875 5.984375 -12.171875 C 6.46875 -12.171875 6.859375 -12.015625 7.125 -11.734375 C 7.40625 -11.46875 7.546875 -11.0625 7.546875 -10.578125 L 7.546875 -8.625 Z M 4.484375 -8.671875 " stroke="red" fill="none" stroke-width="0.5" /><path d="M 5.4375 0 L 6.296875 0 L 6.296875 -2.78125 L 6 -2.78125 C 5.078125 -2.796875 4.609375 -3.28125 4.609375 -4.234375 L 4.609375 -21 L 1.625 -21 L 1.625 -4.078125 C 1.625 -1.359375 2.90625 0 5.4375 0 Z M 5.4375 0 " stroke="red" fill="none" stroke-width="0.5" /><path d="M 1.34375 -3.953125 C 1.34375 -1.15625 2.46875 0.234375 4.71875 0.234375 C 5.84375 0.234375 6.765625 -0.34375 7.46875 -1.46875 L 7.53125 -1.46875 L 7.53125 0 L 10.53125 0 L 10.53125 -10.40625 C 10.53125 -11.921875 10.109375 -13.09375 9.296875 -13.90625 C 8.46875 -14.71875 7.359375 -15.109375 6 -15.109375 C 4.640625 -15.109375 3.546875 -14.703125 2.703125 -13.859375 C 1.875 -13.03125 1.46875 -11.96875 1.484375 -10.65625 L 4.328125 -10.65625 C 4.34375 -11.046875 4.5 -11.390625 4.765625 -11.703125 C 5.046875 -12 5.4375 -12.171875 5.921875 -12.171875 C 6.421875 -12.171875 6.828125 -12.015625 7.09375 -11.71875 C 7.375 -11.40625 7.53125 -10.984375 7.53125 -10.421875 L 7.53125 -8.859375 C 6.890625 -8.921875 6.328125 -8.953125 5.8125 -8.953125 C 4.1875 -8.953125 3.015625 -8.515625 2.296875 -7.65625 C 1.671875 -6.9375 1.359375 -5.6875 1.359375 -3.9375 Z M 4.359375 -4.359375 C 4.359375 -5.828125 5.0625 -6.5625 6.484375 -6.5625 C 6.828125 -6.546875 7.171875 -6.515625 7.546875 -6.453125 L 7.546875 -4.359375 C 7.546875 -3.75 7.375 -3.28125 7.0625 -2.9375 C 6.734375 -2.609375 6.328125 -2.4375 5.828125 -2.4375 C 5.328125 -2.4375 4.96875 -2.640625 4.734375 -3.03125 C 4.5 -3.421875 4.375 -3.859375 4.359375 -4.359375 Z M 4.359375 -4.359375 " stroke="red" fill="none" stroke-width="0.5" /><path d="M 10.078125 -10.84375 C 10.078125 -12.125 9.6875 -13.140625 8.9375 -13.90625 C 8.171875 -14.71875 7.078125 -15.109375 5.625 -15.109375 C 4.171875 -15.109375 3.0625 -14.71875 2.28125 -13.921875 C 1.515625 -13.125 1.125 -12.140625 1.125 -10.921875 C 1.125 -9.703125 1.359375 -8.8125 1.84375 -8.25 C 2.328125 -7.671875 2.96875 -7.21875 3.796875 -6.875 L 5.5625 -6.140625 C 6.15625 -5.875 6.5625 -5.59375 6.765625 -5.296875 C 6.96875 -5 7.078125 -4.625 7.078125 -4.15625 C 7.078125 -3.6875 6.9375 -3.296875 6.65625 -2.984375 C 6.390625 -2.671875 5.984375 -2.515625 5.46875 -2.515625 C 4.96875 -2.515625 4.5625 -2.671875 4.296875 -2.96875 C 4.015625 -3.28125 3.875 -3.671875 3.875 -4.15625 L 0.875 -4.15625 C 0.875 -2.90625 1.265625 -1.84375 2.03125 -1.015625 C 2.8125 -0.171875 3.984375 0.25 5.546875 0.25 C 7.109375 0.25 8.296875 -0.25 9.109375 -1.25 C 9.734375 -2.015625 10.0625 -2.984375 10.0625 -4.140625 C 10.0625 -6.21875 9.171875 -7.609375 7.390625 -8.296875 L 5.59375 -9.0625 C 5.03125 -9.265625 4.65625 -9.515625 4.4375 -9.8125 C 4.21875 -10.109375 4.109375 -10.453125 4.125 -10.875 C 4.125 -11.296875 4.28125 -11.640625 4.5625 -11.90625 C 4.859375 -12.171875 5.21875 -12.296875 5.640625 -12.296875 C 6.0625 -12.296875 6.40625 -12.171875 6.671875 -11.90625 C 6.921875 -11.625 7.078125 -11.265625 7.109375 -10.8125 Z M 10.078125 -10.84375 " stroke="red" fill="none" stroke-width="0.5" /><path d="M 1.625 0 L 4.609375 0 L 4.609375 -14.875 L 1.625 -14.875 Z M 1.625 -20.578125 L 1.625 -17.625 L 4.609375 -17.625 L 4.609375 -20.578125 Z M 1.625 -20.578125 " stroke="red" fill="none" stroke-width="0.5" /><path d="M 1.5 -4.796875 C 1.5 -2.984375 1.953125 -1.703125 2.84375 -0.921875 C 3.734375 -0.140625 4.78125 0.25 6.015625 0.265625 C 7.25 0.28125 8.296875 -0.109375 9.1875 -0.875 C 10.09375 -1.65625 10.546875 -2.953125 10.546875 -4.765625 L 10.546875 -10.046875 C 10.546875 -11.875 10.09375 -13.171875 9.1875 -13.9375 C 8.296875 -14.703125 7.234375 -15.078125 6 -15.09375 C 4.765625 -15.109375 3.703125 -14.734375 2.8125 -13.953125 C 1.921875 -13.171875 1.46875 -11.875 1.46875 -10.0625 Z M 7.53125 -4.59375 C 7.53125 -3.9375 7.375 -3.453125 7.09375 -3.140625 C 6.796875 -2.84375 6.421875 -2.671875 5.984375 -2.671875 C 5.546875 -2.671875 5.1875 -2.84375 4.890625 -3.140625 C 4.59375 -3.453125 4.453125 -3.9375 4.453125 -4.59375 L 4.453125 -10.234375 C 4.453125 -10.890625 4.59375 -11.390625 4.90625 -11.734375 C 5.1875 -12 5.53125 -12.140625 5.96875 -12.140625 C 6.40625 -12.140625 6.78125 -11.96875 7.078125 -11.671875 C 7.359375 -11.359375 7.515625 -10.875 7.515625 -10.21875 Z M 7.53125 -4.59375 " stroke="red" fill="none" stroke-width="0.5" /><path d="M 1.625 0 L 4.609375 0 L 4.609375 -10.1875 C 4.609375 -10.84375 4.765625 -11.34375 5.09375 -11.6875 C 5.421875 -12.015625 5.796875 -12.1875 6.21875 -12.1875 C 6.640625 -12.1875 7 -12.03125 7.28125 -11.734375 C 7.546875 -11.453125 7.6875 -11.046875 7.6875 -10.53125 L 7.6875 0 L 10.6875 0 L 10.6875 -11.734375 C 10.703125 -12.8125 10.421875 -13.640625 9.859375 -14.234375 C 9.28125 -14.8125 8.53125 -15.109375 7.59375 -15.109375 C 6.40625 -15.125 5.421875 -14.59375 4.609375 -13.53125 L 4.609375 -14.875 L 1.625 -14.875 Z M 1.625 0 " stroke="red" fill="none" stroke-width="0.5" /><path d="M 4.609375 -4.34375 L 4.609375 -14.875 L 1.625 -14.875 L 1.625 -3.140625 C 1.625 -0.890625 2.671875 0.234375 4.75 0.234375 C 5.90625 0.234375 6.875 -0.34375 7.671875 -1.5 L 7.671875 0 L 10.671875 0 L 10.671875 -14.875 L 7.671875 -14.875 L 7.671875 -4.671875 C 7.6875 -4.0625 7.53125 -3.578125 7.203125 -3.21875 C 6.875 -2.875 6.5 -2.6875 6.046875 -2.6875 C 5.09375 -2.6875 4.609375 -3.25 4.609375 -4.34375 Z M 4.609375 -4.34375 " stroke="red" fill="none" stroke-width="0.5" /><path d="M 7.671875 -14.875 L 7.671875 -13.5625 L 7.640625 -13.5625 C 7.40625 -13.953125 7.0625 -14.296875 6.59375 -14.625 C 6.125 -14.953125 5.515625 -15.109375 4.796875 -15.109375 C 3.703125 -15.109375 2.90625 -14.765625 2.390625 -14.0625 C 1.875 -13.375 1.625 -12.3125 1.625 -10.875 L 1.625 -3.140625 C 1.640625 -2.0625 1.9375 -1.234375 2.5 -0.640625 C 3.078125 -0.0625 3.828125 0.234375 4.75 0.234375 C 5.953125 0.234375 6.9375 -0.25 7.6875 -1.203125 L 7.6875 6.125 L 10.6875 6.125 L 10.6875 -14.875 Z M 7.6875 -4.671875 C 7.6875 -4.015625 7.53125 -3.515625 7.21875 -3.171875 C 6.890625 -2.859375 6.515625 -2.6875 6.078125 -2.6875 C 5.640625 -2.6875 5.28125 -2.84375 5.015625 -3.140625 C 4.765625 -3.421875 4.625 -3.828125 4.625 -4.34375 L 4.625 -10.375 C 4.625 -11 4.765625 -11.453125 5.015625 -11.734375 C 5.28125 -12.03125 5.640625 -12.1875 6.078125 -12.1875 C 6.515625 -12.1875 6.890625 -12.015625 7.21875 -11.703125 C 7.53125 -11.359375 7.6875 -10.859375 7.6875 -10.203125 Z M 7.6875 -4.671875 " stroke="red" fill="none" stroke-width="0.5" /><path d="M 1.96875 -19.40625 L 1.96875 -14.875 L 0.453125 -14.875 L 0.453125 -12.46875 L 1.96875 -12.46875 L 1.96875 -4.046875 C 1.984375 -2.671875 2.296875 -1.671875 2.90625 -1.015625 C 3.5 -0.34375 4.5625 -0.015625 6.09375 -0.015625 L 6.890625 -0.015625 L 6.890625 -2.796875 L 6.5 -2.796875 C 5.984375 -2.796875 5.609375 -2.90625 5.359375 -3.125 C 5.109375 -3.34375 4.984375 -3.75 4.984375 -4.34375 L 4.984375 -12.5 L 6.890625 -12.5 L 6.890625 -14.90625 L 4.984375 -14.90625 L 4.984375 -19.421875 Z M 1.96875 -19.40625 " stroke="red" fill="none" stroke-width="0.5" /><path d="M 1.625 -3.984375 C 1.625 -2.53125 1.875 -1.46875 2.390625 -0.78125 C 2.90625 -0.09375 3.75 0.265625 4.9375 0.28125 C 6.109375 0.296875 7.015625 -0.234375 7.65625 -1.28125 L 7.6875 -1.28125 L 7.6875 0.03125 L 10.6875 0.03125 L 10.6875 -20.96875 L 7.6875 -20.96875 L 7.6875 -13.640625 C 6.9375 -14.59375 5.90625 -15.078125 4.5625 -15.078125 C 3.75 -15.078125 3.0625 -14.78125 2.5 -14.203125 C 1.9375 -13.609375 1.65625 -12.78125 1.65625 -11.703125 Z M 7.703125 -4.640625 C 7.703125 -3.984375 7.546875 -3.484375 7.234375 -3.140625 C 6.90625 -2.828125 6.53125 -2.671875 6.09375 -2.671875 C 5.65625 -2.671875 5.296875 -2.8125 5.03125 -3.109375 C 4.765625 -3.390625 4.640625 -3.84375 4.640625 -4.46875 L 4.640625 -10.5 C 4.640625 -11.015625 4.765625 -11.421875 5.03125 -11.71875 C 5.296875 -12 5.65625 -12.15625 6.09375 -12.15625 C 6.53125 -12.15625 6.90625 -11.984375 7.234375 -11.671875 C 7.546875 -11.328125 7.703125 -10.828125 7.703125 -10.171875 Z M 7.703125 -4.640625 " stroke="red" fill="none" stroke-width="0.5" /><path d="M 1.34375 -10.53125 L 1.34375 -7.828125 L 8.0625 -7.828125 L 8.0625 -10.53125 Z M 1.34375 -10.53125 " stroke="red" fill="none" stroke-width="0.5" /><path d="M 1.796875 -21 L 1.796875 0 L 4.796875 0 L 4.796875 -9.265625 L 8.84375 -9.265625 L 8.84375 0 L 11.84375 0 L 11.84375 -21 L 8.84375 -21 L 8.84375 -11.96875 L 4.796875 -11.96875 L 4.796875 -21 Z M 1.796875 -21 " stroke="red" fill="none" stroke-width="0.5" /><path d="M 10.671875 -3.984375 L 10.671875 -11.734375 C 10.65625 -12.8125 10.359375 -13.640625 9.796875 -14.234375 C 9.21875 -14.8125 8.484375 -15.109375 7.546875 -15.109375 C 6.328125 -15.109375 5.328125 -14.625 4.578125 -13.671875 L 4.578125 -21 L 1.59375 -21 L 1.59375 0 L 4.578125 0 L 4.578125 -1.3125 L 4.609375 -1.3125 C 5.234375 -0.28125 6.15625 0.234375 7.328125 0.234375 C 8.515625 0.234375 9.375 -0.109375 9.875 -0.796875 C 10.390625 -1.484375 10.640625 -2.546875 10.640625 -3.984375 Z M 4.578125 -10.1875 C 4.578125 -10.84375 4.75 -11.34375 5.0625 -11.6875 C 5.390625 -12.015625 5.765625 -12.1875 6.1875 -12.1875 C 6.625 -12.1875 6.96875 -12.03125 7.25 -11.734375 C 7.53125 -11.453125 7.65625 -11.046875 7.65625 -10.53125 L 7.65625 -4.5 C 7.671875 -3.875 7.546875 -3.421875 7.265625 -3.140625 C 6.984375 -2.84375 6.625 -2.6875 6.203125 -2.6875 C 5.78125 -2.6875 5.40625 -2.859375 5.078125 -3.1875 C 4.765625 -3.53125 4.59375 -4.03125 4.59375 -4.6875 Z M 4.578125 -10.1875 " stroke="red" fill="none" stroke-width="0.5" /><path d="M 1.625 -14.875 L 1.625 0 L 4.609375 0 L 4.609375 -8.515625 C 4.609375 -9.265625 4.765625 -9.90625 5.03125 -10.4375 C 5.3125 -10.96875 5.796875 -11.390625 6.484375 -11.71875 C 7.171875 -12.03125 7.875 -12.09375 8.609375 -11.90625 L 8.609375 -15.109375 C 6.984375 -15.109375 5.671875 -14.5 4.671875 -13.25 L 4.609375 -13.28125 L 4.609375 -14.875 Z M 1.625 -14.875 " stroke="red" fill="none" stroke-width="0.5" /><path d="M 1.796875 -20.578125 L 2.609375 -13.1875 L 3.8125 -13.1875 L 4.609375 -20.578125 Z M 1.796875 -20.578125 " stroke="red" fill="none" stroke-width="0.5" /><path d="M 10.640625 -10.375 L 10.640625 -10.46875 C 10.640625 -11.890625 10.25 -13 9.4375 -13.828125 C 8.65625 -14.6875 7.5625 -15.109375 6.203125 -15.109375 C 4.84375 -15.109375 3.71875 -14.71875 2.84375 -13.921875 C 1.96875 -13.125 1.515625 -11.875 1.515625 -10.125 L 1.515625 -5 C 1.515625 -4.40625 1.53125 -3.953125 1.5625 -3.625 C 1.59375 -3.3125 1.703125 -2.90625 1.875 -2.390625 C 2.046875 -1.875 2.328125 -1.4375 2.703125 -1.046875 C 3.53125 -0.1875 4.59375 0.234375 5.921875 0.234375 C 7.265625 0.234375 8.34375 -0.109375 9.1875 -0.78125 C 10.171875 -1.640625 10.671875 -2.765625 10.671875 -4.15625 L 10.671875 -4.421875 L 7.671875 -4.421875 L 7.671875 -4.390625 C 7.6875 -3.25 7.3125 -2.671875 6.515625 -2.671875 C 5.71875 -2.671875 5.203125 -2.84375 4.9375 -3.15625 C 4.671875 -3.484375 4.53125 -3.90625 4.53125 -4.453125 L 4.53125 -10.203125 C 4.53125 -10.84375 4.6875 -11.328125 4.984375 -11.671875 C 5.265625 -12 5.671875 -12.171875 6.171875 -12.171875 C 6.6875 -12.171875 7.078125 -11.984375 7.3125 -11.640625 C 7.546875 -11.28125 7.65625 -10.875 7.65625 -10.421875 L 7.65625 -10.359375 Z M 10.640625 -10.375 " stroke="red" fill="none" stroke-width="0.5" /><path d="M 1.5 -4.796875 C 1.5 -2.984375 1.953125 -1.703125 2.84375 -0.921875 C 3.734375 -0.140625 4.765625 0.234375 5.953125 0.234375 C 7.140625 0.234375 8.171875 -0.109375 9.03125 -0.78125 C 9.921875 -0.109375 10.9375 0.234375 12.046875 0.234375 C 13.15625 0.234375 14.109375 -0.078125 14.921875 -0.6875 C 15.984375 -1.546875 16.53125 -2.734375 16.53125 -4.25 L 16.53125 -4.359375 L 13.484375 -4.359375 C 13.46875 -3.984375 13.359375 -3.65625 13.171875 -3.390625 C 12.875 -3.03125 12.46875 -2.84375 12 -2.84375 C 11.53125 -2.84375 11.171875 -2.96875 10.921875 -3.234375 C 10.671875 -3.5 10.546875 -4.03125 10.546875 -4.828125 L 10.546875 -6.359375 L 16.609375 -6.359375 L 16.609375 -10.25 C 16.59375 -11.9375 16.09375 -13.203125 15.09375 -14.0625 C 14.28125 -14.78125 13.265625 -15.15625 12.0625 -15.15625 C 10.859375 -15.15625 9.84375 -14.8125 9 -14.140625 C 8.15625 -14.8125 7.140625 -15.15625 5.953125 -15.15625 C 4.765625 -15.171875 3.734375 -14.78125 2.84375 -14.015625 C 1.953125 -13.234375 1.5 -11.9375 1.5 -10.109375 Z M 7.546875 -4.65625 C 7.546875 -4 7.40625 -3.515625 7.109375 -3.203125 C 6.828125 -2.90625 6.453125 -2.734375 6.015625 -2.734375 C 5.578125 -2.734375 5.21875 -2.90625 4.921875 -3.203125 C 4.625 -3.515625 4.484375 -4 4.484375 -4.65625 L 4.484375 -10.296875 C 4.484375 -10.953125 4.625 -11.453125 4.9375 -11.78125 C 5.21875 -12.0625 5.5625 -12.203125 6 -12.203125 C 6.4375 -12.203125 6.8125 -12.03125 7.09375 -11.734375 C 7.390625 -11.421875 7.546875 -10.9375 7.546875 -10.28125 Z M 10.546875 -8.671875 L 10.546875 -10.5 C 10.53125 -11.015625 10.65625 -11.421875 10.921875 -11.734375 C 11.1875 -12.03125 11.546875 -12.1875 12.03125 -12.171875 C 12.515625 -12.171875 12.90625 -12.015625 13.171875 -11.734375 C 13.453125 -11.46875 13.59375 -11.0625 13.59375 -10.578125 L 13.59375 -8.625 Z M 10.546875 -8.671875 " stroke="red" fill="none" stroke-width="0.5" /><path d="M 4.609375 -14.875 L 1.625 -14.875 L 1.625 6.125 L 4.609375 6.125 L 4.609375 -1.203125 C 5.390625 -0.25 6.4375 0.234375 7.78125 0.234375 C 8.59375 0.234375 9.28125 -0.0625 9.84375 -0.640625 C 10.40625 -1.234375 10.6875 -2.0625 10.6875 -3.140625 L 10.6875 -10.875 C 10.6875 -12.328125 10.4375 -13.390625 9.921875 -14.078125 C 9.40625 -14.765625 8.609375 -15.109375 7.515625 -15.109375 C 6.796875 -15.109375 6.1875 -14.953125 5.71875 -14.640625 C 5.25 -14.328125 4.90625 -13.96875 4.65625 -13.5625 L 4.625 -13.5625 Z M 4.625 -10.1875 C 4.625 -10.84375 4.78125 -11.34375 5.109375 -11.6875 C 5.4375 -12.015625 5.8125 -12.1875 6.234375 -12.1875 C 6.65625 -12.1875 7.015625 -12.03125 7.296875 -11.734375 C 7.5625 -11.453125 7.703125 -11 7.703125 -10.375 L 7.703125 -4.34375 C 7.71875 -3.828125 7.578125 -3.421875 7.3125 -3.140625 C 7.03125 -2.84375 6.671875 -2.6875 6.25 -2.6875 C 5.828125 -2.6875 5.453125 -2.859375 5.125 -3.1875 C 4.796875 -3.53125 4.640625 -4.03125 4.640625 -4.6875 Z M 4.625 -10.1875 " stroke="red" fill="none" stroke-width="0.5" /><path d="M 1.5 -10.875 L 1.5 -3.296875 C 1.515625 -2.203125 1.796875 -1.375 2.375 -0.796875 C 2.9375 -0.203125 3.6875 0.09375 4.609375 0.09375 C 5.84375 0.09375 6.84375 -0.390625 7.578125 -1.34375 L 7.578125 1.171875 C 7.59375 2.609375 7.09375 3.328125 6.03125 3.328125 C 5.546875 3.34375 5.171875 3.1875 4.890625 2.890625 C 4.609375 2.578125 4.484375 2.203125 4.5 1.78125 L 1.5 1.78125 C 1.546875 3.046875 1.96875 4.09375 2.71875 4.96875 C 3.484375 5.828125 4.578125 6.25 6.015625 6.25 C 7.46875 6.25 8.578125 5.828125 9.375 4.984375 C 10.15625 4.125 10.5625 2.921875 10.5625 1.359375 L 10.5625 -14.890625 L 7.546875 -14.890625 L 7.546875 -13.578125 L 7.53125 -13.578125 C 6.859375 -14.609375 5.953125 -15.125 4.78125 -15.125 C 3.609375 -15.125 2.75 -14.765625 2.234375 -14.078125 C 1.734375 -13.390625 1.484375 -12.328125 1.484375 -10.890625 Z M 7.546875 -4.84375 C 7.546875 -4.1875 7.375 -3.6875 7.078125 -3.359375 C 6.765625 -3.015625 6.390625 -2.859375 5.9375 -2.859375 C 5.515625 -2.859375 5.171875 -3 4.890625 -3.3125 C 4.609375 -3.609375 4.484375 -4.015625 4.484375 -4.515625 L 4.484375 -10.390625 C 4.484375 -11 4.609375 -11.453125 4.875 -11.75 C 5.15625 -12.0625 5.5 -12.203125 5.921875 -12.203125 C 6.359375 -12.203125 6.734375 -12.046875 7.0625 -11.71875 C 7.375 -11.375 7.546875 -10.875 7.546875 -10.21875 Z M 7.546875 -4.84375 " stroke="red" fill="none" stroke-width="0.5" /><path d="M 4.5 -4.40625 L 4.5 -6.328125 L 10.5625 -6.328125 L 10.5625 -10.21875 C 10.546875 -11.90625 10.046875 -13.171875 9.046875 -14.046875 C 8.25 -14.765625 7.21875 -15.125 5.984375 -15.125 C 4.765625 -15.125 3.75 -14.78125 2.96875 -14.109375 C 1.984375 -13.28125 1.5 -12.078125 1.5 -10.515625 L 1.5 -4.8125 C 1.5 -3.21875 1.890625 -1.96875 2.6875 -1.09375 C 3.5 -0.21875 4.609375 0.21875 6.03125 0.21875 C 7.09375 0.21875 8.015625 -0.0625 8.796875 -0.609375 C 9.921875 -1.421875 10.484375 -2.640625 10.484375 -4.265625 L 10.484375 -4.375 L 7.484375 -4.375 C 7.484375 -4 7.390625 -3.65625 7.21875 -3.359375 C 6.9375 -2.921875 6.40625 -2.71875 5.640625 -2.71875 C 4.859375 -2.71875 4.484375 -3.296875 4.484375 -4.4375 Z M 4.484375 -8.671875 L 4.484375 -10.5 C 4.484375 -11.015625 4.609375 -11.421875 4.875 -11.734375 C 5.140625 -12.03125 5.5 -12.1875 5.984375 -12.171875 C 6.46875 -12.171875 6.859375 -12.015625 7.125 -11.734375 C 7.40625 -11.46875 7.546875 -11.0625 7.546875 -10.578125 L 7.546875 -8.625 Z M 6.140625 -17.3125 L 8.953125 -20.984375 L 5.734375 -20.984375 L 4.421875 -17.3125 Z M 6.140625 -17.3125 " stroke="red" fill="none" stroke-width="0.5" /><path d="M 4.5 -4.40625 L 4.5 -6.328125 L 10.5625 -6.328125 L 10.5625 -10.21875 C 10.546875 -11.90625 10.046875 -13.171875 9.046875 -14.046875 C 8.25 -14.765625 7.21875 -15.125 5.984375 -15.125 C 4.765625 -15.125 3.75 -14.78125 2.96875 -14.109375 C 1.984375 -13.28125 1.5 -12.078125 1.5 -10.515625 L 1.5 -4.8125 C 1.5 -3.21875 1.890625 -1.96875 2.6875 -1.09375 C 3.5 -0.21875 4.609375 0.21875 6.03125 0.21875 C 7.09375 0.21875 8.015625 -0.0625 8.796875 -0.609375 C 9.921875 -1.421875 10.484375 -2.640625 10.484375 -4.265625 L 10.484375 -4.375 L 7.484375 -4.375 C 7.484375 -4 7.390625 -3.65625 7.21875 -3.359375 C 6.9375 -2.921875 6.40625 -2.71875 5.640625 -2.71875 C 4.859375 -2.71875 4.484375 -3.296875 4.484375 -4.4375 Z M 4.484375 -8.671875 L 4.484375 -10.5 C 4.484375 -11.015625 4.609375 -11.421875 4.875 -11.734375 C 5.140625 -12.03125 5.5 -12.1875 5.984375 -12.171875 C 6.46875 -12.171875 6.859375 -12.015625 7.125 -11.734375 C 7.40625 -11.46875 7.546875 -11.0625 7.546875 -10.578125 L 7.546875 -8.625 Z M 5.734375 -17.3125 L 7.453125 -17.3125 L 6.140625 -20.984375 L 2.921875 -20.984375 Z M 5.734375 -17.3125 " stroke="red" fill="none" stroke-width="0.5" /><path d="" stroke="red" fill="none" stroke-width="0.5" /><path d="M 1.203125 0 L 3.203125 0 L 3.203125 -5.53125 L 4.375 -5.53125 C 5.578125 -5.53125 6.484375 -5.890625 7.078125 -6.59375 C 7.6875 -7.296875 7.984375 -8.25 7.984375 -9.46875 L 7.984375 -9.875 C 7.984375 -11.3125 7.671875 -12.359375 7.03125 -13.015625 C 6.375 -13.671875 5.4375 -14 4.171875 -14 L 1.203125 -14 Z M 3.203125 -12.1875 L 3.890625 -12.1875 C 4.640625 -12.171875 5.1875 -12.046875 5.5 -11.78125 C 5.828125 -11.515625 5.984375 -10.984375 5.984375 -10.203125 L 5.984375 -8.640625 C 5.984375 -8.625 5.96875 -8.515625 5.90625 -8.328125 C 5.84375 -8.140625 5.75 -7.984375 5.625 -7.828125 C 5.296875 -7.5 4.84375 -7.3125 4.28125 -7.3125 L 3.203125 -7.3125 Z M 3.203125 -12.1875 " stroke="red" fill="none" stroke-width="0.5" /><path d="M 1.078125 -9.921875 L 1.078125 0 L 3.078125 0 L 3.078125 -5.671875 C 3.078125 -6.171875 3.171875 -6.609375 3.359375 -6.953125 C 3.546875 -7.3125 3.859375 -7.59375 4.328125 -7.8125 C 4.78125 -8.015625 5.25 -8.0625 5.734375 -7.9375 L 5.734375 -10.0625 C 4.65625 -10.0625 3.78125 -9.65625 3.109375 -8.828125 L 3.078125 -8.84375 L 3.078125 -9.921875 Z M 1.078125 -9.921875 " stroke="red" fill="none" stroke-width="0.5" /><path d="M 1 -3.203125 C 1 -1.984375 1.296875 -1.125 1.890625 -0.609375 C 2.484375 -0.09375 3.1875 0.171875 4.015625 0.171875 C 4.828125 0.1875 5.53125 -0.0625 6.125 -0.578125 C 6.71875 -1.109375 7.03125 -1.96875 7.03125 -3.1875 L 7.03125 -6.6875 C 7.03125 -7.90625 6.71875 -8.78125 6.125 -9.296875 C 5.53125 -9.796875 4.828125 -10.046875 4 -10.0625 C 3.1875 -10.0625 2.46875 -9.8125 1.875 -9.296875 C 1.28125 -8.78125 0.96875 -7.90625 0.96875 -6.703125 Z M 5.015625 -3.0625 C 5.015625 -2.625 4.921875 -2.296875 4.71875 -2.09375 C 4.53125 -1.890625 4.28125 -1.78125 3.984375 -1.78125 C 3.703125 -1.78125 3.453125 -1.890625 3.265625 -2.09375 C 3.0625 -2.296875 2.96875 -2.625 2.96875 -3.0625 L 2.96875 -6.828125 C 2.96875 -7.265625 3.0625 -7.59375 3.265625 -7.8125 C 3.453125 -8 3.6875 -8.09375 3.984375 -8.09375 C 4.28125 -8.09375 4.515625 -7.984375 4.71875 -7.78125 C 4.90625 -7.578125 5 -7.25 5 -6.8125 Z M 5.015625 -3.0625 " stroke="red" fill="none" stroke-width="0.5" /><path d="M 0.0625 2.125 L -0.296875 2.125 L -0.296875 4.078125 L 0.34375 4.078125 C 1.734375 4.078125 2.53125 3.75 2.75 3.109375 C 2.96875 2.46875 3.078125 2.046875 3.09375 1.859375 C 3.109375 1.671875 3.109375 1.421875 3.109375 1.109375 L 3.109375 -9.921875 L 1.125 -9.921875 L 1.125 0.9375 C 1.125 1.734375 0.765625 2.125 0.0625 2.125 Z M 1.125 -13.703125 L 1.125 -11.75 L 3.109375 -11.75 L 3.109375 -13.703125 Z M 1.125 -13.703125 " stroke="red" fill="none" stroke-width="0.5" /><path d="M 3 -2.9375 L 3 -4.21875 L 7.03125 -4.21875 L 7.03125 -6.8125 C 7.03125 -7.9375 6.6875 -8.78125 6.03125 -9.359375 C 5.5 -9.84375 4.8125 -10.078125 3.984375 -10.078125 C 3.171875 -10.078125 2.5 -9.859375 1.984375 -9.40625 C 1.328125 -8.84375 1 -8.046875 1 -7 L 1 -3.203125 C 1 -2.140625 1.265625 -1.3125 1.796875 -0.734375 C 2.328125 -0.140625 3.078125 0.140625 4.015625 0.140625 C 4.734375 0.140625 5.34375 -0.03125 5.859375 -0.40625 C 6.609375 -0.953125 6.984375 -1.75 6.984375 -2.84375 L 6.984375 -2.921875 L 4.984375 -2.921875 C 4.984375 -2.65625 4.921875 -2.4375 4.8125 -2.234375 C 4.625 -1.953125 4.28125 -1.8125 3.75 -1.8125 C 3.234375 -1.8125 2.984375 -2.203125 2.984375 -2.953125 Z M 2.984375 -5.78125 L 2.984375 -7 C 2.984375 -7.34375 3.078125 -7.609375 3.25 -7.8125 C 3.421875 -8.015625 3.671875 -8.125 3.984375 -8.109375 C 4.3125 -8.109375 4.5625 -8.015625 4.75 -7.828125 C 4.9375 -7.640625 5.03125 -7.375 5.03125 -7.046875 L 5.03125 -5.75 Z M 2.984375 -5.78125 " stroke="red" fill="none" stroke-width="0.5" /><path d="M 1.3125 -12.921875 L 1.3125 -9.921875 L 0.296875 -9.921875 L 0.296875 -8.3125 L 1.3125 -8.3125 L 1.3125 -2.6875 C 1.328125 -1.78125 1.53125 -1.109375 1.9375 -0.671875 C 2.328125 -0.234375 3.046875 -0.015625 4.0625 -0.015625 L 4.59375 -0.015625 L 4.59375 -1.859375 L 4.328125 -1.859375 C 3.984375 -1.859375 3.734375 -1.9375 3.578125 -2.078125 C 3.40625 -2.21875 3.3125 -2.5 3.3125 -2.890625 L 3.3125 -8.328125 L 4.59375 -8.328125 L 4.59375 -9.9375 L 3.3125 -9.9375 L 3.3125 -12.953125 Z M 1.3125 -12.921875 " stroke="red" fill="none" stroke-width="0.5" /><path d="M 1.078125 -2.65625 C 1.078125 -1.6875 1.25 -0.96875 1.59375 -0.515625 C 1.9375 -0.0625 2.5 0.171875 3.28125 0.1875 C 4.0625 0.1875 4.671875 -0.15625 5.109375 -0.859375 L 5.125 -0.859375 L 5.125 0.015625 L 7.125 0.015625 L 7.125 -13.96875 L 5.125 -13.96875 L 5.125 -9.09375 C 4.625 -9.734375 3.9375 -10.046875 3.046875 -10.046875 C 2.5 -10.046875 2.046875 -9.859375 1.671875 -9.46875 C 1.28125 -9.078125 1.109375 -8.515625 1.109375 -7.796875 Z M 5.125 -3.09375 C 5.125 -2.65625 5.03125 -2.328125 4.828125 -2.09375 C 4.609375 -1.890625 4.359375 -1.78125 4.0625 -1.78125 C 3.765625 -1.78125 3.53125 -1.875 3.359375 -2.0625 C 3.1875 -2.265625 3.09375 -2.5625 3.09375 -2.96875 L 3.09375 -7 C 3.09375 -7.34375 3.1875 -7.609375 3.359375 -7.8125 C 3.53125 -8 3.765625 -8.09375 4.0625 -8.09375 C 4.359375 -8.09375 4.609375 -7.984375 4.828125 -7.78125 C 5.03125 -7.546875 5.125 -7.21875 5.125 -6.78125 Z M 5.125 -3.09375 " stroke="red" fill="none" stroke-width="0.5" /><path d="M 4.765625 -12.234375 L 5.15625 -12.234375 L 5.15625 -14 L 4.4375 -14 C 3.5 -13.984375 2.765625 -13.765625 2.28125 -13.34375 C 1.78125 -12.90625 1.53125 -12.203125 1.53125 -11.234375 L 1.53125 -9.921875 L 0.484375 -9.921875 L 0.484375 -8.3125 L 1.53125 -8.3125 L 1.53125 0 L 3.546875 0 L 3.546875 -8.3125 L 5.140625 -8.3125 L 5.140625 -9.921875 L 3.515625 -9.921875 L 3.515625 -10.921875 C 3.515625 -11.796875 3.9375 -12.234375 4.765625 -12.234375 Z M 6.265625 0 L 8.265625 0 L 8.265625 -9.921875 L 6.265625 -9.921875 Z M 6.265625 -13.703125 L 6.265625 -11.75 L 8.265625 -11.75 L 8.265625 -13.703125 Z M 6.265625 -13.703125 " stroke="red" fill="none" stroke-width="0.5" /><path d="M 1.078125 0 L 3.078125 0 L 3.078125 -6.796875 C 3.078125 -7.234375 3.1875 -7.5625 3.390625 -7.78125 C 3.609375 -8.015625 3.859375 -8.125 4.140625 -8.125 C 4.4375 -8.125 4.671875 -8.015625 4.84375 -7.828125 C 5.03125 -7.625 5.125 -7.359375 5.125 -7.015625 L 5.125 0 L 7.125 0 L 7.125 -7.8125 C 7.140625 -8.53125 6.953125 -9.09375 6.5625 -9.484375 C 6.1875 -9.875 5.6875 -10.0625 5.0625 -10.0625 C 4.28125 -10.078125 3.609375 -9.734375 3.078125 -9.015625 L 3.078125 -9.921875 L 1.078125 -9.921875 Z M 1.078125 0 " stroke="red" fill="none" stroke-width="0.5" /><path d="M 1.203125 -13.703125 L 1.734375 -8.796875 L 2.53125 -8.796875 L 3.078125 -13.703125 Z M 1.203125 -13.703125 " stroke="red" fill="none" stroke-width="0.5" /><path d="M 3 -2.9375 L 3 -4.21875 L 7.03125 -4.21875 L 7.03125 -6.8125 C 7.03125 -7.9375 6.6875 -8.78125 6.03125 -9.359375 C 5.5 -9.84375 4.8125 -10.078125 3.984375 -10.078125 C 3.171875 -10.078125 2.5 -9.859375 1.984375 -9.40625 C 1.328125 -8.84375 1 -8.046875 1 -7 L 1 -3.203125 C 1 -2.140625 1.265625 -1.3125 1.796875 -0.734375 C 2.328125 -0.140625 3.078125 0.140625 4.015625 0.140625 C 4.734375 0.140625 5.34375 -0.03125 5.859375 -0.40625 C 6.609375 -0.953125 6.984375 -1.75 6.984375 -2.84375 L 6.984375 -2.921875 L 4.984375 -2.921875 C 4.984375 -2.65625 4.921875 -2.4375 4.8125 -2.234375 C 4.625 -1.953125 4.28125 -1.8125 3.75 -1.8125 C 3.234375 -1.8125 2.984375 -2.203125 2.984375 -2.953125 Z M 2.984375 -5.78125 L 2.984375 -7 C 2.984375 -7.34375 3.078125 -7.609375 3.25 -7.8125 C 3.421875 -8.015625 3.671875 -8.125 3.984375 -8.109375 C 4.3125 -8.109375 4.5625 -8.015625 4.75 -7.828125 C 4.9375 -7.640625 5.03125 -7.375 5.03125 -7.046875 L 5.03125 -5.75 Z M 4.09375 -11.546875 L 5.96875 -13.984375 L 3.828125 -13.984375 L 2.953125 -11.546875 Z M 4.09375 -11.546875 " stroke="red" fill="none" stroke-width="0.5" /><path d="M 3.078125 -2.890625 L 3.078125 -9.921875 L 1.078125 -9.921875 L 1.078125 -2.09375 C 1.078125 -0.59375 1.78125 0.15625 3.15625 0.15625 C 3.9375 0.15625 4.59375 -0.21875 5.109375 -1 L 5.109375 0 L 7.109375 0 L 7.109375 -9.921875 L 5.109375 -9.921875 L 5.109375 -3.109375 C 5.125 -2.703125 5.015625 -2.375 4.796875 -2.140625 C 4.59375 -1.90625 4.328125 -1.796875 4.03125 -1.796875 C 3.390625 -1.796875 3.078125 -2.171875 3.078125 -2.890625 Z M 3.078125 -2.890625 " stroke="red" fill="none" stroke-width="0.5" /><path d="M 6.71875 -7.234375 C 6.71875 -8.078125 6.453125 -8.765625 5.953125 -9.265625 C 5.4375 -9.8125 4.71875 -10.0625 3.75 -10.0625 C 2.78125 -10.0625 2.046875 -9.8125 1.515625 -9.28125 C 1 -8.75 0.75 -8.09375 0.75 -7.28125 C 0.75 -6.46875 0.90625 -5.875 1.234375 -5.5 C 1.546875 -5.109375 1.984375 -4.8125 2.53125 -4.59375 L 3.703125 -4.09375 C 4.109375 -3.90625 4.375 -3.734375 4.515625 -3.53125 C 4.640625 -3.34375 4.71875 -3.078125 4.71875 -2.765625 C 4.71875 -2.453125 4.625 -2.203125 4.4375 -1.984375 C 4.25 -1.78125 3.984375 -1.671875 3.65625 -1.671875 C 3.3125 -1.671875 3.046875 -1.78125 2.859375 -1.984375 C 2.671875 -2.1875 2.578125 -2.453125 2.578125 -2.765625 L 0.578125 -2.765625 C 0.578125 -1.9375 0.84375 -1.234375 1.359375 -0.671875 C 1.875 -0.109375 2.65625 0.171875 3.703125 0.171875 C 4.75 0.171875 5.53125 -0.171875 6.0625 -0.828125 C 6.484375 -1.34375 6.703125 -1.984375 6.703125 -2.765625 C 6.703125 -4.140625 6.109375 -5.078125 4.921875 -5.53125 L 3.734375 -6.046875 C 3.359375 -6.171875 3.109375 -6.34375 2.953125 -6.53125 C 2.8125 -6.734375 2.734375 -6.96875 2.75 -7.25 C 2.75 -7.53125 2.84375 -7.75 3.046875 -7.9375 C 3.234375 -8.109375 3.46875 -8.203125 3.75 -8.203125 C 4.046875 -8.203125 4.28125 -8.109375 4.453125 -7.9375 C 4.609375 -7.75 4.71875 -7.5 4.75 -7.21875 Z M 6.71875 -7.234375 " stroke="red" fill="none" stroke-width="0.5" /><path d="M 0.890625 -7.015625 L 0.890625 -5.21875 L 5.375 -5.21875 L 5.375 -7.015625 Z M 0.890625 -7.015625 " stroke="red" fill="none" stroke-width="0.5" /><path d="M 1.203125 -14 L 1.203125 0 L 4.171875 0 C 5.390625 0 6.328125 -0.34375 6.953125 -1.03125 C 7.59375 -1.734375 7.90625 -2.703125 7.90625 -3.96875 L 7.90625 -10.125 C 7.890625 -11.484375 7.5625 -12.46875 6.90625 -13.078125 C 6.234375 -13.703125 5.234375 -14 3.90625 -14 Z M 3.203125 -12.046875 L 4.21875 -12.046875 C 4.84375 -12.046875 5.265625 -11.890625 5.515625 -11.578125 C 5.78125 -11.265625 5.90625 -10.828125 5.90625 -10.28125 L 5.90625 -4.09375 C 5.90625 -3.328125 5.75 -2.78125 5.4375 -2.453125 C 5.140625 -2.140625 4.6875 -1.96875 4.109375 -1.96875 L 3.203125 -1.96875 Z M 3.203125 -12.046875 " stroke="red" fill="none" stroke-width="0.5" /><path d="M 11.078125 -7.546875 C 11.0625 -8.296875 10.890625 -8.90625 10.546875 -9.375 C 10.203125 -9.84375 9.625 -10.0625 8.8125 -10.078125 C 7.984375 -10.09375 7.34375 -9.6875 6.84375 -8.890625 C 6.6875 -9.25 6.4375 -9.53125 6.125 -9.75 C 5.796875 -9.96875 5.4375 -10.0625 5.046875 -10.0625 C 4.296875 -10.0625 3.625 -9.71875 3.0625 -9.015625 L 3.0625 -9.921875 L 1.078125 -9.921875 L 1.078125 0 L 3.0625 0 L 3.0625 -6.796875 C 3.0625 -7.234375 3.171875 -7.5625 3.375 -7.78125 C 3.578125 -8.015625 3.828125 -8.125 4.109375 -8.109375 C 4.390625 -8.109375 4.609375 -8.015625 4.796875 -7.8125 C 4.96875 -7.625 5.046875 -7.359375 5.046875 -7.03125 L 5.046875 -0.015625 L 7.0625 -0.015625 L 7.0625 -6.796875 C 7.0625 -7.234375 7.15625 -7.578125 7.375 -7.796875 C 7.578125 -8.015625 7.828125 -8.125 8.09375 -8.125 C 8.375 -8.125 8.609375 -8.03125 8.796875 -7.828125 C 8.96875 -7.625 9.0625 -7.359375 9.0625 -7.03125 L 9.0625 -0.015625 L 11.0625 -0.015625 Z M 11.078125 -7.546875 " stroke="red" fill="none" stroke-width="0.5" /><path d="M 1.078125 0 L 3.078125 0 L 3.078125 -9.921875 L 1.078125 -9.921875 Z M 1.078125 -13.703125 L 1.078125 -11.75 L 3.078125 -11.75 L 3.078125 -13.703125 Z M 1.078125 -13.703125 " stroke="red" fill="none" stroke-width="0.5" /><path d="M 7.09375 -6.921875 L 7.09375 -6.984375 C 7.09375 -7.921875 6.828125 -8.671875 6.296875 -9.21875 C 5.765625 -9.78125 5.046875 -10.0625 4.140625 -10.0625 C 3.234375 -10.0625 2.484375 -9.8125 1.890625 -9.28125 C 1.3125 -8.75 1.015625 -7.90625 1.015625 -6.75 L 1.015625 -3.34375 C 1.015625 -2.9375 1.03125 -2.640625 1.046875 -2.421875 C 1.0625 -2.203125 1.125 -1.9375 1.25 -1.59375 C 1.359375 -1.25 1.546875 -0.953125 1.8125 -0.703125 C 2.359375 -0.125 3.0625 0.15625 3.953125 0.15625 C 4.84375 0.15625 5.5625 -0.0625 6.125 -0.515625 C 6.78125 -1.09375 7.109375 -1.84375 7.109375 -2.765625 L 7.109375 -2.953125 L 5.109375 -2.953125 L 5.109375 -2.921875 C 5.125 -2.171875 4.875 -1.78125 4.34375 -1.78125 C 3.8125 -1.78125 3.46875 -1.890625 3.28125 -2.109375 C 3.109375 -2.328125 3.03125 -2.609375 3.03125 -2.96875 L 3.03125 -6.796875 C 3.03125 -7.234375 3.125 -7.546875 3.3125 -7.78125 C 3.515625 -8 3.78125 -8.109375 4.125 -8.109375 C 4.453125 -8.109375 4.71875 -7.984375 4.875 -7.75 C 5.03125 -7.515625 5.109375 -7.25 5.109375 -6.953125 L 5.109375 -6.90625 Z M 7.09375 -6.921875 " stroke="red" fill="none" stroke-width="0.5" /><path d="M 2.890625 -3.453125 L 2.890625 -3.828125 L 0.890625 -3.828125 L 0.890625 -3.375 C 0.890625 -2.375 1.109375 -1.578125 1.546875 -1 C 2.125 -0.1875 3.046875 0.203125 4.328125 0.203125 C 6.6875 0.203125 7.890625 -1.125 7.890625 -3.8125 L 7.890625 -4.28125 C 7.890625 -5.34375 7.703125 -6.140625 7.328125 -6.65625 C 6.953125 -7.171875 6.328125 -7.59375 5.453125 -7.90625 L 4.234375 -8.359375 C 3.78125 -8.53125 3.453125 -8.765625 3.265625 -9.03125 C 3.078125 -9.296875 3 -9.75 3 -10.40625 C 2.984375 -11.0625 3.125 -11.53125 3.390625 -11.796875 C 3.671875 -12.078125 4 -12.203125 4.40625 -12.203125 C 5.328125 -12.203125 5.796875 -11.625 5.796875 -10.46875 L 5.796875 -10.09375 L 7.796875 -10.09375 L 7.796875 -10.546875 C 7.796875 -11.703125 7.5 -12.59375 6.890625 -13.21875 C 6.28125 -13.859375 5.46875 -14.171875 4.453125 -14.171875 C 3.421875 -14.171875 2.625 -13.890625 2.046875 -13.3125 C 1.34375 -12.640625 1 -11.78125 1 -10.71875 L 1 -10.3125 C 1 -9.40625 1.09375 -8.71875 1.296875 -8.265625 C 1.609375 -7.546875 2.21875 -7.03125 3.140625 -6.703125 L 4.59375 -6.1875 C 5.046875 -6.015625 5.390625 -5.78125 5.578125 -5.515625 C 5.78125 -5.265625 5.875 -4.796875 5.875 -4.125 L 5.875 -3.609375 C 5.875 -2.953125 5.75 -2.484375 5.515625 -2.171875 C 5.265625 -1.875 4.859375 -1.734375 4.28125 -1.734375 C 3.34375 -1.734375 2.875 -2.296875 2.875 -3.421875 Z M 2.890625 -3.453125 " stroke="red" fill="none" stroke-width="0.5" /><path d="M 0.890625 -2.640625 C 0.890625 -0.765625 1.65625 0.15625 3.140625 0.15625 C 3.890625 0.15625 4.515625 -0.21875 4.984375 -0.96875 L 5.015625 -0.96875 L 5.015625 0 L 7.015625 0 L 7.015625 -6.9375 C 7.015625 -7.9375 6.75 -8.71875 6.203125 -9.265625 C 5.640625 -9.8125 4.90625 -10.0625 4 -10.0625 C 3.09375 -10.0625 2.359375 -9.796875 1.8125 -9.234375 C 1.25 -8.6875 0.96875 -7.96875 0.984375 -7.109375 L 2.890625 -7.109375 C 2.890625 -7.359375 3 -7.59375 3.1875 -7.796875 C 3.359375 -8 3.625 -8.109375 3.953125 -8.109375 C 4.28125 -8.109375 4.546875 -8.015625 4.734375 -7.8125 C 4.921875 -7.59375 5.015625 -7.3125 5.015625 -6.953125 L 5.015625 -5.90625 C 4.59375 -5.9375 4.21875 -5.96875 3.875 -5.96875 C 2.796875 -5.96875 2.015625 -5.671875 1.53125 -5.109375 C 1.109375 -4.625 0.90625 -3.796875 0.90625 -2.625 Z M 2.90625 -2.90625 C 2.90625 -3.890625 3.375 -4.375 4.328125 -4.375 C 4.546875 -4.359375 4.78125 -4.34375 5.03125 -4.296875 L 5.03125 -2.90625 C 5.03125 -2.5 4.921875 -2.1875 4.703125 -1.96875 C 4.484375 -1.734375 4.21875 -1.625 3.890625 -1.625 C 3.546875 -1.625 3.3125 -1.75 3.15625 -2.015625 C 3 -2.28125 2.921875 -2.578125 2.90625 -2.90625 Z M 2.90625 -2.90625 " stroke="red" fill="none" stroke-width="0.5" /><path d="M 5.234375 -10.890625 L 5.234375 -10.59375 C 5.234375 -10.1875 5.1875 -9.84375 5.09375 -9.53125 C 5 -9.21875 4.84375 -8.828125 4.625 -8.359375 L 1.09375 -1.828125 L 1.09375 0 L 7.21875 0 L 7.21875 -1.90625 L 3.390625 -1.90625 L 6.546875 -7.828125 C 6.796875 -8.265625 6.96875 -8.65625 7.078125 -9 C 7.1875 -9.34375 7.234375 -9.75 7.234375 -10.21875 L 7.234375 -10.953125 C 7.234375 -11.890625 7 -12.65625 6.5 -13.265625 C 6 -13.890625 5.265625 -14.1875 4.28125 -14.1875 C 3.28125 -14.1875 2.515625 -13.90625 1.96875 -13.328125 C 1.40625 -12.75 1.125 -11.9375 1.125 -10.890625 L 1.125 -10.0625 L 3.125 -10.0625 L 3.125 -10.609375 C 3.125 -11.15625 3.203125 -11.5625 3.359375 -11.828125 C 3.515625 -12.09375 3.78125 -12.234375 4.140625 -12.234375 C 4.890625 -12.25 5.265625 -11.796875 5.265625 -10.890625 Z M 5.234375 -10.890625 " stroke="red" fill="none" stroke-width="0.5" /><path d="M 1.109375 -3.015625 C 1.109375 -1.859375 1.4375 -1 2.140625 -0.4375 C 2.65625 -0.015625 3.34375 0.1875 4.171875 0.1875 C 5.015625 0.1875 5.671875 -0.015625 6.171875 -0.40625 C 6.65625 -0.8125 6.953125 -1.203125 7.078125 -1.625 C 7.1875 -2.03125 7.25 -2.484375 7.25 -3 L 7.25 -10.953125 C 7.265625 -11.96875 7 -12.734375 6.5 -13.265625 C 5.890625 -13.890625 5.125 -14.1875 4.21875 -14.1875 C 3.3125 -14.1875 2.5625 -13.9375 1.984375 -13.4375 C 1.390625 -12.9375 1.109375 -12.125 1.109375 -10.984375 Z M 4.171875 -1.765625 C 3.453125 -1.765625 3.09375 -2.28125 3.09375 -3.3125 L 3.09375 -10.703125 C 3.09375 -11.734375 3.453125 -12.234375 4.171875 -12.234375 C 4.90625 -12.234375 5.265625 -11.734375 5.265625 -10.703125 L 5.265625 -3.3125 C 5.265625 -2.28125 4.90625 -1.765625 4.171875 -1.765625 Z M 4.171875 -1.765625 " stroke="red" fill="none" stroke-width="0.5" /><path d="M 5.171875 -8.171875 C 4.609375 -8.171875 4.234375 -8.09375 4.03125 -7.9375 L 6.515625 -14 L 4.359375 -14 L 1.859375 -7.796875 C 1.828125 -7.734375 1.765625 -7.5625 1.65625 -7.3125 C 1.546875 -7.0625 1.484375 -6.875 1.4375 -6.765625 C 1.40625 -6.671875 1.34375 -6.46875 1.265625 -6.1875 C 1.171875 -5.90625 1.125 -5.5 1.125 -4.953125 L 1.125 -2.921875 C 1.125 -1.9375 1.421875 -1.171875 2 -0.625 C 2.578125 -0.078125 3.3125 0.1875 4.21875 0.1875 C 5.125 0.1875 5.859375 -0.0625 6.390625 -0.59375 C 6.921875 -1.125 7.1875 -1.890625 7.1875 -2.875 L 7.1875 -5.59375 C 7.1875 -6.359375 6.984375 -6.96875 6.59375 -7.453125 C 6.1875 -7.921875 5.703125 -8.171875 5.15625 -8.171875 Z M 4.09375 -1.75 C 3.78125 -1.75 3.546875 -1.859375 3.375 -2.0625 C 3.203125 -2.28125 3.125 -2.5625 3.125 -2.921875 L 3.125 -5.3125 C 3.109375 -5.671875 3.21875 -5.96875 3.4375 -6.1875 C 3.671875 -6.40625 3.9375 -6.53125 4.234375 -6.53125 C 4.53125 -6.53125 4.765625 -6.4375 4.9375 -6.21875 C 5.109375 -6.015625 5.1875 -5.734375 5.1875 -5.375 L 5.1875 -3.09375 C 5.1875 -2.1875 4.828125 -1.734375 4.09375 -1.734375 Z M 4.09375 -1.75 " stroke="red" fill="none" stroke-width="0.5" /><path d="M 1 -9.8125 L 1 -7.71875 L 3.09375 -7.71875 L 3.09375 -9.8125 Z M 1 -2.09375 L 1 0 L 3.09375 0 L 3.09375 -2.09375 Z M 1 -2.09375 " stroke="red" fill="none" stroke-width="0.5" /><path d="M 1.203125 0 L 3.203125 0 L 3.203125 -8.75 L 3.296875 -8.75 L 5.390625 -2.4375 L 6.453125 -2.4375 L 8.5625 -8.75 L 8.65625 -8.75 L 8.65625 0 L 10.65625 0 L 10.65625 -14 L 8.65625 -14 L 6.03125 -6.28125 L 5.953125 -6.28125 L 3.203125 -14 L 1.203125 -14 Z M 1.203125 0 " stroke="red" fill="none" stroke-width="0.5" /><path d="M 1 -2.203125 L 1 0 L 3.203125 0 L 3.203125 -2.203125 Z M 1 -2.203125 " stroke="red" fill="none" stroke-width="0.5" /><path d="M 8.0625 0 L 5.015625 -14 L 3.265625 -14 L 0.1875 0 L 2.203125 0 L 2.859375 -3 L 5.421875 -3 L 6.078125 0 Z M 5.171875 -4.765625 L 3.046875 -4.765625 L 4.09375 -10.09375 Z M 5.171875 -4.765625 " stroke="red" fill="none" stroke-width="0.5" /><path d="M 1.203125 -14 L 1.203125 0 L 3.203125 0 L 3.203125 -6.171875 L 5.890625 -6.171875 L 5.890625 0 L 7.890625 0 L 7.890625 -14 L 5.890625 -14 L 5.890625 -7.96875 L 3.203125 -7.96875 L 3.203125 -14 Z M 1.203125 -14 " stroke="red" fill="none" stroke-width="0.5" /><path d="M 7.8125 -4.640625 C 7.8125 -5.96875 7.375 -6.84375 6.453125 -7.265625 C 6.765625 -7.453125 7.015625 -7.671875 7.21875 -7.90625 C 7.625 -8.390625 7.828125 -9.109375 7.828125 -10.09375 C 7.828125 -11.625 7.390625 -12.6875 6.546875 -13.3125 C 5.90625 -13.765625 5.03125 -14 3.90625 -14 L 1.203125 -14 L 1.203125 0 L 4.25 0 C 5.265625 0 6.046875 -0.21875 6.625 -0.65625 C 7.421875 -1.265625 7.828125 -2.234375 7.828125 -3.578125 Z M 3.203125 -12.1875 L 4.140625 -12.1875 C 4.703125 -12.1875 5.125 -12.03125 5.4375 -11.734375 C 5.6875 -11.453125 5.8125 -11.125 5.8125 -10.765625 L 5.8125 -9.90625 C 5.8125 -9.390625 5.671875 -8.984375 5.40625 -8.671875 C 5.125 -8.34375 4.71875 -8.1875 4.15625 -8.1875 L 3.203125 -8.1875 Z M 3.203125 -6.375 L 4.21875 -6.375 C 4.640625 -6.390625 5 -6.25 5.328125 -5.984375 C 5.65625 -5.703125 5.8125 -5.203125 5.8125 -4.484375 L 5.8125 -3.828125 C 5.8125 -3.203125 5.703125 -2.734375 5.453125 -2.40625 C 5.15625 -1.984375 4.71875 -1.78125 4.09375 -1.78125 L 3.203125 -1.78125 Z M 3.203125 -6.375 " stroke="red" fill="none" stroke-width="0.5" /><path d="M 1.203125 -14 L 1.203125 0 L 3.203125 0 L 3.203125 -14 Z M 1.203125 -14 " stroke="red" fill="none" stroke-width="0.5" /><path d="M 5.109375 -9.921875 L 5.109375 -9.03125 L 5.09375 -9.03125 C 4.9375 -9.296875 4.703125 -9.53125 4.390625 -9.75 C 4.078125 -9.96875 3.671875 -10.0625 3.203125 -10.0625 C 2.46875 -10.0625 1.9375 -9.84375 1.59375 -9.375 C 1.25 -8.921875 1.078125 -8.203125 1.078125 -7.25 L 1.078125 -2.09375 C 1.09375 -1.375 1.28125 -0.8125 1.671875 -0.421875 C 2.046875 -0.03125 2.546875 0.15625 3.15625 0.15625 C 3.96875 0.15625 4.625 -0.171875 5.125 -0.796875 L 5.125 4.078125 L 7.125 4.078125 L 7.125 -9.921875 Z M 5.125 -3.109375 C 5.125 -2.671875 5.015625 -2.34375 4.8125 -2.125 C 4.59375 -1.90625 4.34375 -1.796875 4.046875 -1.796875 C 3.75 -1.796875 3.515625 -1.890625 3.34375 -2.09375 C 3.171875 -2.28125 3.078125 -2.5625 3.078125 -2.890625 L 3.078125 -6.921875 C 3.078125 -7.328125 3.171875 -7.625 3.34375 -7.828125 C 3.515625 -8.015625 3.75 -8.125 4.046875 -8.125 C 4.34375 -8.125 4.59375 -8.015625 4.8125 -7.796875 C 5.015625 -7.578125 5.125 -7.234375 5.125 -6.796875 Z M 5.125 -3.109375 " stroke="red" fill="none" stroke-width="0.5" /><path d="M 1.203125 0 L 7.1875 0 L 7.1875 -1.90625 L 3.203125 -1.90625 L 3.203125 -6.171875 L 6.671875 -6.171875 L 6.671875 -7.96875 L 3.203125 -7.96875 L 3.203125 -12.09375 L 7.140625 -12.09375 L 7.140625 -14 L 1.203125 -14 Z M 1.203125 0 " stroke="red" fill="none" stroke-width="0.5" /><path d="M 1.203125 -14 L 1.203125 0 L 3.203125 0 L 3.203125 -8.796875 L 6.53125 0 L 8.53125 0 L 8.53125 -14 L 6.53125 -14 L 6.53125 -5.1875 L 3.203125 -14 Z M 1.203125 -14 " stroke="red" fill="none" stroke-width="0.5" /><path d="M 3.078125 -9.921875 L 1.078125 -9.921875 L 1.078125 4.078125 L 3.078125 4.078125 L 3.078125 -0.796875 C 3.59375 -0.171875 4.296875 0.15625 5.1875 0.15625 C 5.734375 0.15625 6.1875 -0.03125 6.5625 -0.421875 C 6.9375 -0.8125 7.125 -1.375 7.125 -2.09375 L 7.125 -7.25 C 7.125 -8.21875 6.953125 -8.921875 6.609375 -9.390625 C 6.28125 -9.84375 5.734375 -10.0625 5 -10.0625 C 4.53125 -10.0625 4.125 -9.96875 3.8125 -9.765625 C 3.5 -9.546875 3.265625 -9.3125 3.109375 -9.03125 L 3.078125 -9.03125 Z M 3.078125 -6.796875 C 3.078125 -7.234375 3.1875 -7.5625 3.40625 -7.78125 C 3.625 -8.015625 3.875 -8.125 4.15625 -8.125 C 4.4375 -8.125 4.671875 -8.015625 4.859375 -7.828125 C 5.046875 -7.625 5.125 -7.328125 5.125 -6.921875 L 5.125 -2.890625 C 5.140625 -2.5625 5.046875 -2.28125 4.875 -2.09375 C 4.6875 -1.890625 4.453125 -1.796875 4.171875 -1.796875 C 3.890625 -1.796875 3.625 -1.90625 3.421875 -2.125 C 3.203125 -2.359375 3.09375 -2.6875 3.09375 -3.125 Z M 3.078125 -6.796875 " stroke="red" fill="none" stroke-width="0.5" /><path d="M 3.625 0 L 4.203125 0 L 4.203125 -1.859375 L 4 -1.859375 C 3.390625 -1.859375 3.078125 -2.1875 3.078125 -2.8125 L 3.078125 -14 L 1.078125 -14 L 1.078125 -2.71875 C 1.078125 -0.90625 1.9375 0 3.625 0 Z M 3.625 0 " stroke="red" fill="none" stroke-width="0.5" /><path d="M 1.078125 0 L 3.078125 0 L 3.078125 -6.796875 C 3.078125 -7.234375 3.1875 -7.5625 3.390625 -7.78125 C 3.609375 -8.015625 3.859375 -8.125 4.140625 -8.125 C 4.4375 -8.125 4.671875 -8.015625 4.84375 -7.828125 C 5.03125 -7.625 5.125 -7.359375 5.125 -7.015625 L 5.125 0 L 7.125 0 L 7.125 -7.8125 C 7.109375 -8.53125 6.921875 -9.09375 6.53125 -9.484375 C 6.15625 -9.875 5.65625 -10.0625 5.046875 -10.0625 C 4.21875 -10.0625 3.5625 -9.75 3.0625 -9.109375 L 3.0625 -14 L 1.078125 -14 Z M 1.078125 0 " stroke="red" fill="none" stroke-width="0.5" /><path d="M 3.65625 0 L 5.65625 0 L 5.65625 -14 L 3.734375 -14 L 1.5 -12.359375 L 1.5 -10.296875 L 3.65625 -11.84375 Z M 3.65625 0 " stroke="red" fill="none" stroke-width="0.5" /><path d="M 5.453125 -14 L -0.296875 0 L 1.296875 0 L 7.0625 -14 Z M 5.453125 -14 " stroke="red" fill="none" stroke-width="0.5" /><path d="M 1.1875 -14 L 1.1875 -10.484375 L 2.96875 -10.484375 L 2.96875 -12.125 L 5.125 -12.125 L 1.96875 0 L 3.984375 0 L 7.171875 -12.15625 L 7.171875 -14 Z M 1.1875 -14 " stroke="red" fill="none" stroke-width="0.5" /><path d="M 1.34375 -6.390625 L 3.1875 -6.390625 C 3.40625 -6.9375 3.765625 -7.21875 4.265625 -7.21875 C 4.90625 -7.21875 5.203125 -6.828125 5.203125 -6.03125 L 5.203125 -3 C 5.203125 -2.609375 5.125 -2.3125 4.9375 -2.09375 C 4.75 -1.859375 4.484375 -1.75 4.140625 -1.75 C 3.46875 -1.75 3.125 -2.171875 3.125 -3 L 3.125 -3.375 L 1.125 -3.375 L 1.125 -2.765625 C 1.125 -1.828125 1.421875 -1.109375 2.015625 -0.59375 C 2.609375 -0.078125 3.359375 0.1875 4.28125 0.1875 C 5.1875 0.1875 5.890625 -0.09375 6.40625 -0.65625 C 6.921875 -1.203125 7.1875 -1.953125 7.171875 -2.875 L 7.171875 -6.65625 C 7.171875 -7.375 6.96875 -7.953125 6.5625 -8.40625 C 6.140625 -8.875 5.59375 -9.09375 4.921875 -9.078125 C 4.25 -9.078125 3.703125 -8.875 3.296875 -8.5 L 3.296875 -12.171875 L 7.171875 -12.171875 L 7.171875 -13.984375 L 1.296875 -13.984375 Z M 1.34375 -6.390625 " stroke="red" fill="none" stroke-width="0.5" /></svg>