<?xml version='1.0' encoding='UTF-8'?>
<svg xmlns="http://www.w3.org/2000/svg" xmlns:inkscape="http://www.inkscape.org/namespaces/inkscape" width="1000.0mm" height="600.0mm" viewBox="0 0 1000.0 600.0" version="1.1">
  <g inkscape:groupmode="layer" inkscape:label="Cartouche_C">
    <path d="M -7.084,-5.992 L 482.917,-5.992 L 482.917,44.008 L -7.084,44.008 L -7.084,-5.992 Z" stroke="#0000FF" stroke-width="0.200" stroke-linecap="round" stroke-linejoin="round" fill="none"/>
    <path d="M -4.001,58.055 L 486.000,58.055 L 486.000,108.055 L -4.001,108.055 L -4.001,58.055 Z" stroke="#0000FF" stroke-width="0.200" stroke-linecap="round" stroke-linejoin="round" fill="none"/>
    <path d="M 68.729,29.947 L 72.716,41.677 L 64.743,41.677 L 68.729,29.947 M 69.544,26.504 L 67.916,26.504 L 62.117,43.557 L 75.343,43.557 L 69.544,26.504" stroke="#FF0000" stroke-width="0.200" stroke-linecap="round" stroke-linejoin="round" fill="none"/>
    <path d="M 60.249,10.511 L 62.128,10.511 L 62.128,27.565 L 60.249,27.565 L 60.249,10.511 Z" stroke="#FF0000" stroke-width="0.200" stroke-linecap="round" stroke-linejoin="round" fill="none"/>
    <path d="M 55.683,43.733 C 58.344,43.733 60.510,41.567 60.510,38.907 L 60.510,38.509 L 52.789,30.786 C 52.974,29.351 54.226,28.239 55.683,28.239 C 57.292,28.239 58.600,29.548 58.600,31.157 L 58.600,31.474 L 60.510,31.474 L 60.510,31.157 C 60.510,28.497 58.344,26.331 55.683,26.331 C 53.022,26.331 50.857,28.497 50.857,31.157 L 50.857,31.552 L 58.577,39.278 C 58.392,40.714 57.140,41.821 55.683,41.821 C 54.074,41.821 52.765,40.516 52.765,38.907 L 52.765,38.586 L 50.857,38.586 L 50.857,38.907 C 50.857,41.567 53.022,43.733 55.683,43.733" stroke="#FF0000" stroke-width="0.200" stroke-linecap="round" stroke-linejoin="round" fill="none"/>
    <path d="M 6.366,10.567 L 16.080,10.567 L 16.080,12.470 L 6.366,12.470 L 6.366,10.567 Z" stroke="#FF0000" stroke-width="0.200" stroke-linecap="round" stroke-linejoin="round" fill="none"/>
    <path d="M 38.447,32.504 L 45.599,40.632 L 45.599,43.613 L 47.525,43.613 L 47.525,26.557 L 45.599,26.557 L 45.599,37.743 L 38.447,29.615 L 38.447,26.557 L 36.521,26.557 L 36.521,43.613 L 38.447,43.613 L 38.447,32.504" stroke="#FF0000" stroke-width="0.200" stroke-linecap="round" stroke-linejoin="round" fill="none"/>
    <path d="M 64.810,10.511 L 66.690,10.511 L 66.690,19.356 L 64.810,19.356 L 64.810,10.511 Z" stroke="#FF0000" stroke-width="0.200" stroke-linecap="round" stroke-linejoin="round" fill="none"/>
    <path d="M 69.373,10.511 L 71.252,10.511 L 71.252,27.565 L 69.373,27.565 L 69.373,10.511 Z" stroke="#FF0000" stroke-width="0.200" stroke-linecap="round" stroke-linejoin="round" fill="none"/>
    <path d="M 6.366,25.719 L 16.080,25.719 L 16.080,27.621 L 6.366,27.621 L 6.366,25.719 Z" stroke="#FF0000" stroke-width="0.200" stroke-linecap="round" stroke-linejoin="round" fill="none"/>
    <path d="M 6.366,18.142 L 16.080,18.142 L 16.080,20.044 L 6.366,20.044 L 6.366,18.142 Z" stroke="#FF0000" stroke-width="0.200" stroke-linecap="round" stroke-linejoin="round" fill="none"/>
    <path d="M 68.729,93.849 L 72.716,105.582 L 64.743,105.582 L 68.729,93.849 M 69.544,90.406 L 67.916,90.406 L 62.117,107.463 L 75.343,107.463 L 69.544,90.406" stroke="#FF0000" stroke-width="0.200" stroke-linecap="round" stroke-linejoin="round" fill="none"/>
    <path d="M 60.249,74.416 L 62.128,74.416 L 62.128,91.471 L 60.249,91.471 L 60.249,74.416 Z" stroke="#FF0000" stroke-width="0.200" stroke-linecap="round" stroke-linejoin="round" fill="none"/>
    <path d="M 55.683,107.635 C 58.344,107.635 60.510,105.469 60.510,102.809 L 60.510,102.414 L 52.789,94.689 C 52.974,93.253 54.226,92.141 55.683,92.141 C 57.292,92.141 58.600,93.450 58.600,95.059 L 58.600,95.376 L 60.510,95.376 L 60.510,95.059 C 60.510,92.399 58.344,90.233 55.683,90.233 C 53.022,90.233 50.857,92.399 50.857,95.059 L 50.857,95.454 L 58.577,103.180 C 58.392,104.616 57.140,105.727 55.683,105.727 C 54.074,105.727 52.765,104.418 52.765,102.809 L 52.765,102.492 L 50.857,102.492 L 50.857,102.809 C 50.857,105.469 53.022,107.635 55.683,107.635" stroke="#FF0000" stroke-width="0.200" stroke-linecap="round" stroke-linejoin="round" fill="none"/>
    <path d="M 6.366,74.469 L 16.080,74.469 L 16.080,76.372 L 6.366,76.372 L 6.366,74.469 Z" stroke="#FF0000" stroke-width="0.200" stroke-linecap="round" stroke-linejoin="round" fill="none"/>
    <path d="M 38.447,96.410 L 45.599,104.535 L 45.599,107.516 L 47.525,107.516 L 47.525,90.459 L 45.599,90.459 L 45.599,101.645 L 38.447,93.521 L 38.447,90.459 L 36.521,90.459 L 36.521,107.516 L 38.447,107.516 L 38.447,96.410" stroke="#FF0000" stroke-width="0.200" stroke-linecap="round" stroke-linejoin="round" fill="none"/>
    <path d="M 64.810,74.416 L 66.690,74.416 L 66.690,83.262 L 64.810,83.262 L 64.810,74.416 Z" stroke="#FF0000" stroke-width="0.200" stroke-linecap="round" stroke-linejoin="round" fill="none"/>
    <path d="M 69.373,74.416 L 71.252,74.416 L 71.252,91.471 L 69.373,91.471 L 69.373,74.416 Z" stroke="#FF0000" stroke-width="0.200" stroke-linecap="round" stroke-linejoin="round" fill="none"/>
    <path d="M 6.366,89.621 L 16.080,89.621 L 16.080,91.524 L 6.366,91.524 L 6.366,89.621 Z" stroke="#FF0000" stroke-width="0.200" stroke-linecap="round" stroke-linejoin="round" fill="none"/>
    <path d="M 6.366,82.047 L 16.080,82.047 L 16.080,83.949 L 6.366,83.949 L 6.366,82.047 Z" stroke="#FF0000" stroke-width="0.200" stroke-linecap="round" stroke-linejoin="round" fill="none"/>
    <path d="M 439.576,13.260 L 435.981,25.576" stroke="#FF0000" stroke-width="0.200" stroke-linecap="round" stroke-linejoin="round" fill="none"/>
    <path d="M 439.576,13.260 L 443.167,25.576" stroke="#FF0000" stroke-width="0.200" stroke-linecap="round" stroke-linejoin="round" fill="none"/>
    <path d="M 435.981,25.576 L 439.576,22.884" stroke="#FF0000" stroke-width="0.200" stroke-linecap="round" stroke-linejoin="round" fill="none"/>
    <path d="M 443.167,25.576 L 439.576,22.884" stroke="#FF0000" stroke-width="0.200" stroke-linecap="round" stroke-linejoin="round" fill="none"/>
    <path d="M 436.292,35.919 L 436.292,27.770" stroke="#FF0000" stroke-width="0.200" stroke-linecap="round" stroke-linejoin="round" fill="none"/>
    <path d="M 436.292,27.770 L 437.890,27.770" stroke="#FF0000" stroke-width="0.200" stroke-linecap="round" stroke-linejoin="round" fill="none"/>
    <path d="M 437.890,27.770 L 441.252,33.210" stroke="#FF0000" stroke-width="0.200" stroke-linecap="round" stroke-linejoin="round" fill="none"/>
    <path d="M 441.252,33.210 L 441.252,27.770" stroke="#FF0000" stroke-width="0.200" stroke-linecap="round" stroke-linejoin="round" fill="none"/>
    <path d="M 441.252,27.770 L 442.769,27.770" stroke="#FF0000" stroke-width="0.200" stroke-linecap="round" stroke-linejoin="round" fill="none"/>
    <path d="M 442.769,27.770 L 442.769,35.919" stroke="#FF0000" stroke-width="0.200" stroke-linecap="round" stroke-linejoin="round" fill="none"/>
    <path d="M 442.769,35.919 L 441.121,35.912" stroke="#FF0000" stroke-width="0.200" stroke-linecap="round" stroke-linejoin="round" fill="none"/>
    <path d="M 441.121,35.912 L 437.847,30.614" stroke="#FF0000" stroke-width="0.200" stroke-linecap="round" stroke-linejoin="round" fill="none"/>
    <path d="M 437.847,30.614 L 437.847,35.919" stroke="#FF0000" stroke-width="0.200" stroke-linecap="round" stroke-linejoin="round" fill="none"/>
    <path d="M 437.847,35.919 L 436.292,35.919" stroke="#FF0000" stroke-width="0.200" stroke-linecap="round" stroke-linejoin="round" fill="none"/>
    <path d="M 439.576,78.496 L 435.981,90.812" stroke="#FF0000" stroke-width="0.200" stroke-linecap="round" stroke-linejoin="round" fill="none"/>
    <path d="M 439.576,78.496 L 443.167,90.812" stroke="#FF0000" stroke-width="0.200" stroke-linecap="round" stroke-linejoin="round" fill="none"/>
    <path d="M 435.981,90.812 L 439.576,88.120" stroke="#FF0000" stroke-width="0.200" stroke-linecap="round" stroke-linejoin="round" fill="none"/>
    <path d="M 443.167,90.812 L 439.576,88.120" stroke="#FF0000" stroke-width="0.200" stroke-linecap="round" stroke-linejoin="round" fill="none"/>
    <path d="M 436.292,101.155 L 436.292,93.006" stroke="#FF0000" stroke-width="0.200" stroke-linecap="round" stroke-linejoin="round" fill="none"/>
    <path d="M 436.292,93.006 L 437.890,93.006" stroke="#FF0000" stroke-width="0.200" stroke-linecap="round" stroke-linejoin="round" fill="none"/>
    <path d="M 437.890,93.006 L 441.252,98.446" stroke="#FF0000" stroke-width="0.200" stroke-linecap="round" stroke-linejoin="round" fill="none"/>
    <path d="M 441.252,98.446 L 441.252,93.006" stroke="#FF0000" stroke-width="0.200" stroke-linecap="round" stroke-linejoin="round" fill="none"/>
    <path d="M 441.252,93.006 L 442.769,93.006" stroke="#FF0000" stroke-width="0.200" stroke-linecap="round" stroke-linejoin="round" fill="none"/>
    <path d="M 442.769,93.006 L 442.769,101.155" stroke="#FF0000" stroke-width="0.200" stroke-linecap="round" stroke-linejoin="round" fill="none"/>
    <path d="M 442.769,101.155 L 441.121,101.148" stroke="#FF0000" stroke-width="0.200" stroke-linecap="round" stroke-linejoin="round" fill="none"/>
    <path d="M 441.121,101.148 L 437.847,95.849" stroke="#FF0000" stroke-width="0.200" stroke-linecap="round" stroke-linejoin="round" fill="none"/>
    <path d="M 437.847,95.849 L 437.847,101.155" stroke="#FF0000" stroke-width="0.200" stroke-linecap="round" stroke-linejoin="round" fill="none"/>
    <path d="M 437.847,101.155 L 436.292,101.155" stroke="#FF0000" stroke-width="0.200" stroke-linecap="round" stroke-linejoin="round" fill="none"/>
  </g>
</svg>
